SplineFontDB: 3.0
FontName: CPixel
FullName: CPixel
FamilyName: CPixel
Weight: Regular
Copyright: Copyright (c) 2019, Administrator
UComments: "2019-5-26: Created with FontForge (http://fontforge.org)"
Version: 001.000
ItalicAngle: 0
UnderlinePosition: -100
UnderlineWidth: 50
Ascent: 800
Descent: 200
InvalidEm: 0
LayerCount: 2
Layer: 0 0 "Back" 1
Layer: 1 0 "Fore" 0
XUID: [1021 455 683538641 31133]
StyleMap: 0x0000
FSType: 0
OS2Version: 0
OS2_WeightWidthSlopeOnly: 0
OS2_UseTypoMetrics: 1
CreationTime: 1558844203
ModificationTime: 1563800257
OS2TypoAscent: 0
OS2TypoAOffset: 1
OS2TypoDescent: 0
OS2TypoDOffset: 1
OS2TypoLinegap: 90
OS2WinAscent: 0
OS2WinAOffset: 1
OS2WinDescent: 0
OS2WinDOffset: 1
HheadAscent: 0
HheadAOffset: 1
HheadDescent: 0
HheadDOffset: 1
OS2Vendor: 'PfEd'
MarkAttachClasses: 1
DEI: 91125
LangName: 1033
Encoding: UnicodeBmp
UnicodeInterp: none
NameList: AGL For New Fonts
DisplaySize: -48
AntiAlias: 1
FitToEm: 0
WinInfo: 22825 25 9
BeginPrivate: 0
EndPrivate
BeginChars: 65536 94

StartChar: uni4E66
Encoding: 20070 20070 0
Width: 1000
VWidth: 0
Flags: H
LayerCount: 2
Fore
SplineSet
272.727539062 754.545898438 m 1
 272.727539062 800 l 1
 318.181640625 800 l 1
 363.63671875 800 l 1
 363.63671875 754.545898438 l 1
 363.63671875 709.090820312 l 1
 545.454101562 709.090820312 l 1
 727.272460938 709.090820312 l 1
 727.272460938 754.545898438 l 1
 727.272460938 800 l 1
 772.727539062 800 l 1
 818.181640625 800 l 1
 818.181640625 754.545898438 l 1
 818.181640625 709.090820312 l 1
 863.63671875 709.090820312 l 1
 909.090820312 709.090820312 l 1
 909.090820312 663.63671875 l 1
 909.090820312 618.181640625 l 1
 863.63671875 618.181640625 l 1
 818.181640625 618.181640625 l 1
 818.181640625 663.63671875 l 1
 818.181640625 709.090820312 l 1
 772.727539062 709.090820312 l 1
 727.272460938 709.090820312 l 1
 727.272460938 527.272460938 l 1
 727.272460938 345.454101562 l 1
 818.181640625 345.454101562 l 1
 909.090820312 345.454101562 l 1
 909.090820312 300 l 1
 909.090820312 254.545898438 l 1
 954.545898438 254.545898438 l 1
 1000 254.545898438 l 1
 1000 27.2724609375 l 1
 1000 -200 l 1
 909.090820312 -200 l 1
 818.181640625 -200 l 1
 818.181640625 -154.545898438 l 1
 818.181640625 -109.090820312 l 1
 772.727539062 -109.090820312 l 1
 727.272460938 -109.090820312 l 1
 727.272460938 -63.63671875 l 1
 727.272460938 -18.181640625 l 1
 772.727539062 -18.181640625 l 1
 818.181640625 -18.181640625 l 1
 818.181640625 -63.63671875 l 1
 818.181640625 -109.090820312 l 1
 863.63671875 -109.090820312 l 1
 909.090820312 -109.090820312 l 1
 909.090820312 72.7275390625 l 1
 909.090820312 254.545898438 l 1
 636.36328125 254.545898438 l 1
 363.63671875 254.545898438 l 1
 363.63671875 27.2724609375 l 1
 363.63671875 -200 l 1
 318.181640625 -200 l 1
 272.727539062 -200 l 1
 272.727539062 27.2724609375 l 1
 272.727539062 254.545898438 l 1
 136.36328125 254.545898438 l 1
 0 254.545898438 l 1
 0 300 l 1
 0 345.454101562 l 1
 136.36328125 345.454101562 l 1
 272.727539062 345.454101562 l 1
 272.727539062 481.818359375 l 1
 272.727539062 618.181640625 l 1
 136.36328125 618.181640625 l 1
 0 618.181640625 l 1
 0 663.63671875 l 1
 0 709.090820312 l 1
 136.36328125 709.090820312 l 1
 272.727539062 709.090820312 l 1
 272.727539062 754.545898438 l 1
636.36328125 481.818359375 m 1
 636.36328125 618.181640625 l 1
 500 618.181640625 l 1
 363.63671875 618.181640625 l 1
 363.63671875 481.818359375 l 1
 363.63671875 345.454101562 l 1
 500 345.454101562 l 1
 636.36328125 345.454101562 l 1
 636.36328125 481.818359375 l 1
EndSplineSet
EndChar

StartChar: uni4E00
Encoding: 19968 19968 1
Width: 1000
VWidth: 0
Flags: H
LayerCount: 2
Back
Fore
SplineSet
812.5 393.75 m 1
 812.5 425 l 1
 843.75 425 l 1
 875 425 l 1
 875 393.75 l 1
 875 362.5 l 1
 906.25 362.5 l 1
 937.5 362.5 l 1
 937.5 331.25 l 1
 937.5 300 l 1
 468.75 300 l 1
 0 300 l 1
 0 331.25 l 1
 0 362.5 l 1
 406.25 362.5 l 1
 812.5 362.5 l 1
 812.5 393.75 l 1
EndSplineSet
EndChar

StartChar: uni4E86
Encoding: 20102 20102 2
Width: 1000
VWidth: 0
Flags: H
LayerCount: 2
Fore
SplineSet
181.818359375 754.545898438 m 1
 181.818359375 800 l 1
 545.454101562 800 l 1
 909.090820312 800 l 1
 909.090820312 709.090820312 l 1
 909.090820312 618.181640625 l 1
 863.63671875 618.181640625 l 1
 818.181640625 618.181640625 l 1
 818.181640625 572.727539062 l 1
 818.181640625 527.272460938 l 1
 772.727539062 527.272460938 l 1
 727.272460938 527.272460938 l 1
 727.272460938 481.818359375 l 1
 727.272460938 436.36328125 l 1
 681.818359375 436.36328125 l 1
 636.36328125 436.36328125 l 1
 636.36328125 118.181640625 l 1
 636.36328125 -200 l 1
 500 -200 l 1
 363.63671875 -200 l 1
 363.63671875 -154.545898438 l 1
 363.63671875 -109.090820312 l 1
 454.545898438 -109.090820312 l 1
 545.454101562 -109.090820312 l 1
 545.454101562 163.63671875 l 1
 545.454101562 436.36328125 l 1
 590.909179688 436.36328125 l 1
 636.36328125 436.36328125 l 1
 636.36328125 481.818359375 l 1
 636.36328125 527.272460938 l 1
 681.818359375 527.272460938 l 1
 727.272460938 527.272460938 l 1
 727.272460938 572.727539062 l 1
 727.272460938 618.181640625 l 1
 772.727539062 618.181640625 l 1
 818.181640625 618.181640625 l 1
 818.181640625 663.63671875 l 1
 818.181640625 709.090820312 l 1
 500 709.090820312 l 1
 181.818359375 709.090820312 l 1
 181.818359375 754.545898438 l 1
EndSplineSet
Validated: 5
EndChar

StartChar: uni4EBA
Encoding: 20154 20154 3
Width: 1000
VWidth: 0
Flags: H
LayerCount: 2
Fore
SplineSet
454.545898438 618.181640625 m 1
 454.545898438 800 l 1
 500 800 l 1
 545.454101562 800 l 1
 545.454101562 618.181640625 l 1
 545.454101562 436.36328125 l 1
 590.909179688 436.36328125 l 1
 636.36328125 436.36328125 l 1
 636.36328125 300 l 1
 636.36328125 163.63671875 l 1
 681.818359375 163.63671875 l 1
 727.272460938 163.63671875 l 1
 727.272460938 72.7275390625 l 1
 727.272460938 -18.181640625 l 1
 772.727539062 -18.181640625 l 1
 818.181640625 -18.181640625 l 1
 818.181640625 -63.63671875 l 1
 818.181640625 -109.090820312 l 1
 909.090820312 -109.090820312 l 1
 1000 -109.090820312 l 1
 1000 -154.545898438 l 1
 1000 -200 l 1
 909.090820312 -200 l 1
 818.181640625 -200 l 1
 818.181640625 -154.545898438 l 1
 818.181640625 -109.090820312 l 1
 772.727539062 -109.090820312 l 1
 727.272460938 -109.090820312 l 1
 727.272460938 -63.63671875 l 1
 727.272460938 -18.181640625 l 1
 681.818359375 -18.181640625 l 1
 636.36328125 -18.181640625 l 1
 636.36328125 72.7275390625 l 1
 636.36328125 163.63671875 l 1
 590.909179688 163.63671875 l 1
 545.454101562 163.63671875 l 1
 545.454101562 300 l 1
 545.454101562 436.36328125 l 1
 500 436.36328125 l 1
 454.545898438 436.36328125 l 1
 454.545898438 300 l 1
 454.545898438 163.63671875 l 1
 409.090820312 163.63671875 l 1
 363.63671875 163.63671875 l 1
 363.63671875 72.7275390625 l 1
 363.63671875 -18.181640625 l 1
 318.181640625 -18.181640625 l 1
 272.727539062 -18.181640625 l 1
 272.727539062 -63.63671875 l 1
 272.727539062 -109.090820312 l 1
 227.272460938 -109.090820312 l 1
 181.818359375 -109.090820312 l 1
 181.818359375 -154.545898438 l 1
 181.818359375 -200 l 1
 90.9091796875 -200 l 1
 0 -200 l 1
 0 -154.545898438 l 1
 0 -109.090820312 l 1
 90.9091796875 -109.090820312 l 1
 181.818359375 -109.090820312 l 1
 181.818359375 -63.63671875 l 1
 181.818359375 -18.181640625 l 1
 227.272460938 -18.181640625 l 1
 272.727539062 -18.181640625 l 1
 272.727539062 72.7275390625 l 1
 272.727539062 163.63671875 l 1
 318.181640625 163.63671875 l 1
 363.63671875 163.63671875 l 1
 363.63671875 300 l 1
 363.63671875 436.36328125 l 1
 409.090820312 436.36328125 l 1
 454.545898438 436.36328125 l 1
 454.545898438 618.181640625 l 1
EndSplineSet
Validated: 5
EndChar

StartChar: uni53C8
Encoding: 21448 21448 4
Width: 1000
VWidth: 0
Flags: H
LayerCount: 2
Fore
SplineSet
90.9091796875 618.181640625 m 1
 90.9091796875 709.090820312 l 1
 500 709.090820312 l 1
 909.090820312 709.090820312 l 1
 909.090820312 618.181640625 l 1
 909.090820312 527.272460938 l 1
 863.63671875 527.272460938 l 1
 818.181640625 527.272460938 l 1
 818.181640625 481.818359375 l 1
 818.181640625 436.36328125 l 1
 772.727539062 436.36328125 l 1
 727.272460938 436.36328125 l 1
 727.272460938 390.909179688 l 1
 727.272460938 345.454101562 l 1
 681.818359375 345.454101562 l 1
 636.36328125 345.454101562 l 1
 636.36328125 300 l 1
 636.36328125 254.545898438 l 1
 590.909179688 254.545898438 l 1
 545.454101562 254.545898438 l 1
 545.454101562 209.090820312 l 1
 545.454101562 163.63671875 l 1
 590.909179688 163.63671875 l 1
 636.36328125 163.63671875 l 1
 636.36328125 118.181640625 l 1
 636.36328125 72.7275390625 l 1
 681.818359375 72.7275390625 l 1
 727.272460938 72.7275390625 l 1
 727.272460938 27.2724609375 l 1
 727.272460938 -18.181640625 l 1
 772.727539062 -18.181640625 l 1
 818.181640625 -18.181640625 l 1
 818.181640625 -63.63671875 l 1
 818.181640625 -109.090820312 l 1
 909.090820312 -109.090820312 l 1
 1000 -109.090820312 l 1
 1000 -154.545898438 l 1
 1000 -200 l 1
 909.090820312 -200 l 1
 818.181640625 -200 l 1
 818.181640625 -154.545898438 l 1
 818.181640625 -109.090820312 l 1
 772.727539062 -109.090820312 l 1
 727.272460938 -109.090820312 l 1
 727.272460938 -63.63671875 l 1
 727.272460938 -18.181640625 l 1
 681.818359375 -18.181640625 l 1
 636.36328125 -18.181640625 l 1
 636.36328125 27.2724609375 l 1
 636.36328125 72.7275390625 l 1
 590.909179688 72.7275390625 l 1
 545.454101562 72.7275390625 l 1
 545.454101562 118.181640625 l 1
 545.454101562 163.63671875 l 1
 500 163.63671875 l 1
 454.545898438 163.63671875 l 1
 454.545898438 118.181640625 l 1
 454.545898438 72.7275390625 l 1
 409.090820312 72.7275390625 l 1
 363.63671875 72.7275390625 l 1
 363.63671875 27.2724609375 l 1
 363.63671875 -18.181640625 l 1
 318.181640625 -18.181640625 l 1
 272.727539062 -18.181640625 l 1
 272.727539062 -63.63671875 l 1
 272.727539062 -109.090820312 l 1
 227.272460938 -109.090820312 l 1
 181.818359375 -109.090820312 l 1
 181.818359375 -154.545898438 l 1
 181.818359375 -200 l 1
 90.9091796875 -200 l 1
 0 -200 l 1
 0 -154.545898438 l 1
 0 -109.090820312 l 1
 90.9091796875 -109.090820312 l 1
 181.818359375 -109.090820312 l 1
 181.818359375 -63.63671875 l 1
 181.818359375 -18.181640625 l 1
 227.272460938 -18.181640625 l 1
 272.727539062 -18.181640625 l 1
 272.727539062 27.2724609375 l 1
 272.727539062 72.7275390625 l 1
 318.181640625 72.7275390625 l 1
 363.63671875 72.7275390625 l 1
 363.63671875 118.181640625 l 1
 363.63671875 163.63671875 l 1
 409.090820312 163.63671875 l 1
 454.545898438 163.63671875 l 1
 454.545898438 209.090820312 l 1
 454.545898438 254.545898438 l 1
 409.090820312 254.545898438 l 1
 363.63671875 254.545898438 l 1
 363.63671875 300 l 1
 363.63671875 345.454101562 l 1
 318.181640625 345.454101562 l 1
 272.727539062 345.454101562 l 1
 272.727539062 390.909179688 l 1
 272.727539062 436.36328125 l 1
 227.272460938 436.36328125 l 1
 181.818359375 436.36328125 l 1
 181.818359375 481.818359375 l 1
 181.818359375 527.272460938 l 1
 136.36328125 527.272460938 l 1
 90.9091796875 527.272460938 l 1
 90.9091796875 618.181640625 l 1
818.181640625 572.727539062 m 1
 818.181640625 618.181640625 l 1
 500 618.181640625 l 1
 181.818359375 618.181640625 l 1
 181.818359375 572.727539062 l 1
 181.818359375 527.272460938 l 1
 227.272460938 527.272460938 l 1
 272.727539062 527.272460938 l 1
 272.727539062 481.818359375 l 1
 272.727539062 436.36328125 l 1
 318.181640625 436.36328125 l 1
 363.63671875 436.36328125 l 1
 363.63671875 390.909179688 l 1
 363.63671875 345.454101562 l 1
 409.090820312 345.454101562 l 1
 454.545898438 345.454101562 l 1
 454.545898438 300 l 1
 454.545898438 254.545898438 l 1
 500 254.545898438 l 1
 545.454101562 254.545898438 l 1
 545.454101562 300 l 1
 545.454101562 345.454101562 l 1
 590.909179688 345.454101562 l 1
 636.36328125 345.454101562 l 1
 636.36328125 390.909179688 l 1
 636.36328125 436.36328125 l 1
 681.818359375 436.36328125 l 1
 727.272460938 436.36328125 l 1
 727.272460938 481.818359375 l 1
 727.272460938 527.272460938 l 1
 772.727539062 527.272460938 l 1
 818.181640625 527.272460938 l 1
 818.181640625 572.727539062 l 1
EndSplineSet
Validated: 5
EndChar

StartChar: uni513F
Encoding: 20799 20799 5
Width: 1000
VWidth: 0
Flags: H
LayerCount: 2
Back
Fore
SplineSet
181.818359375 436.36328125 m 1
 181.818359375 800 l 1
 227.272460938 800 l 1
 272.727539062 800 l 1
 272.727539062 436.36328125 l 1
 272.727539062 72.7275390625 l 1
 227.272460938 72.7275390625 l 1
 181.818359375 72.7275390625 l 1
 181.818359375 -18.181640625 l 1
 181.818359375 -109.090820312 l 1
 136.36328125 -109.090820312 l 1
 90.9091796875 -109.090820312 l 1
 90.9091796875 -154.545898438 l 1
 90.9091796875 -200 l 1
 45.4541015625 -200 l 1
 0 -200 l 1
 0 -154.545898438 l 1
 0 -109.090820312 l 1
 45.4541015625 -109.090820312 l 1
 90.9091796875 -109.090820312 l 1
 90.9091796875 -18.181640625 l 1
 90.9091796875 72.7275390625 l 1
 136.36328125 72.7275390625 l 1
 181.818359375 72.7275390625 l 1
 181.818359375 436.36328125 l 1
545.454101562 300 m 1
 545.454101562 800 l 1
 590.909179688 800 l 1
 636.36328125 800 l 1
 636.36328125 345.454101562 l 1
 636.36328125 -109.090820312 l 1
 772.727539062 -109.090820312 l 1
 909.090820312 -109.090820312 l 1
 909.090820312 -18.181640625 l 1
 909.090820312 72.7275390625 l 1
 954.545898438 72.7275390625 l 1
 1000 72.7275390625 l 1
 1000 -63.63671875 l 1
 1000 -200 l 1
 772.727539062 -200 l 1
 545.454101562 -200 l 1
 545.454101562 300 l 1
EndSplineSet
Validated: 5
EndChar

StartChar: uni5341
Encoding: 21313 21313 6
Width: 1000
VWidth: 0
Flags: H
LayerCount: 2
Fore
SplineSet
454.545898438 618.181640625 m 1
 454.545898438 800 l 1
 500 800 l 1
 545.454101562 800 l 1
 545.454101562 618.181640625 l 1
 545.454101562 436.36328125 l 1
 727.272460938 436.36328125 l 1
 909.090820312 436.36328125 l 1
 909.090820312 390.909179688 l 1
 909.090820312 345.454101562 l 1
 727.272460938 345.454101562 l 1
 545.454101562 345.454101562 l 1
 545.454101562 72.7275390625 l 1
 545.454101562 -200 l 1
 500 -200 l 1
 454.545898438 -200 l 1
 454.545898438 72.7275390625 l 1
 454.545898438 345.454101562 l 1
 272.727539062 345.454101562 l 1
 90.9091796875 345.454101562 l 1
 90.9091796875 390.909179688 l 1
 90.9091796875 436.36328125 l 1
 272.727539062 436.36328125 l 1
 454.545898438 436.36328125 l 1
 454.545898438 618.181640625 l 1
EndSplineSet
Validated: 1
EndChar

StartChar: uni4E8C
Encoding: 20108 20108 7
Width: 1000
VWidth: 0
Flags: H
LayerCount: 2
Back
Fore
SplineSet
687.5 643.75 m 1
 687.5 675 l 1
 718.75 675 l 1
 750 675 l 1
 750 643.75 l 1
 750 612.5 l 1
 781.25 612.5 l 1
 812.5 612.5 l 1
 812.5 581.25 l 1
 812.5 550 l 1
 468.75 550 l 1
 125 550 l 1
 125 581.25 l 1
 125 612.5 l 1
 406.25 612.5 l 1
 687.5 612.5 l 1
 687.5 643.75 l 1
812.5 81.25 m 1
 812.5 112.5 l 1
 843.75 112.5 l 1
 875 112.5 l 1
 875 81.25 l 1
 875 50 l 1
 906.25 50 l 1
 937.5 50 l 1
 937.5 18.75 l 1
 937.5 -12.5 l 1
 468.75 -12.5 l 1
 0 -12.5 l 1
 0 18.75 l 1
 0 50 l 1
 406.25 50 l 1
 812.5 50 l 1
 812.5 81.25 l 1
EndSplineSet
EndChar

StartChar: uni529B
Encoding: 21147 21147 8
Width: 1000
VWidth: 0
Flags: H
LayerCount: 2
Fore
SplineSet
363.63671875 709.090820312 m 1
 363.63671875 800 l 1
 409.090820312 800 l 1
 454.545898438 800 l 1
 454.545898438 709.090820312 l 1
 454.545898438 618.181640625 l 1
 681.818359375 618.181640625 l 1
 909.090820312 618.181640625 l 1
 909.090820312 572.727539062 l 1
 909.090820312 527.272460938 l 1
 954.545898438 527.272460938 l 1
 1000 527.272460938 l 1
 1000 163.63671875 l 1
 1000 -200 l 1
 863.63671875 -200 l 1
 727.272460938 -200 l 1
 727.272460938 -154.545898438 l 1
 727.272460938 -109.090820312 l 1
 681.818359375 -109.090820312 l 1
 636.36328125 -109.090820312 l 1
 636.36328125 -63.63671875 l 1
 636.36328125 -18.181640625 l 1
 681.818359375 -18.181640625 l 1
 727.272460938 -18.181640625 l 1
 727.272460938 -63.63671875 l 1
 727.272460938 -109.090820312 l 1
 818.181640625 -109.090820312 l 1
 909.090820312 -109.090820312 l 1
 909.090820312 209.090820312 l 1
 909.090820312 527.272460938 l 1
 681.818359375 527.272460938 l 1
 454.545898438 527.272460938 l 1
 454.545898438 345.454101562 l 1
 454.545898438 163.63671875 l 1
 409.090820312 163.63671875 l 1
 363.63671875 163.63671875 l 1
 363.63671875 72.7275390625 l 1
 363.63671875 -18.181640625 l 1
 318.181640625 -18.181640625 l 1
 272.727539062 -18.181640625 l 1
 272.727539062 -63.63671875 l 1
 272.727539062 -109.090820312 l 1
 227.272460938 -109.090820312 l 1
 181.818359375 -109.090820312 l 1
 181.818359375 -154.545898438 l 1
 181.818359375 -200 l 1
 136.36328125 -200 l 1
 90.9091796875 -200 l 1
 90.9091796875 -154.545898438 l 1
 90.9091796875 -109.090820312 l 1
 136.36328125 -109.090820312 l 1
 181.818359375 -109.090820312 l 1
 181.818359375 -63.63671875 l 1
 181.818359375 -18.181640625 l 1
 227.272460938 -18.181640625 l 1
 272.727539062 -18.181640625 l 1
 272.727539062 72.7275390625 l 1
 272.727539062 163.63671875 l 1
 318.181640625 163.63671875 l 1
 363.63671875 163.63671875 l 1
 363.63671875 345.454101562 l 1
 363.63671875 527.272460938 l 1
 227.272460938 527.272460938 l 1
 90.9091796875 527.272460938 l 1
 90.9091796875 572.727539062 l 1
 90.9091796875 618.181640625 l 1
 227.272460938 618.181640625 l 1
 363.63671875 618.181640625 l 1
 363.63671875 709.090820312 l 1
EndSplineSet
Validated: 5
EndChar

StartChar: uni51E0
Encoding: 20960 20960 9
Width: 1000
VWidth: 0
Flags: H
LayerCount: 2
Fore
SplineSet
272.727539062 345.454101562 m 1
 272.727539062 800 l 1
 500 800 l 1
 727.272460938 800 l 1
 727.272460938 754.545898438 l 1
 727.272460938 709.090820312 l 1
 772.727539062 709.090820312 l 1
 818.181640625 709.090820312 l 1
 818.181640625 300 l 1
 818.181640625 -109.090820312 l 1
 863.63671875 -109.090820312 l 1
 909.090820312 -109.090820312 l 1
 909.090820312 -18.181640625 l 1
 909.090820312 72.7275390625 l 1
 954.545898438 72.7275390625 l 1
 1000 72.7275390625 l 1
 1000 -63.63671875 l 1
 1000 -200 l 1
 863.63671875 -200 l 1
 727.272460938 -200 l 1
 727.272460938 254.545898438 l 1
 727.272460938 709.090820312 l 1
 545.454101562 709.090820312 l 1
 363.63671875 709.090820312 l 1
 363.63671875 300 l 1
 363.63671875 -109.090820312 l 1
 318.181640625 -109.090820312 l 1
 272.727539062 -109.090820312 l 1
 272.727539062 -154.545898438 l 1
 272.727539062 -200 l 1
 227.272460938 -200 l 1
 181.818359375 -200 l 1
 181.818359375 -154.545898438 l 1
 181.818359375 -109.090820312 l 1
 227.272460938 -109.090820312 l 1
 272.727539062 -109.090820312 l 1
 272.727539062 345.454101562 l 1
EndSplineSet
Validated: 5
EndChar

StartChar: uni5165
Encoding: 20837 20837 10
Width: 1000
VWidth: 0
Flags: H
LayerCount: 2
Fore
SplineSet
272.727539062 754.545898438 m 1
 272.727539062 800 l 1
 409.090820312 800 l 1
 545.454101562 800 l 1
 545.454101562 572.727539062 l 1
 545.454101562 345.454101562 l 1
 590.909179688 345.454101562 l 1
 636.36328125 345.454101562 l 1
 636.36328125 209.090820312 l 1
 636.36328125 72.7275390625 l 1
 681.818359375 72.7275390625 l 1
 727.272460938 72.7275390625 l 1
 727.272460938 27.2724609375 l 1
 727.272460938 -18.181640625 l 1
 772.727539062 -18.181640625 l 1
 818.181640625 -18.181640625 l 1
 818.181640625 -63.63671875 l 1
 818.181640625 -109.090820312 l 1
 909.090820312 -109.090820312 l 1
 1000 -109.090820312 l 1
 1000 -154.545898438 l 1
 1000 -200 l 1
 909.090820312 -200 l 1
 818.181640625 -200 l 1
 818.181640625 -154.545898438 l 1
 818.181640625 -109.090820312 l 1
 772.727539062 -109.090820312 l 1
 727.272460938 -109.090820312 l 1
 727.272460938 -63.63671875 l 1
 727.272460938 -18.181640625 l 1
 681.818359375 -18.181640625 l 1
 636.36328125 -18.181640625 l 1
 636.36328125 27.2724609375 l 1
 636.36328125 72.7275390625 l 1
 590.909179688 72.7275390625 l 1
 545.454101562 72.7275390625 l 1
 545.454101562 209.090820312 l 1
 545.454101562 345.454101562 l 1
 500 345.454101562 l 1
 454.545898438 345.454101562 l 1
 454.545898438 209.090820312 l 1
 454.545898438 72.7275390625 l 1
 409.090820312 72.7275390625 l 1
 363.63671875 72.7275390625 l 1
 363.63671875 -18.181640625 l 1
 363.63671875 -109.090820312 l 1
 318.181640625 -109.090820312 l 1
 272.727539062 -109.090820312 l 1
 272.727539062 -154.545898438 l 1
 272.727539062 -200 l 1
 181.818359375 -200 l 1
 90.9091796875 -200 l 1
 90.9091796875 -154.545898438 l 1
 90.9091796875 -109.090820312 l 1
 181.818359375 -109.090820312 l 1
 272.727539062 -109.090820312 l 1
 272.727539062 -18.181640625 l 1
 272.727539062 72.7275390625 l 1
 318.181640625 72.7275390625 l 1
 363.63671875 72.7275390625 l 1
 363.63671875 209.090820312 l 1
 363.63671875 345.454101562 l 1
 409.090820312 345.454101562 l 1
 454.545898438 345.454101562 l 1
 454.545898438 527.272460938 l 1
 454.545898438 709.090820312 l 1
 363.63671875 709.090820312 l 1
 272.727539062 709.090820312 l 1
 272.727539062 754.545898438 l 1
EndSplineSet
Validated: 5
EndChar

StartChar: uni516B
Encoding: 20843 20843 11
Width: 1000
VWidth: 0
Flags: H
LayerCount: 2
Fore
SplineSet
545.454101562 436.36328125 m 1
 545.454101562 709.090820312 l 1
 590.909179688 709.090820312 l 1
 636.36328125 709.090820312 l 1
 636.36328125 436.36328125 l 1
 636.36328125 163.63671875 l 1
 681.818359375 163.63671875 l 1
 727.272460938 163.63671875 l 1
 727.272460938 72.7275390625 l 1
 727.272460938 -18.181640625 l 1
 772.727539062 -18.181640625 l 1
 818.181640625 -18.181640625 l 1
 818.181640625 -63.63671875 l 1
 818.181640625 -109.090820312 l 1
 909.090820312 -109.090820312 l 1
 1000 -109.090820312 l 1
 1000 -154.545898438 l 1
 1000 -200 l 1
 909.090820312 -200 l 1
 818.181640625 -200 l 1
 818.181640625 -154.545898438 l 1
 818.181640625 -109.090820312 l 1
 772.727539062 -109.090820312 l 1
 727.272460938 -109.090820312 l 1
 727.272460938 -63.63671875 l 1
 727.272460938 -18.181640625 l 1
 681.818359375 -18.181640625 l 1
 636.36328125 -18.181640625 l 1
 636.36328125 72.7275390625 l 1
 636.36328125 163.63671875 l 1
 590.909179688 163.63671875 l 1
 545.454101562 163.63671875 l 1
 545.454101562 436.36328125 l 1
272.727539062 345.454101562 m 1
 272.727539062 527.272460938 l 1
 318.181640625 527.272460938 l 1
 363.63671875 527.272460938 l 1
 363.63671875 345.454101562 l 1
 363.63671875 163.63671875 l 1
 318.181640625 163.63671875 l 1
 272.727539062 163.63671875 l 1
 272.727539062 72.7275390625 l 1
 272.727539062 -18.181640625 l 1
 227.272460938 -18.181640625 l 1
 181.818359375 -18.181640625 l 1
 181.818359375 -63.63671875 l 1
 181.818359375 -109.090820312 l 1
 136.36328125 -109.090820312 l 1
 90.9091796875 -109.090820312 l 1
 90.9091796875 -154.545898438 l 1
 90.9091796875 -200 l 1
 45.4541015625 -200 l 1
 0 -200 l 1
 0 -154.545898438 l 1
 0 -109.090820312 l 1
 45.4541015625 -109.090820312 l 1
 90.9091796875 -109.090820312 l 1
 90.9091796875 -63.63671875 l 1
 90.9091796875 -18.181640625 l 1
 136.36328125 -18.181640625 l 1
 181.818359375 -18.181640625 l 1
 181.818359375 72.7275390625 l 1
 181.818359375 163.63671875 l 1
 227.272460938 163.63671875 l 1
 272.727539062 163.63671875 l 1
 272.727539062 345.454101562 l 1
EndSplineSet
Validated: 5
EndChar

StartChar: uni4E5D
Encoding: 20061 20061 12
Width: 1000
VWidth: 0
Flags: H
LayerCount: 2
Fore
SplineSet
272.727539062 663.63671875 m 1
 272.727539062 800 l 1
 318.181640625 800 l 1
 363.63671875 800 l 1
 363.63671875 663.63671875 l 1
 363.63671875 527.272460938 l 1
 545.454101562 527.272460938 l 1
 727.272460938 527.272460938 l 1
 727.272460938 209.090820312 l 1
 727.272460938 -109.090820312 l 1
 818.181640625 -109.090820312 l 1
 909.090820312 -109.090820312 l 1
 909.090820312 -18.181640625 l 1
 909.090820312 72.7275390625 l 1
 954.545898438 72.7275390625 l 1
 1000 72.7275390625 l 1
 1000 -63.63671875 l 1
 1000 -200 l 1
 863.63671875 -200 l 1
 727.272460938 -200 l 1
 727.272460938 -154.545898438 l 1
 727.272460938 -109.090820312 l 1
 681.818359375 -109.090820312 l 1
 636.36328125 -109.090820312 l 1
 636.36328125 163.63671875 l 1
 636.36328125 436.36328125 l 1
 500 436.36328125 l 1
 363.63671875 436.36328125 l 1
 363.63671875 254.545898438 l 1
 363.63671875 72.7275390625 l 1
 318.181640625 72.7275390625 l 1
 272.727539062 72.7275390625 l 1
 272.727539062 -18.181640625 l 1
 272.727539062 -109.090820312 l 1
 227.272460938 -109.090820312 l 1
 181.818359375 -109.090820312 l 1
 181.818359375 -154.545898438 l 1
 181.818359375 -200 l 1
 136.36328125 -200 l 1
 90.9091796875 -200 l 1
 90.9091796875 -154.545898438 l 1
 90.9091796875 -109.090820312 l 1
 136.36328125 -109.090820312 l 1
 181.818359375 -109.090820312 l 1
 181.818359375 -18.181640625 l 1
 181.818359375 72.7275390625 l 1
 227.272460938 72.7275390625 l 1
 272.727539062 72.7275390625 l 1
 272.727539062 254.545898438 l 1
 272.727539062 436.36328125 l 1
 136.36328125 436.36328125 l 1
 0 436.36328125 l 1
 0 481.818359375 l 1
 0 527.272460938 l 1
 136.36328125 527.272460938 l 1
 272.727539062 527.272460938 l 1
 272.727539062 663.63671875 l 1
EndSplineSet
Validated: 5
EndChar

StartChar: uni4E03
Encoding: 19971 19971 13
Width: 1000
VWidth: 0
Flags: H
LayerCount: 2
Fore
SplineSet
272.727539062 618.181640625 m 1
 272.727539062 800 l 1
 318.181640625 800 l 1
 363.63671875 800 l 1
 363.63671875 618.181640625 l 1
 363.63671875 436.36328125 l 1
 590.909179688 436.36328125 l 1
 818.181640625 436.36328125 l 1
 818.181640625 390.909179688 l 1
 818.181640625 345.454101562 l 1
 590.909179688 345.454101562 l 1
 363.63671875 345.454101562 l 1
 363.63671875 118.181640625 l 1
 363.63671875 -109.090820312 l 1
 636.36328125 -109.090820312 l 1
 909.090820312 -109.090820312 l 1
 909.090820312 -18.181640625 l 1
 909.090820312 72.7275390625 l 1
 954.545898438 72.7275390625 l 1
 1000 72.7275390625 l 1
 1000 -63.63671875 l 1
 1000 -200 l 1
 636.36328125 -200 l 1
 272.727539062 -200 l 1
 272.727539062 72.7275390625 l 1
 272.727539062 345.454101562 l 1
 136.36328125 345.454101562 l 1
 0 345.454101562 l 1
 0 390.909179688 l 1
 0 436.36328125 l 1
 136.36328125 436.36328125 l 1
 272.727539062 436.36328125 l 1
 272.727539062 618.181640625 l 1
EndSplineSet
Validated: 1
EndChar

StartChar: uni5382
Encoding: 21378 21378 14
Width: 1000
VWidth: 0
Flags: H
LayerCount: 2
Fore
SplineSet
181.818359375 436.36328125 m 1
 181.818359375 800 l 1
 590.909179688 800 l 1
 1000 800 l 1
 1000 754.545898438 l 1
 1000 709.090820312 l 1
 636.36328125 709.090820312 l 1
 272.727539062 709.090820312 l 1
 272.727539062 390.909179688 l 1
 272.727539062 72.7275390625 l 1
 227.272460938 72.7275390625 l 1
 181.818359375 72.7275390625 l 1
 181.818359375 -18.181640625 l 1
 181.818359375 -109.090820312 l 1
 136.36328125 -109.090820312 l 1
 90.9091796875 -109.090820312 l 1
 90.9091796875 -154.545898438 l 1
 90.9091796875 -200 l 1
 45.4541015625 -200 l 1
 0 -200 l 1
 0 -154.545898438 l 1
 0 -109.090820312 l 1
 45.4541015625 -109.090820312 l 1
 90.9091796875 -109.090820312 l 1
 90.9091796875 -18.181640625 l 1
 90.9091796875 72.7275390625 l 1
 136.36328125 72.7275390625 l 1
 181.818359375 72.7275390625 l 1
 181.818359375 436.36328125 l 1
EndSplineSet
Validated: 5
EndChar

StartChar: uni4E2A
Encoding: 20010 20010 15
Width: 1000
VWidth: 0
Flags: H
LayerCount: 2
Fore
SplineSet
454.545898438 709.090820312 m 1
 454.545898438 800 l 1
 500 800 l 1
 545.454101562 800 l 1
 545.454101562 709.090820312 l 1
 545.454101562 618.181640625 l 1
 590.909179688 618.181640625 l 1
 636.36328125 618.181640625 l 1
 636.36328125 572.727539062 l 1
 636.36328125 527.272460938 l 1
 681.818359375 527.272460938 l 1
 727.272460938 527.272460938 l 1
 727.272460938 481.818359375 l 1
 727.272460938 436.36328125 l 1
 772.727539062 436.36328125 l 1
 818.181640625 436.36328125 l 1
 818.181640625 390.909179688 l 1
 818.181640625 345.454101562 l 1
 909.090820312 345.454101562 l 1
 1000 345.454101562 l 1
 1000 300 l 1
 1000 254.545898438 l 1
 909.090820312 254.545898438 l 1
 818.181640625 254.545898438 l 1
 818.181640625 300 l 1
 818.181640625 345.454101562 l 1
 772.727539062 345.454101562 l 1
 727.272460938 345.454101562 l 1
 727.272460938 390.909179688 l 1
 727.272460938 436.36328125 l 1
 681.818359375 436.36328125 l 1
 636.36328125 436.36328125 l 1
 636.36328125 481.818359375 l 1
 636.36328125 527.272460938 l 1
 590.909179688 527.272460938 l 1
 545.454101562 527.272460938 l 1
 545.454101562 163.63671875 l 1
 545.454101562 -200 l 1
 500 -200 l 1
 454.545898438 -200 l 1
 454.545898438 163.63671875 l 1
 454.545898438 527.272460938 l 1
 409.090820312 527.272460938 l 1
 363.63671875 527.272460938 l 1
 363.63671875 481.818359375 l 1
 363.63671875 436.36328125 l 1
 318.181640625 436.36328125 l 1
 272.727539062 436.36328125 l 1
 272.727539062 390.909179688 l 1
 272.727539062 345.454101562 l 1
 227.272460938 345.454101562 l 1
 181.818359375 345.454101562 l 1
 181.818359375 300 l 1
 181.818359375 254.545898438 l 1
 90.9091796875 254.545898438 l 1
 0 254.545898438 l 1
 0 300 l 1
 0 345.454101562 l 1
 90.9091796875 345.454101562 l 1
 181.818359375 345.454101562 l 1
 181.818359375 390.909179688 l 1
 181.818359375 436.36328125 l 1
 227.272460938 436.36328125 l 1
 272.727539062 436.36328125 l 1
 272.727539062 481.818359375 l 1
 272.727539062 527.272460938 l 1
 318.181640625 527.272460938 l 1
 363.63671875 527.272460938 l 1
 363.63671875 572.727539062 l 1
 363.63671875 618.181640625 l 1
 409.090820312 618.181640625 l 1
 454.545898438 618.181640625 l 1
 454.545898438 709.090820312 l 1
545.454101562 572.727539062 m 1
 545.454101562 618.181640625 l 1
 500 618.181640625 l 1
 454.545898438 618.181640625 l 1
 454.545898438 572.727539062 l 1
 454.545898438 527.272460938 l 1
 500 527.272460938 l 1
 545.454101562 527.272460938 l 1
 545.454101562 572.727539062 l 1
EndSplineSet
Validated: 5
EndChar

StartChar: uni4E0A
Encoding: 19978 19978 16
Width: 1000
VWidth: 0
Flags: H
LayerCount: 2
Fore
SplineSet
363.63671875 300 m 1
 363.63671875 709.090820312 l 1
 409.090820312 709.090820312 l 1
 454.545898438 709.090820312 l 1
 454.545898438 572.727539062 l 1
 454.545898438 436.36328125 l 1
 636.36328125 436.36328125 l 1
 818.181640625 436.36328125 l 1
 818.181640625 390.909179688 l 1
 818.181640625 345.454101562 l 1
 636.36328125 345.454101562 l 1
 454.545898438 345.454101562 l 1
 454.545898438 118.181640625 l 1
 454.545898438 -109.090820312 l 1
 727.272460938 -109.090820312 l 1
 1000 -109.090820312 l 1
 1000 -154.545898438 l 1
 1000 -200 l 1
 500 -200 l 1
 0 -200 l 1
 0 -154.545898438 l 1
 0 -109.090820312 l 1
 181.818359375 -109.090820312 l 1
 363.63671875 -109.090820312 l 1
 363.63671875 300 l 1
EndSplineSet
Validated: 1
EndChar

StartChar: uni5927
Encoding: 22823 22823 17
Width: 1000
VWidth: 0
Flags: H
LayerCount: 2
Fore
SplineSet
454.545898438 663.63671875 m 1
 454.545898438 800 l 1
 500 800 l 1
 545.454101562 800 l 1
 545.454101562 663.63671875 l 1
 545.454101562 527.272460938 l 1
 772.727539062 527.272460938 l 1
 1000 527.272460938 l 1
 1000 481.818359375 l 1
 1000 436.36328125 l 1
 772.727539062 436.36328125 l 1
 545.454101562 436.36328125 l 1
 545.454101562 345.454101562 l 1
 545.454101562 254.545898438 l 1
 590.909179688 254.545898438 l 1
 636.36328125 254.545898438 l 1
 636.36328125 163.63671875 l 1
 636.36328125 72.7275390625 l 1
 681.818359375 72.7275390625 l 1
 727.272460938 72.7275390625 l 1
 727.272460938 27.2724609375 l 1
 727.272460938 -18.181640625 l 1
 772.727539062 -18.181640625 l 1
 818.181640625 -18.181640625 l 1
 818.181640625 -63.63671875 l 1
 818.181640625 -109.090820312 l 1
 909.090820312 -109.090820312 l 1
 1000 -109.090820312 l 1
 1000 -154.545898438 l 1
 1000 -200 l 1
 909.090820312 -200 l 1
 818.181640625 -200 l 1
 818.181640625 -154.545898438 l 1
 818.181640625 -109.090820312 l 1
 772.727539062 -109.090820312 l 1
 727.272460938 -109.090820312 l 1
 727.272460938 -63.63671875 l 1
 727.272460938 -18.181640625 l 1
 681.818359375 -18.181640625 l 1
 636.36328125 -18.181640625 l 1
 636.36328125 27.2724609375 l 1
 636.36328125 72.7275390625 l 1
 590.909179688 72.7275390625 l 1
 545.454101562 72.7275390625 l 1
 545.454101562 163.63671875 l 1
 545.454101562 254.545898438 l 1
 500 254.545898438 l 1
 454.545898438 254.545898438 l 1
 454.545898438 163.63671875 l 1
 454.545898438 72.7275390625 l 1
 409.090820312 72.7275390625 l 1
 363.63671875 72.7275390625 l 1
 363.63671875 27.2724609375 l 1
 363.63671875 -18.181640625 l 1
 318.181640625 -18.181640625 l 1
 272.727539062 -18.181640625 l 1
 272.727539062 -63.63671875 l 1
 272.727539062 -109.090820312 l 1
 227.272460938 -109.090820312 l 1
 181.818359375 -109.090820312 l 1
 181.818359375 -154.545898438 l 1
 181.818359375 -200 l 1
 90.9091796875 -200 l 1
 0 -200 l 1
 0 -154.545898438 l 1
 0 -109.090820312 l 1
 90.9091796875 -109.090820312 l 1
 181.818359375 -109.090820312 l 1
 181.818359375 -63.63671875 l 1
 181.818359375 -18.181640625 l 1
 227.272460938 -18.181640625 l 1
 272.727539062 -18.181640625 l 1
 272.727539062 27.2724609375 l 1
 272.727539062 72.7275390625 l 1
 318.181640625 72.7275390625 l 1
 363.63671875 72.7275390625 l 1
 363.63671875 163.63671875 l 1
 363.63671875 254.545898438 l 1
 409.090820312 254.545898438 l 1
 454.545898438 254.545898438 l 1
 454.545898438 345.454101562 l 1
 454.545898438 436.36328125 l 1
 227.272460938 436.36328125 l 1
 0 436.36328125 l 1
 0 481.818359375 l 1
 0 527.272460938 l 1
 227.272460938 527.272460938 l 1
 454.545898438 527.272460938 l 1
 454.545898438 663.63671875 l 1
EndSplineSet
Validated: 5
EndChar

StartChar: uni5B50
Encoding: 23376 23376 18
Width: 1000
VWidth: 0
Flags: H
LayerCount: 2
Fore
SplineSet
90.9091796875 754.545898438 m 1
 90.9091796875 800 l 1
 454.545898438 800 l 1
 818.181640625 800 l 1
 818.181640625 663.63671875 l 1
 818.181640625 527.272460938 l 1
 772.727539062 527.272460938 l 1
 727.272460938 527.272460938 l 1
 727.272460938 481.818359375 l 1
 727.272460938 436.36328125 l 1
 681.818359375 436.36328125 l 1
 636.36328125 436.36328125 l 1
 636.36328125 390.909179688 l 1
 636.36328125 345.454101562 l 1
 818.181640625 345.454101562 l 1
 1000 345.454101562 l 1
 1000 300 l 1
 1000 254.545898438 l 1
 818.181640625 254.545898438 l 1
 636.36328125 254.545898438 l 1
 636.36328125 27.2724609375 l 1
 636.36328125 -200 l 1
 500 -200 l 1
 363.63671875 -200 l 1
 363.63671875 -154.545898438 l 1
 363.63671875 -109.090820312 l 1
 318.181640625 -109.090820312 l 1
 272.727539062 -109.090820312 l 1
 272.727539062 -63.63671875 l 1
 272.727539062 -18.181640625 l 1
 318.181640625 -18.181640625 l 1
 363.63671875 -18.181640625 l 1
 363.63671875 -63.63671875 l 1
 363.63671875 -109.090820312 l 1
 454.545898438 -109.090820312 l 1
 545.454101562 -109.090820312 l 1
 545.454101562 72.7275390625 l 1
 545.454101562 254.545898438 l 1
 272.727539062 254.545898438 l 1
 0 254.545898438 l 1
 0 300 l 1
 0 345.454101562 l 1
 272.727539062 345.454101562 l 1
 545.454101562 345.454101562 l 1
 545.454101562 390.909179688 l 1
 545.454101562 436.36328125 l 1
 590.909179688 436.36328125 l 1
 636.36328125 436.36328125 l 1
 636.36328125 481.818359375 l 1
 636.36328125 527.272460938 l 1
 681.818359375 527.272460938 l 1
 727.272460938 527.272460938 l 1
 727.272460938 618.181640625 l 1
 727.272460938 709.090820312 l 1
 409.090820312 709.090820312 l 1
 90.9091796875 709.090820312 l 1
 90.9091796875 754.545898438 l 1
EndSplineSet
Validated: 5
EndChar

StartChar: uni4E5F
Encoding: 20063 20063 19
Width: 1000
VWidth: 0
Flags: H
LayerCount: 2
Fore
SplineSet
90.9091796875 527.272460938 m 1
 90.9091796875 709.090820312 l 1
 136.36328125 709.090820312 l 1
 181.818359375 709.090820312 l 1
 181.818359375 572.727539062 l 1
 181.818359375 436.36328125 l 1
 318.181640625 436.36328125 l 1
 454.545898438 436.36328125 l 1
 454.545898438 572.727539062 l 1
 454.545898438 709.090820312 l 1
 500 709.090820312 l 1
 545.454101562 709.090820312 l 1
 545.454101562 618.181640625 l 1
 545.454101562 527.272460938 l 1
 636.36328125 527.272460938 l 1
 727.272460938 527.272460938 l 1
 727.272460938 572.727539062 l 1
 727.272460938 618.181640625 l 1
 818.181640625 618.181640625 l 1
 909.090820312 618.181640625 l 1
 909.090820312 390.909179688 l 1
 909.090820312 163.63671875 l 1
 818.181640625 163.63671875 l 1
 727.272460938 163.63671875 l 1
 727.272460938 209.090820312 l 1
 727.272460938 254.545898438 l 1
 772.727539062 254.545898438 l 1
 818.181640625 254.545898438 l 1
 818.181640625 390.909179688 l 1
 818.181640625 527.272460938 l 1
 772.727539062 527.272460938 l 1
 727.272460938 527.272460938 l 1
 727.272460938 481.818359375 l 1
 727.272460938 436.36328125 l 1
 636.36328125 436.36328125 l 1
 545.454101562 436.36328125 l 1
 545.454101562 300 l 1
 545.454101562 163.63671875 l 1
 500 163.63671875 l 1
 454.545898438 163.63671875 l 1
 454.545898438 254.545898438 l 1
 454.545898438 345.454101562 l 1
 318.181640625 345.454101562 l 1
 181.818359375 345.454101562 l 1
 181.818359375 118.181640625 l 1
 181.818359375 -109.090820312 l 1
 545.454101562 -109.090820312 l 1
 909.090820312 -109.090820312 l 1
 909.090820312 -63.63671875 l 1
 909.090820312 -18.181640625 l 1
 954.545898438 -18.181640625 l 1
 1000 -18.181640625 l 1
 1000 -109.090820312 l 1
 1000 -200 l 1
 590.909179688 -200 l 1
 181.818359375 -200 l 1
 181.818359375 -154.545898438 l 1
 181.818359375 -109.090820312 l 1
 136.36328125 -109.090820312 l 1
 90.9091796875 -109.090820312 l 1
 90.9091796875 72.7275390625 l 1
 90.9091796875 254.545898438 l 1
 45.4541015625 254.545898438 l 1
 0 254.545898438 l 1
 0 300 l 1
 0 345.454101562 l 1
 45.4541015625 345.454101562 l 1
 90.9091796875 345.454101562 l 1
 90.9091796875 527.272460938 l 1
EndSplineSet
Validated: 5
EndChar

StartChar: uni4E4B
Encoding: 20043 20043 20
Width: 1000
VWidth: 0
Flags: H
LayerCount: 2
Fore
SplineSet
363.63671875 754.545898438 m 1
 363.63671875 800 l 1
 545.454101562 800 l 1
 727.272460938 800 l 1
 727.272460938 754.545898438 l 1
 727.272460938 709.090820312 l 1
 545.454101562 709.090820312 l 1
 363.63671875 709.090820312 l 1
 363.63671875 754.545898438 l 1
90.9091796875 572.727539062 m 1
 90.9091796875 618.181640625 l 1
 500 618.181640625 l 1
 909.090820312 618.181640625 l 1
 909.090820312 481.818359375 l 1
 909.090820312 345.454101562 l 1
 863.63671875 345.454101562 l 1
 818.181640625 345.454101562 l 1
 818.181640625 300 l 1
 818.181640625 254.545898438 l 1
 772.727539062 254.545898438 l 1
 727.272460938 254.545898438 l 1
 727.272460938 209.090820312 l 1
 727.272460938 163.63671875 l 1
 681.818359375 163.63671875 l 1
 636.36328125 163.63671875 l 1
 636.36328125 118.181640625 l 1
 636.36328125 72.7275390625 l 1
 590.909179688 72.7275390625 l 1
 545.454101562 72.7275390625 l 1
 545.454101562 27.2724609375 l 1
 545.454101562 -18.181640625 l 1
 454.545898438 -18.181640625 l 1
 363.63671875 -18.181640625 l 1
 363.63671875 -63.63671875 l 1
 363.63671875 -109.090820312 l 1
 681.818359375 -109.090820312 l 1
 1000 -109.090820312 l 1
 1000 -154.545898438 l 1
 1000 -200 l 1
 590.909179688 -200 l 1
 181.818359375 -200 l 1
 181.818359375 -154.545898438 l 1
 181.818359375 -109.090820312 l 1
 136.36328125 -109.090820312 l 1
 90.9091796875 -109.090820312 l 1
 90.9091796875 -63.63671875 l 1
 90.9091796875 -18.181640625 l 1
 227.272460938 -18.181640625 l 1
 363.63671875 -18.181640625 l 1
 363.63671875 27.2724609375 l 1
 363.63671875 72.7275390625 l 1
 454.545898438 72.7275390625 l 1
 545.454101562 72.7275390625 l 1
 545.454101562 118.181640625 l 1
 545.454101562 163.63671875 l 1
 590.909179688 163.63671875 l 1
 636.36328125 163.63671875 l 1
 636.36328125 209.090820312 l 1
 636.36328125 254.545898438 l 1
 681.818359375 254.545898438 l 1
 727.272460938 254.545898438 l 1
 727.272460938 300 l 1
 727.272460938 345.454101562 l 1
 772.727539062 345.454101562 l 1
 818.181640625 345.454101562 l 1
 818.181640625 436.36328125 l 1
 818.181640625 527.272460938 l 1
 454.545898438 527.272460938 l 1
 90.9091796875 527.272460938 l 1
 90.9091796875 572.727539062 l 1
EndSplineSet
Validated: 5
EndChar

StartChar: uni4E0B
Encoding: 19979 19979 21
Width: 1000
VWidth: 0
Flags: H
LayerCount: 2
Fore
SplineSet
90.9091796875 663.63671875 m 1
 90.9091796875 709.090820312 l 1
 500 709.090820312 l 1
 909.090820312 709.090820312 l 1
 909.090820312 663.63671875 l 1
 909.090820312 618.181640625 l 1
 681.818359375 618.181640625 l 1
 454.545898438 618.181640625 l 1
 454.545898438 481.818359375 l 1
 454.545898438 345.454101562 l 1
 500 345.454101562 l 1
 545.454101562 345.454101562 l 1
 545.454101562 300 l 1
 545.454101562 254.545898438 l 1
 590.909179688 254.545898438 l 1
 636.36328125 254.545898438 l 1
 636.36328125 209.090820312 l 1
 636.36328125 163.63671875 l 1
 681.818359375 163.63671875 l 1
 727.272460938 163.63671875 l 1
 727.272460938 118.181640625 l 1
 727.272460938 72.7275390625 l 1
 772.727539062 72.7275390625 l 1
 818.181640625 72.7275390625 l 1
 818.181640625 27.2724609375 l 1
 818.181640625 -18.181640625 l 1
 772.727539062 -18.181640625 l 1
 727.272460938 -18.181640625 l 1
 727.272460938 27.2724609375 l 1
 727.272460938 72.7275390625 l 1
 681.818359375 72.7275390625 l 1
 636.36328125 72.7275390625 l 1
 636.36328125 118.181640625 l 1
 636.36328125 163.63671875 l 1
 590.909179688 163.63671875 l 1
 545.454101562 163.63671875 l 1
 545.454101562 209.090820312 l 1
 545.454101562 254.545898438 l 1
 500 254.545898438 l 1
 454.545898438 254.545898438 l 1
 454.545898438 27.2724609375 l 1
 454.545898438 -200 l 1
 409.090820312 -200 l 1
 363.63671875 -200 l 1
 363.63671875 209.090820312 l 1
 363.63671875 618.181640625 l 1
 227.272460938 618.181640625 l 1
 90.9091796875 618.181640625 l 1
 90.9091796875 663.63671875 l 1
EndSplineSet
Validated: 5
EndChar

StartChar: uni4E48
Encoding: 20040 20040 22
Width: 1000
VWidth: 0
Flags: H
LayerCount: 2
Fore
SplineSet
363.63671875 709.090820312 m 1
 363.63671875 800 l 1
 409.090820312 800 l 1
 454.545898438 800 l 1
 454.545898438 709.090820312 l 1
 454.545898438 618.181640625 l 1
 409.090820312 618.181640625 l 1
 363.63671875 618.181640625 l 1
 363.63671875 527.272460938 l 1
 363.63671875 436.36328125 l 1
 318.181640625 436.36328125 l 1
 272.727539062 436.36328125 l 1
 272.727539062 390.909179688 l 1
 272.727539062 345.454101562 l 1
 227.272460938 345.454101562 l 1
 181.818359375 345.454101562 l 1
 181.818359375 300 l 1
 181.818359375 254.545898438 l 1
 136.36328125 254.545898438 l 1
 90.9091796875 254.545898438 l 1
 90.9091796875 300 l 1
 90.9091796875 345.454101562 l 1
 136.36328125 345.454101562 l 1
 181.818359375 345.454101562 l 1
 181.818359375 390.909179688 l 1
 181.818359375 436.36328125 l 1
 227.272460938 436.36328125 l 1
 272.727539062 436.36328125 l 1
 272.727539062 527.272460938 l 1
 272.727539062 618.181640625 l 1
 318.181640625 618.181640625 l 1
 363.63671875 618.181640625 l 1
 363.63671875 709.090820312 l 1
545.454101562 572.727539062 m 1
 545.454101562 709.090820312 l 1
 590.909179688 709.090820312 l 1
 636.36328125 709.090820312 l 1
 636.36328125 572.727539062 l 1
 636.36328125 436.36328125 l 1
 590.909179688 436.36328125 l 1
 545.454101562 436.36328125 l 1
 545.454101562 345.454101562 l 1
 545.454101562 254.545898438 l 1
 500 254.545898438 l 1
 454.545898438 254.545898438 l 1
 454.545898438 209.090820312 l 1
 454.545898438 163.63671875 l 1
 409.090820312 163.63671875 l 1
 363.63671875 163.63671875 l 1
 363.63671875 118.181640625 l 1
 363.63671875 72.7275390625 l 1
 318.181640625 72.7275390625 l 1
 272.727539062 72.7275390625 l 1
 272.727539062 27.2724609375 l 1
 272.727539062 -18.181640625 l 1
 227.272460938 -18.181640625 l 1
 181.818359375 -18.181640625 l 1
 181.818359375 -63.63671875 l 1
 181.818359375 -109.090820312 l 1
 545.454101562 -109.090820312 l 1
 909.090820312 -109.090820312 l 1
 909.090820312 -63.63671875 l 1
 909.090820312 -18.181640625 l 1
 863.63671875 -18.181640625 l 1
 818.181640625 -18.181640625 l 1
 818.181640625 72.7275390625 l 1
 818.181640625 163.63671875 l 1
 863.63671875 163.63671875 l 1
 909.090820312 163.63671875 l 1
 909.090820312 72.7275390625 l 1
 909.090820312 -18.181640625 l 1
 954.545898438 -18.181640625 l 1
 1000 -18.181640625 l 1
 1000 -109.090820312 l 1
 1000 -200 l 1
 500 -200 l 1
 0 -200 l 1
 0 -154.545898438 l 1
 0 -109.090820312 l 1
 45.4541015625 -109.090820312 l 1
 90.9091796875 -109.090820312 l 1
 90.9091796875 -63.63671875 l 1
 90.9091796875 -18.181640625 l 1
 136.36328125 -18.181640625 l 1
 181.818359375 -18.181640625 l 1
 181.818359375 27.2724609375 l 1
 181.818359375 72.7275390625 l 1
 227.272460938 72.7275390625 l 1
 272.727539062 72.7275390625 l 1
 272.727539062 118.181640625 l 1
 272.727539062 163.63671875 l 1
 318.181640625 163.63671875 l 1
 363.63671875 163.63671875 l 1
 363.63671875 209.090820312 l 1
 363.63671875 254.545898438 l 1
 409.090820312 254.545898438 l 1
 454.545898438 254.545898438 l 1
 454.545898438 345.454101562 l 1
 454.545898438 436.36328125 l 1
 500 436.36328125 l 1
 545.454101562 436.36328125 l 1
 545.454101562 572.727539062 l 1
EndSplineSet
Validated: 5
EndChar

StartChar: uni5C0F
Encoding: 23567 23567 23
Width: 1000
VWidth: 0
Flags: H
LayerCount: 2
Fore
SplineSet
454.545898438 345.454101562 m 1
 454.545898438 800 l 1
 500 800 l 1
 545.454101562 800 l 1
 545.454101562 300 l 1
 545.454101562 -200 l 1
 409.090820312 -200 l 1
 272.727539062 -200 l 1
 272.727539062 -109.090820312 l 1
 272.727539062 -18.181640625 l 1
 318.181640625 -18.181640625 l 1
 363.63671875 -18.181640625 l 1
 363.63671875 -63.63671875 l 1
 363.63671875 -109.090820312 l 1
 409.090820312 -109.090820312 l 1
 454.545898438 -109.090820312 l 1
 454.545898438 345.454101562 l 1
90.9091796875 345.454101562 m 1
 90.9091796875 436.36328125 l 1
 136.36328125 436.36328125 l 1
 181.818359375 436.36328125 l 1
 181.818359375 345.454101562 l 1
 181.818359375 254.545898438 l 1
 136.36328125 254.545898438 l 1
 90.9091796875 254.545898438 l 1
 90.9091796875 163.63671875 l 1
 90.9091796875 72.7275390625 l 1
 45.4541015625 72.7275390625 l 1
 0 72.7275390625 l 1
 0 163.63671875 l 1
 0 254.545898438 l 1
 45.4541015625 254.545898438 l 1
 90.9091796875 254.545898438 l 1
 90.9091796875 345.454101562 l 1
818.181640625 345.454101562 m 1
 818.181640625 436.36328125 l 1
 863.63671875 436.36328125 l 1
 909.090820312 436.36328125 l 1
 909.090820312 345.454101562 l 1
 909.090820312 254.545898438 l 1
 954.545898438 254.545898438 l 1
 1000 254.545898438 l 1
 1000 163.63671875 l 1
 1000 72.7275390625 l 1
 954.545898438 72.7275390625 l 1
 909.090820312 72.7275390625 l 1
 909.090820312 163.63671875 l 1
 909.090820312 254.545898438 l 1
 863.63671875 254.545898438 l 1
 818.181640625 254.545898438 l 1
 818.181640625 345.454101562 l 1
EndSplineSet
Validated: 5
EndChar

StartChar: uni4E8E
Encoding: 20110 20110 24
Width: 1000
VWidth: 0
Flags: H
LayerCount: 2
Fore
SplineSet
181.818359375 754.545898438 m 1
 181.818359375 800 l 1
 545.454101562 800 l 1
 909.090820312 800 l 1
 909.090820312 754.545898438 l 1
 909.090820312 709.090820312 l 1
 772.727539062 709.090820312 l 1
 636.36328125 709.090820312 l 1
 636.36328125 527.272460938 l 1
 636.36328125 345.454101562 l 1
 818.181640625 345.454101562 l 1
 1000 345.454101562 l 1
 1000 300 l 1
 1000 254.545898438 l 1
 818.181640625 254.545898438 l 1
 636.36328125 254.545898438 l 1
 636.36328125 27.2724609375 l 1
 636.36328125 -200 l 1
 500 -200 l 1
 363.63671875 -200 l 1
 363.63671875 -109.090820312 l 1
 363.63671875 -18.181640625 l 1
 409.090820312 -18.181640625 l 1
 454.545898438 -18.181640625 l 1
 454.545898438 -63.63671875 l 1
 454.545898438 -109.090820312 l 1
 500 -109.090820312 l 1
 545.454101562 -109.090820312 l 1
 545.454101562 72.7275390625 l 1
 545.454101562 254.545898438 l 1
 272.727539062 254.545898438 l 1
 0 254.545898438 l 1
 0 300 l 1
 0 345.454101562 l 1
 272.727539062 345.454101562 l 1
 545.454101562 345.454101562 l 1
 545.454101562 527.272460938 l 1
 545.454101562 709.090820312 l 1
 363.63671875 709.090820312 l 1
 181.818359375 709.090820312 l 1
 181.818359375 754.545898438 l 1
EndSplineSet
Validated: 1
EndChar

StartChar: uni5DF2
Encoding: 24050 24050 25
Width: 1000
VWidth: 0
Flags: H
LayerCount: 2
Fore
SplineSet
90.9091796875 663.63671875 m 1
 90.9091796875 709.090820312 l 1
 500 709.090820312 l 1
 909.090820312 709.090820312 l 1
 909.090820312 481.818359375 l 1
 909.090820312 254.545898438 l 1
 545.454101562 254.545898438 l 1
 181.818359375 254.545898438 l 1
 181.818359375 72.7275390625 l 1
 181.818359375 -109.090820312 l 1
 545.454101562 -109.090820312 l 1
 909.090820312 -109.090820312 l 1
 909.090820312 -18.181640625 l 1
 909.090820312 72.7275390625 l 1
 954.545898438 72.7275390625 l 1
 1000 72.7275390625 l 1
 1000 -63.63671875 l 1
 1000 -200 l 1
 545.454101562 -200 l 1
 90.9091796875 -200 l 1
 90.9091796875 118.181640625 l 1
 90.9091796875 436.36328125 l 1
 136.36328125 436.36328125 l 1
 181.818359375 436.36328125 l 1
 181.818359375 390.909179688 l 1
 181.818359375 345.454101562 l 1
 500 345.454101562 l 1
 818.181640625 345.454101562 l 1
 818.181640625 481.818359375 l 1
 818.181640625 618.181640625 l 1
 454.545898438 618.181640625 l 1
 90.9091796875 618.181640625 l 1
 90.9091796875 663.63671875 l 1
EndSplineSet
Validated: 1
EndChar

StartChar: uni4E0E
Encoding: 19982 19982 26
Width: 1000
VWidth: 0
Flags: H
LayerCount: 2
Fore
SplineSet
181.818359375 572.727539062 m 1
 181.818359375 800 l 1
 227.272460938 800 l 1
 272.727539062 800 l 1
 272.727539062 709.090820312 l 1
 272.727539062 618.181640625 l 1
 545.454101562 618.181640625 l 1
 818.181640625 618.181640625 l 1
 818.181640625 572.727539062 l 1
 818.181640625 527.272460938 l 1
 545.454101562 527.272460938 l 1
 272.727539062 527.272460938 l 1
 272.727539062 436.36328125 l 1
 272.727539062 345.454101562 l 1
 590.909179688 345.454101562 l 1
 909.090820312 345.454101562 l 1
 909.090820312 72.7275390625 l 1
 909.090820312 -200 l 1
 772.727539062 -200 l 1
 636.36328125 -200 l 1
 636.36328125 -154.545898438 l 1
 636.36328125 -109.090820312 l 1
 727.272460938 -109.090820312 l 1
 818.181640625 -109.090820312 l 1
 818.181640625 -63.63671875 l 1
 818.181640625 -18.181640625 l 1
 454.545898438 -18.181640625 l 1
 90.9091796875 -18.181640625 l 1
 90.9091796875 27.2724609375 l 1
 90.9091796875 72.7275390625 l 1
 454.545898438 72.7275390625 l 1
 818.181640625 72.7275390625 l 1
 818.181640625 163.63671875 l 1
 818.181640625 254.545898438 l 1
 454.545898438 254.545898438 l 1
 90.9091796875 254.545898438 l 1
 90.9091796875 300 l 1
 90.9091796875 345.454101562 l 1
 136.36328125 345.454101562 l 1
 181.818359375 345.454101562 l 1
 181.818359375 572.727539062 l 1
EndSplineSet
Validated: 1
EndChar

StartChar: uni5DF1
Encoding: 24049 24049 27
Width: 1000
VWidth: 0
Flags: H
LayerCount: 2
Fore
SplineSet
90.9091796875 663.63671875 m 1
 90.9091796875 709.090820312 l 1
 500 709.090820312 l 1
 909.090820312 709.090820312 l 1
 909.090820312 481.818359375 l 1
 909.090820312 254.545898438 l 1
 545.454101562 254.545898438 l 1
 181.818359375 254.545898438 l 1
 181.818359375 72.7275390625 l 1
 181.818359375 -109.090820312 l 1
 545.454101562 -109.090820312 l 1
 909.090820312 -109.090820312 l 1
 909.090820312 -18.181640625 l 1
 909.090820312 72.7275390625 l 1
 954.545898438 72.7275390625 l 1
 1000 72.7275390625 l 1
 1000 -63.63671875 l 1
 1000 -200 l 1
 545.454101562 -200 l 1
 90.9091796875 -200 l 1
 90.9091796875 72.7275390625 l 1
 90.9091796875 345.454101562 l 1
 454.545898438 345.454101562 l 1
 818.181640625 345.454101562 l 1
 818.181640625 481.818359375 l 1
 818.181640625 618.181640625 l 1
 454.545898438 618.181640625 l 1
 90.9091796875 618.181640625 l 1
 90.9091796875 663.63671875 l 1
EndSplineSet
Validated: 1
EndChar

StartChar: uni95E8
Encoding: 38376 38376 28
Width: 1000
VWidth: 0
Flags: H
LayerCount: 2
Fore
SplineSet
90.9091796875 754.545898438 m 1
 90.9091796875 800 l 1
 136.36328125 800 l 1
 181.818359375 800 l 1
 181.818359375 754.545898438 l 1
 181.818359375 709.090820312 l 1
 227.272460938 709.090820312 l 1
 272.727539062 709.090820312 l 1
 272.727539062 663.63671875 l 1
 272.727539062 618.181640625 l 1
 227.272460938 618.181640625 l 1
 181.818359375 618.181640625 l 1
 181.818359375 209.090820312 l 1
 181.818359375 -200 l 1
 136.36328125 -200 l 1
 90.9091796875 -200 l 1
 90.9091796875 209.090820312 l 1
 90.9091796875 618.181640625 l 1
 136.36328125 618.181640625 l 1
 181.818359375 618.181640625 l 1
 181.818359375 663.63671875 l 1
 181.818359375 709.090820312 l 1
 136.36328125 709.090820312 l 1
 90.9091796875 709.090820312 l 1
 90.9091796875 754.545898438 l 1
363.63671875 663.63671875 m 1
 363.63671875 709.090820312 l 1
 681.818359375 709.090820312 l 1
 1000 709.090820312 l 1
 1000 254.545898438 l 1
 1000 -200 l 1
 863.63671875 -200 l 1
 727.272460938 -200 l 1
 727.272460938 -109.090820312 l 1
 727.272460938 -18.181640625 l 1
 772.727539062 -18.181640625 l 1
 818.181640625 -18.181640625 l 1
 818.181640625 -63.63671875 l 1
 818.181640625 -109.090820312 l 1
 863.63671875 -109.090820312 l 1
 909.090820312 -109.090820312 l 1
 909.090820312 254.545898438 l 1
 909.090820312 618.181640625 l 1
 636.36328125 618.181640625 l 1
 363.63671875 618.181640625 l 1
 363.63671875 663.63671875 l 1
EndSplineSet
Validated: 5
EndChar

StartChar: uni5DE5
Encoding: 24037 24037 29
Width: 1000
VWidth: 0
Flags: H
LayerCount: 2
Fore
SplineSet
90.9091796875 663.63671875 m 1
 90.9091796875 709.090820312 l 1
 500 709.090820312 l 1
 909.090820312 709.090820312 l 1
 909.090820312 663.63671875 l 1
 909.090820312 618.181640625 l 1
 727.272460938 618.181640625 l 1
 545.454101562 618.181640625 l 1
 545.454101562 254.545898438 l 1
 545.454101562 -109.090820312 l 1
 772.727539062 -109.090820312 l 1
 1000 -109.090820312 l 1
 1000 -154.545898438 l 1
 1000 -200 l 1
 500 -200 l 1
 0 -200 l 1
 0 -154.545898438 l 1
 0 -109.090820312 l 1
 227.272460938 -109.090820312 l 1
 454.545898438 -109.090820312 l 1
 454.545898438 254.545898438 l 1
 454.545898438 618.181640625 l 1
 272.727539062 618.181640625 l 1
 90.9091796875 618.181640625 l 1
 90.9091796875 663.63671875 l 1
EndSplineSet
Validated: 1
EndChar

StartChar: uni53E3
Encoding: 21475 21475 30
Width: 1000
VWidth: 0
Flags: H
LayerCount: 2
Fore
SplineSet
90.9091796875 254.545898438 m 1
 90.9091796875 618.181640625 l 1
 500 618.181640625 l 1
 909.090820312 618.181640625 l 1
 909.090820312 254.545898438 l 1
 909.090820312 -109.090820312 l 1
 500 -109.090820312 l 1
 90.9091796875 -109.090820312 l 1
 90.9091796875 254.545898438 l 1
818.181640625 254.545898438 m 1
 818.181640625 527.272460938 l 1
 500 527.272460938 l 1
 181.818359375 527.272460938 l 1
 181.818359375 254.545898438 l 1
 181.818359375 -18.181640625 l 1
 500 -18.181640625 l 1
 818.181640625 -18.181640625 l 1
 818.181640625 254.545898438 l 1
EndSplineSet
Validated: 1
EndChar

StartChar: uni624D
Encoding: 25165 25165 31
Width: 1000
VWidth: 0
Flags: H
LayerCount: 2
Fore
SplineSet
636.36328125 663.63671875 m 1
 636.36328125 800 l 1
 681.818359375 800 l 1
 727.272460938 800 l 1
 727.272460938 663.63671875 l 1
 727.272460938 527.272460938 l 1
 818.181640625 527.272460938 l 1
 909.090820312 527.272460938 l 1
 909.090820312 481.818359375 l 1
 909.090820312 436.36328125 l 1
 818.181640625 436.36328125 l 1
 727.272460938 436.36328125 l 1
 727.272460938 118.181640625 l 1
 727.272460938 -200 l 1
 590.909179688 -200 l 1
 454.545898438 -200 l 1
 454.545898438 -109.090820312 l 1
 454.545898438 -18.181640625 l 1
 500 -18.181640625 l 1
 545.454101562 -18.181640625 l 1
 545.454101562 -63.63671875 l 1
 545.454101562 -109.090820312 l 1
 590.909179688 -109.090820312 l 1
 636.36328125 -109.090820312 l 1
 636.36328125 72.7275390625 l 1
 636.36328125 254.545898438 l 1
 590.909179688 254.545898438 l 1
 545.454101562 254.545898438 l 1
 545.454101562 209.090820312 l 1
 545.454101562 163.63671875 l 1
 500 163.63671875 l 1
 454.545898438 163.63671875 l 1
 454.545898438 118.181640625 l 1
 454.545898438 72.7275390625 l 1
 363.63671875 72.7275390625 l 1
 272.727539062 72.7275390625 l 1
 272.727539062 27.2724609375 l 1
 272.727539062 -18.181640625 l 1
 181.818359375 -18.181640625 l 1
 90.9091796875 -18.181640625 l 1
 90.9091796875 27.2724609375 l 1
 90.9091796875 72.7275390625 l 1
 181.818359375 72.7275390625 l 1
 272.727539062 72.7275390625 l 1
 272.727539062 118.181640625 l 1
 272.727539062 163.63671875 l 1
 363.63671875 163.63671875 l 1
 454.545898438 163.63671875 l 1
 454.545898438 209.090820312 l 1
 454.545898438 254.545898438 l 1
 500 254.545898438 l 1
 545.454101562 254.545898438 l 1
 545.454101562 300 l 1
 545.454101562 345.454101562 l 1
 590.909179688 345.454101562 l 1
 636.36328125 345.454101562 l 1
 636.36328125 390.909179688 l 1
 636.36328125 436.36328125 l 1
 363.63671875 436.36328125 l 1
 90.9091796875 436.36328125 l 1
 90.9091796875 481.818359375 l 1
 90.9091796875 527.272460938 l 1
 363.63671875 527.272460938 l 1
 636.36328125 527.272460938 l 1
 636.36328125 663.63671875 l 1
EndSplineSet
Validated: 5
EndChar

StartChar: uni5C71
Encoding: 23665 23665 32
Width: 1000
VWidth: 0
Flags: H
LayerCount: 2
Fore
SplineSet
454.545898438 390.909179688 m 1
 454.545898438 800 l 1
 500 800 l 1
 545.454101562 800 l 1
 545.454101562 390.909179688 l 1
 545.454101562 -18.181640625 l 1
 727.272460938 -18.181640625 l 1
 909.090820312 -18.181640625 l 1
 909.090820312 163.63671875 l 1
 909.090820312 345.454101562 l 1
 954.545898438 345.454101562 l 1
 1000 345.454101562 l 1
 1000 72.7275390625 l 1
 1000 -200 l 1
 954.545898438 -200 l 1
 909.090820312 -200 l 1
 909.090820312 -154.545898438 l 1
 909.090820312 -109.090820312 l 1
 500 -109.090820312 l 1
 90.9091796875 -109.090820312 l 1
 90.9091796875 -154.545898438 l 1
 90.9091796875 -200 l 1
 45.4541015625 -200 l 1
 0 -200 l 1
 0 72.7275390625 l 1
 0 345.454101562 l 1
 45.4541015625 345.454101562 l 1
 90.9091796875 345.454101562 l 1
 90.9091796875 163.63671875 l 1
 90.9091796875 -18.181640625 l 1
 272.727539062 -18.181640625 l 1
 454.545898438 -18.181640625 l 1
 454.545898438 390.909179688 l 1
EndSplineSet
Validated: 1
EndChar

StartChar: uni9A6C
Encoding: 39532 39532 33
Width: 1000
VWidth: 0
Flags: H
LayerCount: 2
Back
Fore
SplineSet
90.9091796875 754.545898438 m 1
 90.9091796875 800 l 1
 454.545898438 800 l 1
 818.181640625 800 l 1
 818.181640625 618.181640625 l 1
 818.181640625 436.36328125 l 1
 909.090820312 436.36328125 l 1
 1000 436.36328125 l 1
 1000 118.181640625 l 1
 1000 -200 l 1
 863.63671875 -200 l 1
 727.272460938 -200 l 1
 727.272460938 -109.090820312 l 1
 727.272460938 -18.181640625 l 1
 772.727539062 -18.181640625 l 1
 818.181640625 -18.181640625 l 1
 818.181640625 -63.63671875 l 1
 818.181640625 -109.090820312 l 1
 863.63671875 -109.090820312 l 1
 909.090820312 -109.090820312 l 1
 909.090820312 118.181640625 l 1
 909.090820312 345.454101562 l 1
 454.545898438 345.454101562 l 1
 0 345.454101562 l 1
 0 390.909179688 l 1
 0 436.36328125 l 1
 136.36328125 436.36328125 l 1
 272.727539062 436.36328125 l 1
 272.727539062 481.818359375 l 1
 272.727539062 527.272460938 l 1
 318.181640625 527.272460938 l 1
 363.63671875 527.272460938 l 1
 363.63671875 618.181640625 l 1
 363.63671875 709.090820312 l 1
 227.272460938 709.090820312 l 1
 90.9091796875 709.090820312 l 1
 90.9091796875 754.545898438 l 1
727.272460938 572.727539062 m 1
 727.272460938 709.090820312 l 1
 590.909179688 709.090820312 l 1
 454.545898438 709.090820312 l 1
 454.545898438 618.181640625 l 1
 454.545898438 527.272460938 l 1
 409.090820312 527.272460938 l 1
 363.63671875 527.272460938 l 1
 363.63671875 481.818359375 l 1
 363.63671875 436.36328125 l 1
 545.454101562 436.36328125 l 1
 727.272460938 436.36328125 l 1
 727.272460938 572.727539062 l 1
90.9091796875 118.181640625 m 1
 90.9091796875 163.63671875 l 1
 454.545898438 163.63671875 l 1
 818.181640625 163.63671875 l 1
 818.181640625 118.181640625 l 1
 818.181640625 72.7275390625 l 1
 454.545898438 72.7275390625 l 1
 90.9091796875 72.7275390625 l 1
 90.9091796875 118.181640625 l 1
EndSplineSet
EndChar

StartChar: uni53CA
Encoding: 21450 21450 34
Width: 1000
VWidth: 0
Flags: H
LayerCount: 2
Fore
SplineSet
0 754.545898438 m 1
 0 800 l 1
 454.545898438 800 l 1
 909.090820312 800 l 1
 909.090820312 754.545898438 l 1
 909.090820312 709.090820312 l 1
 863.63671875 709.090820312 l 1
 818.181640625 709.090820312 l 1
 818.181640625 663.63671875 l 1
 818.181640625 618.181640625 l 1
 772.727539062 618.181640625 l 1
 727.272460938 618.181640625 l 1
 727.272460938 572.727539062 l 1
 727.272460938 527.272460938 l 1
 818.181640625 527.272460938 l 1
 909.090820312 527.272460938 l 1
 909.090820312 436.36328125 l 1
 909.090820312 345.454101562 l 1
 863.63671875 345.454101562 l 1
 818.181640625 345.454101562 l 1
 818.181640625 254.545898438 l 1
 818.181640625 163.63671875 l 1
 772.727539062 163.63671875 l 1
 727.272460938 163.63671875 l 1
 727.272460938 118.181640625 l 1
 727.272460938 72.7275390625 l 1
 681.818359375 72.7275390625 l 1
 636.36328125 72.7275390625 l 1
 636.36328125 27.2724609375 l 1
 636.36328125 -18.181640625 l 1
 727.272460938 -18.181640625 l 1
 818.181640625 -18.181640625 l 1
 818.181640625 -63.63671875 l 1
 818.181640625 -109.090820312 l 1
 909.090820312 -109.090820312 l 1
 1000 -109.090820312 l 1
 1000 -154.545898438 l 1
 1000 -200 l 1
 909.090820312 -200 l 1
 818.181640625 -200 l 1
 818.181640625 -154.545898438 l 1
 818.181640625 -109.090820312 l 1
 727.272460938 -109.090820312 l 1
 636.36328125 -109.090820312 l 1
 636.36328125 -63.63671875 l 1
 636.36328125 -18.181640625 l 1
 590.909179688 -18.181640625 l 1
 545.454101562 -18.181640625 l 1
 545.454101562 -63.63671875 l 1
 545.454101562 -109.090820312 l 1
 454.545898438 -109.090820312 l 1
 363.63671875 -109.090820312 l 1
 363.63671875 -154.545898438 l 1
 363.63671875 -200 l 1
 272.727539062 -200 l 1
 181.818359375 -200 l 1
 181.818359375 -154.545898438 l 1
 181.818359375 -109.090820312 l 1
 136.36328125 -109.090820312 l 1
 90.9091796875 -109.090820312 l 1
 90.9091796875 -154.545898438 l 1
 90.9091796875 -200 l 1
 45.4541015625 -200 l 1
 0 -200 l 1
 0 -154.545898438 l 1
 0 -109.090820312 l 1
 45.4541015625 -109.090820312 l 1
 90.9091796875 -109.090820312 l 1
 90.9091796875 -18.181640625 l 1
 90.9091796875 72.7275390625 l 1
 136.36328125 72.7275390625 l 1
 181.818359375 72.7275390625 l 1
 181.818359375 390.909179688 l 1
 181.818359375 709.090820312 l 1
 90.9091796875 709.090820312 l 1
 0 709.090820312 l 1
 0 754.545898438 l 1
727.272460938 663.63671875 m 1
 727.272460938 709.090820312 l 1
 500 709.090820312 l 1
 272.727539062 709.090820312 l 1
 272.727539062 572.727539062 l 1
 272.727539062 436.36328125 l 1
 318.181640625 436.36328125 l 1
 363.63671875 436.36328125 l 1
 363.63671875 345.454101562 l 1
 363.63671875 254.545898438 l 1
 318.181640625 254.545898438 l 1
 272.727539062 254.545898438 l 1
 272.727539062 163.63671875 l 1
 272.727539062 72.7275390625 l 1
 227.272460938 72.7275390625 l 1
 181.818359375 72.7275390625 l 1
 181.818359375 -18.181640625 l 1
 181.818359375 -109.090820312 l 1
 272.727539062 -109.090820312 l 1
 363.63671875 -109.090820312 l 1
 363.63671875 -63.63671875 l 1
 363.63671875 -18.181640625 l 1
 454.545898438 -18.181640625 l 1
 545.454101562 -18.181640625 l 1
 545.454101562 27.2724609375 l 1
 545.454101562 72.7275390625 l 1
 590.909179688 72.7275390625 l 1
 636.36328125 72.7275390625 l 1
 636.36328125 118.181640625 l 1
 636.36328125 163.63671875 l 1
 681.818359375 163.63671875 l 1
 727.272460938 163.63671875 l 1
 727.272460938 254.545898438 l 1
 727.272460938 345.454101562 l 1
 772.727539062 345.454101562 l 1
 818.181640625 345.454101562 l 1
 818.181640625 390.909179688 l 1
 818.181640625 436.36328125 l 1
 681.818359375 436.36328125 l 1
 545.454101562 436.36328125 l 1
 545.454101562 481.818359375 l 1
 545.454101562 527.272460938 l 1
 590.909179688 527.272460938 l 1
 636.36328125 527.272460938 l 1
 636.36328125 572.727539062 l 1
 636.36328125 618.181640625 l 1
 681.818359375 618.181640625 l 1
 727.272460938 618.181640625 l 1
 727.272460938 663.63671875 l 1
363.63671875 209.090820312 m 1
 363.63671875 254.545898438 l 1
 409.090820312 254.545898438 l 1
 454.545898438 254.545898438 l 1
 454.545898438 209.090820312 l 1
 454.545898438 163.63671875 l 1
 500 163.63671875 l 1
 545.454101562 163.63671875 l 1
 545.454101562 118.181640625 l 1
 545.454101562 72.7275390625 l 1
 500 72.7275390625 l 1
 454.545898438 72.7275390625 l 1
 454.545898438 118.181640625 l 1
 454.545898438 163.63671875 l 1
 409.090820312 163.63671875 l 1
 363.63671875 163.63671875 l 1
 363.63671875 209.090820312 l 1
EndSplineSet
Validated: 5
EndChar

StartChar: uni4E49
Encoding: 20041 20041 35
Width: 1000
VWidth: 0
Flags: H
LayerCount: 2
Fore
SplineSet
363.63671875 709.090820312 m 1
 363.63671875 800 l 1
 409.090820312 800 l 1
 454.545898438 800 l 1
 454.545898438 709.090820312 l 1
 454.545898438 618.181640625 l 1
 500 618.181640625 l 1
 545.454101562 618.181640625 l 1
 545.454101562 527.272460938 l 1
 545.454101562 436.36328125 l 1
 500 436.36328125 l 1
 454.545898438 436.36328125 l 1
 454.545898438 527.272460938 l 1
 454.545898438 618.181640625 l 1
 409.090820312 618.181640625 l 1
 363.63671875 618.181640625 l 1
 363.63671875 709.090820312 l 1
90.9091796875 572.727539062 m 1
 90.9091796875 709.090820312 l 1
 136.36328125 709.090820312 l 1
 181.818359375 709.090820312 l 1
 181.818359375 572.727539062 l 1
 181.818359375 436.36328125 l 1
 227.272460938 436.36328125 l 1
 272.727539062 436.36328125 l 1
 272.727539062 345.454101562 l 1
 272.727539062 254.545898438 l 1
 318.181640625 254.545898438 l 1
 363.63671875 254.545898438 l 1
 363.63671875 209.090820312 l 1
 363.63671875 163.63671875 l 1
 409.090820312 163.63671875 l 1
 454.545898438 163.63671875 l 1
 454.545898438 118.181640625 l 1
 454.545898438 72.7275390625 l 1
 500 72.7275390625 l 1
 545.454101562 72.7275390625 l 1
 545.454101562 118.181640625 l 1
 545.454101562 163.63671875 l 1
 590.909179688 163.63671875 l 1
 636.36328125 163.63671875 l 1
 636.36328125 209.090820312 l 1
 636.36328125 254.545898438 l 1
 681.818359375 254.545898438 l 1
 727.272460938 254.545898438 l 1
 727.272460938 345.454101562 l 1
 727.272460938 436.36328125 l 1
 772.727539062 436.36328125 l 1
 818.181640625 436.36328125 l 1
 818.181640625 572.727539062 l 1
 818.181640625 709.090820312 l 1
 863.63671875 709.090820312 l 1
 909.090820312 709.090820312 l 1
 909.090820312 572.727539062 l 1
 909.090820312 436.36328125 l 1
 863.63671875 436.36328125 l 1
 818.181640625 436.36328125 l 1
 818.181640625 345.454101562 l 1
 818.181640625 254.545898438 l 1
 772.727539062 254.545898438 l 1
 727.272460938 254.545898438 l 1
 727.272460938 209.090820312 l 1
 727.272460938 163.63671875 l 1
 681.818359375 163.63671875 l 1
 636.36328125 163.63671875 l 1
 636.36328125 118.181640625 l 1
 636.36328125 72.7275390625 l 1
 590.909179688 72.7275390625 l 1
 545.454101562 72.7275390625 l 1
 545.454101562 27.2724609375 l 1
 545.454101562 -18.181640625 l 1
 636.36328125 -18.181640625 l 1
 727.272460938 -18.181640625 l 1
 727.272460938 -63.63671875 l 1
 727.272460938 -109.090820312 l 1
 863.63671875 -109.090820312 l 1
 1000 -109.090820312 l 1
 1000 -154.545898438 l 1
 1000 -200 l 1
 863.63671875 -200 l 1
 727.272460938 -200 l 1
 727.272460938 -154.545898438 l 1
 727.272460938 -109.090820312 l 1
 636.36328125 -109.090820312 l 1
 545.454101562 -109.090820312 l 1
 545.454101562 -63.63671875 l 1
 545.454101562 -18.181640625 l 1
 500 -18.181640625 l 1
 454.545898438 -18.181640625 l 1
 454.545898438 -63.63671875 l 1
 454.545898438 -109.090820312 l 1
 363.63671875 -109.090820312 l 1
 272.727539062 -109.090820312 l 1
 272.727539062 -154.545898438 l 1
 272.727539062 -200 l 1
 136.36328125 -200 l 1
 0 -200 l 1
 0 -154.545898438 l 1
 0 -109.090820312 l 1
 136.36328125 -109.090820312 l 1
 272.727539062 -109.090820312 l 1
 272.727539062 -63.63671875 l 1
 272.727539062 -18.181640625 l 1
 363.63671875 -18.181640625 l 1
 454.545898438 -18.181640625 l 1
 454.545898438 27.2724609375 l 1
 454.545898438 72.7275390625 l 1
 409.090820312 72.7275390625 l 1
 363.63671875 72.7275390625 l 1
 363.63671875 118.181640625 l 1
 363.63671875 163.63671875 l 1
 318.181640625 163.63671875 l 1
 272.727539062 163.63671875 l 1
 272.727539062 209.090820312 l 1
 272.727539062 254.545898438 l 1
 227.272460938 254.545898438 l 1
 181.818359375 254.545898438 l 1
 181.818359375 345.454101562 l 1
 181.818359375 436.36328125 l 1
 136.36328125 436.36328125 l 1
 90.9091796875 436.36328125 l 1
 90.9091796875 572.727539062 l 1
EndSplineSet
Validated: 5
EndChar

StartChar: uni4E07
Encoding: 19975 19975 36
Width: 1000
VWidth: 0
Flags: H
LayerCount: 2
Fore
SplineSet
0 754.545898438 m 1
 0 800 l 1
 500 800 l 1
 1000 800 l 1
 1000 754.545898438 l 1
 1000 709.090820312 l 1
 636.36328125 709.090820312 l 1
 272.727539062 709.090820312 l 1
 272.727539062 572.727539062 l 1
 272.727539062 436.36328125 l 1
 545.454101562 436.36328125 l 1
 818.181640625 436.36328125 l 1
 818.181640625 390.909179688 l 1
 818.181640625 345.454101562 l 1
 863.63671875 345.454101562 l 1
 909.090820312 345.454101562 l 1
 909.090820312 72.7275390625 l 1
 909.090820312 -200 l 1
 818.181640625 -200 l 1
 727.272460938 -200 l 1
 727.272460938 -154.545898438 l 1
 727.272460938 -109.090820312 l 1
 681.818359375 -109.090820312 l 1
 636.36328125 -109.090820312 l 1
 636.36328125 -63.63671875 l 1
 636.36328125 -18.181640625 l 1
 681.818359375 -18.181640625 l 1
 727.272460938 -18.181640625 l 1
 727.272460938 -63.63671875 l 1
 727.272460938 -109.090820312 l 1
 772.727539062 -109.090820312 l 1
 818.181640625 -109.090820312 l 1
 818.181640625 118.181640625 l 1
 818.181640625 345.454101562 l 1
 545.454101562 345.454101562 l 1
 272.727539062 345.454101562 l 1
 272.727539062 209.090820312 l 1
 272.727539062 72.7275390625 l 1
 227.272460938 72.7275390625 l 1
 181.818359375 72.7275390625 l 1
 181.818359375 -18.181640625 l 1
 181.818359375 -109.090820312 l 1
 136.36328125 -109.090820312 l 1
 90.9091796875 -109.090820312 l 1
 90.9091796875 -154.545898438 l 1
 90.9091796875 -200 l 1
 45.4541015625 -200 l 1
 0 -200 l 1
 0 -154.545898438 l 1
 0 -109.090820312 l 1
 45.4541015625 -109.090820312 l 1
 90.9091796875 -109.090820312 l 1
 90.9091796875 -18.181640625 l 1
 90.9091796875 72.7275390625 l 1
 136.36328125 72.7275390625 l 1
 181.818359375 72.7275390625 l 1
 181.818359375 390.909179688 l 1
 181.818359375 709.090820312 l 1
 90.9091796875 709.090820312 l 1
 0 709.090820312 l 1
 0 754.545898438 l 1
EndSplineSet
Validated: 5
EndChar

StartChar: uni5E72
Encoding: 24178 24178 37
Width: 1000
VWidth: 0
Flags: H
LayerCount: 2
Fore
SplineSet
181.818359375 754.545898438 m 1
 181.818359375 800 l 1
 500 800 l 1
 818.181640625 800 l 1
 818.181640625 754.545898438 l 1
 818.181640625 709.090820312 l 1
 681.818359375 709.090820312 l 1
 545.454101562 709.090820312 l 1
 545.454101562 527.272460938 l 1
 545.454101562 345.454101562 l 1
 772.727539062 345.454101562 l 1
 1000 345.454101562 l 1
 1000 300 l 1
 1000 254.545898438 l 1
 772.727539062 254.545898438 l 1
 545.454101562 254.545898438 l 1
 545.454101562 27.2724609375 l 1
 545.454101562 -200 l 1
 500 -200 l 1
 454.545898438 -200 l 1
 454.545898438 27.2724609375 l 1
 454.545898438 254.545898438 l 1
 227.272460938 254.545898438 l 1
 0 254.545898438 l 1
 0 300 l 1
 0 345.454101562 l 1
 227.272460938 345.454101562 l 1
 454.545898438 345.454101562 l 1
 454.545898438 527.272460938 l 1
 454.545898438 709.090820312 l 1
 318.181640625 709.090820312 l 1
 181.818359375 709.090820312 l 1
 181.818359375 754.545898438 l 1
EndSplineSet
Validated: 1
EndChar

StartChar: uni98DE
Encoding: 39134 39134 38
Width: 1000
VWidth: 0
Flags: H
LayerCount: 2
Fore
SplineSet
0 754.545898438 m 1
 0 800 l 1
 318.181640625 800 l 1
 636.36328125 800 l 1
 636.36328125 618.181640625 l 1
 636.36328125 436.36328125 l 1
 681.818359375 436.36328125 l 1
 727.272460938 436.36328125 l 1
 727.272460938 481.818359375 l 1
 727.272460938 527.272460938 l 1
 772.727539062 527.272460938 l 1
 818.181640625 527.272460938 l 1
 818.181640625 618.181640625 l 1
 818.181640625 709.090820312 l 1
 863.63671875 709.090820312 l 1
 909.090820312 709.090820312 l 1
 909.090820312 618.181640625 l 1
 909.090820312 527.272460938 l 1
 863.63671875 527.272460938 l 1
 818.181640625 527.272460938 l 1
 818.181640625 481.818359375 l 1
 818.181640625 436.36328125 l 1
 772.727539062 436.36328125 l 1
 727.272460938 436.36328125 l 1
 727.272460938 390.909179688 l 1
 727.272460938 345.454101562 l 1
 772.727539062 345.454101562 l 1
 818.181640625 345.454101562 l 1
 818.181640625 300 l 1
 818.181640625 254.545898438 l 1
 909.090820312 254.545898438 l 1
 1000 254.545898438 l 1
 1000 209.090820312 l 1
 1000 163.63671875 l 1
 909.090820312 163.63671875 l 1
 818.181640625 163.63671875 l 1
 818.181640625 209.090820312 l 1
 818.181640625 254.545898438 l 1
 772.727539062 254.545898438 l 1
 727.272460938 254.545898438 l 1
 727.272460938 300 l 1
 727.272460938 345.454101562 l 1
 681.818359375 345.454101562 l 1
 636.36328125 345.454101562 l 1
 636.36328125 254.545898438 l 1
 636.36328125 163.63671875 l 1
 681.818359375 163.63671875 l 1
 727.272460938 163.63671875 l 1
 727.272460938 72.7275390625 l 1
 727.272460938 -18.181640625 l 1
 772.727539062 -18.181640625 l 1
 818.181640625 -18.181640625 l 1
 818.181640625 -63.63671875 l 1
 818.181640625 -109.090820312 l 1
 909.090820312 -109.090820312 l 1
 1000 -109.090820312 l 1
 1000 -154.545898438 l 1
 1000 -200 l 1
 909.090820312 -200 l 1
 818.181640625 -200 l 1
 818.181640625 -154.545898438 l 1
 818.181640625 -109.090820312 l 1
 772.727539062 -109.090820312 l 1
 727.272460938 -109.090820312 l 1
 727.272460938 -63.63671875 l 1
 727.272460938 -18.181640625 l 1
 681.818359375 -18.181640625 l 1
 636.36328125 -18.181640625 l 1
 636.36328125 72.7275390625 l 1
 636.36328125 163.63671875 l 1
 590.909179688 163.63671875 l 1
 545.454101562 163.63671875 l 1
 545.454101562 436.36328125 l 1
 545.454101562 709.090820312 l 1
 272.727539062 709.090820312 l 1
 0 709.090820312 l 1
 0 754.545898438 l 1
EndSplineSet
Validated: 5
EndChar

StartChar: uni5343
Encoding: 21315 21315 39
Width: 1000
VWidth: 0
Flags: H
LayerCount: 2
Fore
SplineSet
454.545898438 754.545898438 m 1
 454.545898438 800 l 1
 590.909179688 800 l 1
 727.272460938 800 l 1
 727.272460938 754.545898438 l 1
 727.272460938 709.090820312 l 1
 636.36328125 709.090820312 l 1
 545.454101562 709.090820312 l 1
 545.454101562 527.272460938 l 1
 545.454101562 345.454101562 l 1
 772.727539062 345.454101562 l 1
 1000 345.454101562 l 1
 1000 300 l 1
 1000 254.545898438 l 1
 772.727539062 254.545898438 l 1
 545.454101562 254.545898438 l 1
 545.454101562 27.2724609375 l 1
 545.454101562 -200 l 1
 500 -200 l 1
 454.545898438 -200 l 1
 454.545898438 27.2724609375 l 1
 454.545898438 254.545898438 l 1
 227.272460938 254.545898438 l 1
 0 254.545898438 l 1
 0 300 l 1
 0 345.454101562 l 1
 227.272460938 345.454101562 l 1
 454.545898438 345.454101562 l 1
 454.545898438 481.818359375 l 1
 454.545898438 618.181640625 l 1
 363.63671875 618.181640625 l 1
 272.727539062 618.181640625 l 1
 272.727539062 572.727539062 l 1
 272.727539062 527.272460938 l 1
 181.818359375 527.272460938 l 1
 90.9091796875 527.272460938 l 1
 90.9091796875 481.818359375 l 1
 90.9091796875 436.36328125 l 1
 45.4541015625 436.36328125 l 1
 0 436.36328125 l 1
 0 481.818359375 l 1
 0 527.272460938 l 1
 45.4541015625 527.272460938 l 1
 90.9091796875 527.272460938 l 1
 90.9091796875 572.727539062 l 1
 90.9091796875 618.181640625 l 1
 181.818359375 618.181640625 l 1
 272.727539062 618.181640625 l 1
 272.727539062 663.63671875 l 1
 272.727539062 709.090820312 l 1
 363.63671875 709.090820312 l 1
 454.545898438 709.090820312 l 1
 454.545898438 754.545898438 l 1
EndSplineSet
Validated: 5
EndChar

StartChar: uni4E60
Encoding: 20064 20064 40
Width: 1000
VWidth: 0
Flags: H
LayerCount: 2
Fore
SplineSet
90.9091796875 754.545898438 m 1
 90.9091796875 800 l 1
 500 800 l 1
 909.090820312 800 l 1
 909.090820312 300 l 1
 909.090820312 -200 l 1
 818.181640625 -200 l 1
 727.272460938 -200 l 1
 727.272460938 -154.545898438 l 1
 727.272460938 -109.090820312 l 1
 681.818359375 -109.090820312 l 1
 636.36328125 -109.090820312 l 1
 636.36328125 -63.63671875 l 1
 636.36328125 -18.181640625 l 1
 681.818359375 -18.181640625 l 1
 727.272460938 -18.181640625 l 1
 727.272460938 -63.63671875 l 1
 727.272460938 -109.090820312 l 1
 772.727539062 -109.090820312 l 1
 818.181640625 -109.090820312 l 1
 818.181640625 300 l 1
 818.181640625 709.090820312 l 1
 454.545898438 709.090820312 l 1
 90.9091796875 709.090820312 l 1
 90.9091796875 754.545898438 l 1
363.63671875 572.727539062 m 1
 363.63671875 618.181640625 l 1
 409.090820312 618.181640625 l 1
 454.545898438 618.181640625 l 1
 454.545898438 572.727539062 l 1
 454.545898438 527.272460938 l 1
 500 527.272460938 l 1
 545.454101562 527.272460938 l 1
 545.454101562 436.36328125 l 1
 545.454101562 345.454101562 l 1
 500 345.454101562 l 1
 454.545898438 345.454101562 l 1
 454.545898438 436.36328125 l 1
 454.545898438 527.272460938 l 1
 409.090820312 527.272460938 l 1
 363.63671875 527.272460938 l 1
 363.63671875 572.727539062 l 1
545.454101562 209.090820312 m 1
 545.454101562 254.545898438 l 1
 590.909179688 254.545898438 l 1
 636.36328125 254.545898438 l 1
 636.36328125 209.090820312 l 1
 636.36328125 163.63671875 l 1
 590.909179688 163.63671875 l 1
 545.454101562 163.63671875 l 1
 545.454101562 118.181640625 l 1
 545.454101562 72.7275390625 l 1
 500 72.7275390625 l 1
 454.545898438 72.7275390625 l 1
 454.545898438 27.2724609375 l 1
 454.545898438 -18.181640625 l 1
 409.090820312 -18.181640625 l 1
 363.63671875 -18.181640625 l 1
 363.63671875 -63.63671875 l 1
 363.63671875 -109.090820312 l 1
 272.727539062 -109.090820312 l 1
 181.818359375 -109.090820312 l 1
 181.818359375 -63.63671875 l 1
 181.818359375 -18.181640625 l 1
 272.727539062 -18.181640625 l 1
 363.63671875 -18.181640625 l 1
 363.63671875 27.2724609375 l 1
 363.63671875 72.7275390625 l 1
 409.090820312 72.7275390625 l 1
 454.545898438 72.7275390625 l 1
 454.545898438 118.181640625 l 1
 454.545898438 163.63671875 l 1
 500 163.63671875 l 1
 545.454101562 163.63671875 l 1
 545.454101562 209.090820312 l 1
EndSplineSet
Validated: 5
EndChar

StartChar: uni571F
Encoding: 22303 22303 41
Width: 1000
VWidth: 0
Flags: H
LayerCount: 2
Fore
SplineSet
454.545898438 572.727539062 m 1
 454.545898438 709.090820312 l 1
 500 709.090820312 l 1
 545.454101562 709.090820312 l 1
 545.454101562 572.727539062 l 1
 545.454101562 436.36328125 l 1
 681.818359375 436.36328125 l 1
 818.181640625 436.36328125 l 1
 818.181640625 390.909179688 l 1
 818.181640625 345.454101562 l 1
 681.818359375 345.454101562 l 1
 545.454101562 345.454101562 l 1
 545.454101562 118.181640625 l 1
 545.454101562 -109.090820312 l 1
 772.727539062 -109.090820312 l 1
 1000 -109.090820312 l 1
 1000 -154.545898438 l 1
 1000 -200 l 1
 500 -200 l 1
 0 -200 l 1
 0 -154.545898438 l 1
 0 -109.090820312 l 1
 227.272460938 -109.090820312 l 1
 454.545898438 -109.090820312 l 1
 454.545898438 118.181640625 l 1
 454.545898438 345.454101562 l 1
 318.181640625 345.454101562 l 1
 181.818359375 345.454101562 l 1
 181.818359375 390.909179688 l 1
 181.818359375 436.36328125 l 1
 318.181640625 436.36328125 l 1
 454.545898438 436.36328125 l 1
 454.545898438 572.727539062 l 1
EndSplineSet
Validated: 1
EndChar

StartChar: uni5E7F
Encoding: 24191 24191 42
Width: 1000
VWidth: 0
Flags: H
LayerCount: 2
Fore
SplineSet
454.545898438 754.545898438 m 1
 454.545898438 800 l 1
 500 800 l 1
 545.454101562 800 l 1
 545.454101562 754.545898438 l 1
 545.454101562 709.090820312 l 1
 772.727539062 709.090820312 l 1
 1000 709.090820312 l 1
 1000 663.63671875 l 1
 1000 618.181640625 l 1
 590.909179688 618.181640625 l 1
 181.818359375 618.181640625 l 1
 181.818359375 300 l 1
 181.818359375 -18.181640625 l 1
 136.36328125 -18.181640625 l 1
 90.9091796875 -18.181640625 l 1
 90.9091796875 -109.090820312 l 1
 90.9091796875 -200 l 1
 45.4541015625 -200 l 1
 0 -200 l 1
 0 -109.090820312 l 1
 0 -18.181640625 l 1
 45.4541015625 -18.181640625 l 1
 90.9091796875 -18.181640625 l 1
 90.9091796875 345.454101562 l 1
 90.9091796875 709.090820312 l 1
 272.727539062 709.090820312 l 1
 454.545898438 709.090820312 l 1
 454.545898438 754.545898438 l 1
EndSplineSet
Validated: 5
EndChar

StartChar: uni529E
Encoding: 21150 21150 43
Width: 1000
VWidth: 0
Flags: H
LayerCount: 2
Fore
SplineSet
272.727539062 709.090820312 m 1
 272.727539062 800 l 1
 318.181640625 800 l 1
 363.63671875 800 l 1
 363.63671875 709.090820312 l 1
 363.63671875 618.181640625 l 1
 545.454101562 618.181640625 l 1
 727.272460938 618.181640625 l 1
 727.272460938 209.090820312 l 1
 727.272460938 -200 l 1
 636.36328125 -200 l 1
 545.454101562 -200 l 1
 545.454101562 -154.545898438 l 1
 545.454101562 -109.090820312 l 1
 500 -109.090820312 l 1
 454.545898438 -109.090820312 l 1
 454.545898438 -18.181640625 l 1
 454.545898438 72.7275390625 l 1
 500 72.7275390625 l 1
 545.454101562 72.7275390625 l 1
 545.454101562 -18.181640625 l 1
 545.454101562 -109.090820312 l 1
 590.909179688 -109.090820312 l 1
 636.36328125 -109.090820312 l 1
 636.36328125 209.090820312 l 1
 636.36328125 527.272460938 l 1
 500 527.272460938 l 1
 363.63671875 527.272460938 l 1
 363.63671875 254.545898438 l 1
 363.63671875 -18.181640625 l 1
 318.181640625 -18.181640625 l 1
 272.727539062 -18.181640625 l 1
 272.727539062 -109.090820312 l 1
 272.727539062 -200 l 1
 227.272460938 -200 l 1
 181.818359375 -200 l 1
 181.818359375 -109.090820312 l 1
 181.818359375 -18.181640625 l 1
 227.272460938 -18.181640625 l 1
 272.727539062 -18.181640625 l 1
 272.727539062 254.545898438 l 1
 272.727539062 527.272460938 l 1
 136.36328125 527.272460938 l 1
 0 527.272460938 l 1
 0 572.727539062 l 1
 0 618.181640625 l 1
 136.36328125 618.181640625 l 1
 272.727539062 618.181640625 l 1
 272.727539062 709.090820312 l 1
90.9091796875 163.63671875 m 1
 90.9091796875 254.545898438 l 1
 136.36328125 254.545898438 l 1
 181.818359375 254.545898438 l 1
 181.818359375 163.63671875 l 1
 181.818359375 72.7275390625 l 1
 136.36328125 72.7275390625 l 1
 90.9091796875 72.7275390625 l 1
 90.9091796875 -18.181640625 l 1
 90.9091796875 -109.090820312 l 1
 45.4541015625 -109.090820312 l 1
 0 -109.090820312 l 1
 0 -18.181640625 l 1
 0 72.7275390625 l 1
 45.4541015625 72.7275390625 l 1
 90.9091796875 72.7275390625 l 1
 90.9091796875 163.63671875 l 1
818.181640625 163.63671875 m 1
 818.181640625 254.545898438 l 1
 863.63671875 254.545898438 l 1
 909.090820312 254.545898438 l 1
 909.090820312 163.63671875 l 1
 909.090820312 72.7275390625 l 1
 954.545898438 72.7275390625 l 1
 1000 72.7275390625 l 1
 1000 -18.181640625 l 1
 1000 -109.090820312 l 1
 954.545898438 -109.090820312 l 1
 909.090820312 -109.090820312 l 1
 909.090820312 -18.181640625 l 1
 909.090820312 72.7275390625 l 1
 863.63671875 72.7275390625 l 1
 818.181640625 72.7275390625 l 1
 818.181640625 163.63671875 l 1
EndSplineSet
EndChar

StartChar: uni4E0D
Encoding: 19981 19981 44
Width: 1000
VWidth: 0
Flags: H
LayerCount: 2
Fore
SplineSet
812.5 768.75 m 1
 812.5 800 l 1
 843.75 800 l 1
 875 800 l 1
 875 768.75 l 1
 875 737.5 l 1
 906.25 737.5 l 1
 937.5 737.5 l 1
 937.5 706.25 l 1
 937.5 675 l 1
 750 675 l 1
 562.5 675 l 1
 562.5 612.5 l 1
 562.5 550 l 1
 531.25 550 l 1
 500 550 l 1
 500 175 l 1
 500 -200 l 1
 468.75 -200 l 1
 437.5 -200 l 1
 437.5 81.25 l 1
 437.5 362.5 l 1
 406.25 362.5 l 1
 375 362.5 l 1
 375 331.25 l 1
 375 300 l 1
 343.75 300 l 1
 312.5 300 l 1
 312.5 268.75 l 1
 312.5 237.5 l 1
 281.25 237.5 l 1
 250 237.5 l 1
 250 206.25 l 1
 250 175 l 1
 218.75 175 l 1
 187.5 175 l 1
 187.5 143.75 l 1
 187.5 112.5 l 1
 156.25 112.5 l 1
 125 112.5 l 1
 125 81.25 l 1
 125 50 l 1
 93.75 50 l 1
 62.5 50 l 1
 62.5 81.25 l 1
 62.5 112.5 l 1
 93.75 112.5 l 1
 125 112.5 l 1
 125 143.75 l 1
 125 175 l 1
 156.25 175 l 1
 187.5 175 l 1
 187.5 206.25 l 1
 187.5 237.5 l 1
 218.75 237.5 l 1
 250 237.5 l 1
 250 268.75 l 1
 250 300 l 1
 281.25 300 l 1
 312.5 300 l 1
 312.5 331.25 l 1
 312.5 362.5 l 1
 343.75 362.5 l 1
 375 362.5 l 1
 375 393.75 l 1
 375 425 l 1
 406.25 425 l 1
 437.5 425 l 1
 437.5 487.5 l 1
 437.5 550 l 1
 468.75 550 l 1
 500 550 l 1
 500 612.5 l 1
 500 675 l 1
 250 675 l 1
 0 675 l 1
 0 706.25 l 1
 0 737.5 l 1
 406.25 737.5 l 1
 812.5 737.5 l 1
 812.5 768.75 l 1
562.5 393.75 m 1
 562.5 425 l 1
 593.75 425 l 1
 625 425 l 1
 625 393.75 l 1
 625 362.5 l 1
 656.25 362.5 l 1
 687.5 362.5 l 1
 687.5 331.25 l 1
 687.5 300 l 1
 750 300 l 1
 812.5 300 l 1
 812.5 268.75 l 1
 812.5 237.5 l 1
 843.75 237.5 l 1
 875 237.5 l 1
 875 175 l 1
 875 112.5 l 1
 843.75 112.5 l 1
 812.5 112.5 l 1
 812.5 143.75 l 1
 812.5 175 l 1
 781.25 175 l 1
 750 175 l 1
 750 206.25 l 1
 750 237.5 l 1
 718.75 237.5 l 1
 687.5 237.5 l 1
 687.5 268.75 l 1
 687.5 300 l 1
 656.25 300 l 1
 625 300 l 1
 625 331.25 l 1
 625 362.5 l 1
 593.75 362.5 l 1
 562.5 362.5 l 1
 562.5 393.75 l 1
EndSplineSet
EndChar

StartChar: uni4E2D
Encoding: 20013 20013 45
Width: 1000
VWidth: 0
Flags: H
LayerCount: 2
Fore
SplineSet
454.545898438 709.090820312 m 1
 454.545898438 800 l 1
 500 800 l 1
 545.454101562 800 l 1
 545.454101562 709.090820312 l 1
 545.454101562 618.181640625 l 1
 772.727539062 618.181640625 l 1
 1000 618.181640625 l 1
 1000 345.454101562 l 1
 1000 72.7275390625 l 1
 772.727539062 72.7275390625 l 1
 545.454101562 72.7275390625 l 1
 545.454101562 -63.63671875 l 1
 545.454101562 -200 l 1
 500 -200 l 1
 454.545898438 -200 l 1
 454.545898438 -63.63671875 l 1
 454.545898438 72.7275390625 l 1
 227.272460938 72.7275390625 l 1
 0 72.7275390625 l 1
 0 345.454101562 l 1
 0 618.181640625 l 1
 227.272460938 618.181640625 l 1
 454.545898438 618.181640625 l 1
 454.545898438 709.090820312 l 1
454.545898438 345.454101562 m 1
 454.545898438 527.272460938 l 1
 272.727539062 527.272460938 l 1
 90.9091796875 527.272460938 l 1
 90.9091796875 345.454101562 l 1
 90.9091796875 163.63671875 l 1
 272.727539062 163.63671875 l 1
 454.545898438 163.63671875 l 1
 454.545898438 345.454101562 l 1
909.090820312 345.454101562 m 1
 909.090820312 527.272460938 l 1
 727.272460938 527.272460938 l 1
 545.454101562 527.272460938 l 1
 545.454101562 345.454101562 l 1
 545.454101562 163.63671875 l 1
 727.272460938 163.63671875 l 1
 909.090820312 163.63671875 l 1
 909.090820312 345.454101562 l 1
EndSplineSet
EndChar

StartChar: uni4E3A
Encoding: 20026 20026 46
Width: 1000
VWidth: 0
Flags: H
LayerCount: 2
Fore
SplineSet
0 754.545898438 m 1
 0 800 l 1
 45.4541015625 800 l 1
 90.9091796875 800 l 1
 90.9091796875 754.545898438 l 1
 90.9091796875 709.090820312 l 1
 136.36328125 709.090820312 l 1
 181.818359375 709.090820312 l 1
 181.818359375 663.63671875 l 1
 181.818359375 618.181640625 l 1
 136.36328125 618.181640625 l 1
 90.9091796875 618.181640625 l 1
 90.9091796875 663.63671875 l 1
 90.9091796875 709.090820312 l 1
 45.4541015625 709.090820312 l 1
 0 709.090820312 l 1
 0 754.545898438 l 1
272.727539062 663.63671875 m 1
 272.727539062 800 l 1
 318.181640625 800 l 1
 363.63671875 800 l 1
 363.63671875 663.63671875 l 1
 363.63671875 527.272460938 l 1
 681.818359375 527.272460938 l 1
 1000 527.272460938 l 1
 1000 163.63671875 l 1
 1000 -200 l 1
 863.63671875 -200 l 1
 727.272460938 -200 l 1
 727.272460938 -109.090820312 l 1
 727.272460938 -18.181640625 l 1
 772.727539062 -18.181640625 l 1
 818.181640625 -18.181640625 l 1
 818.181640625 -63.63671875 l 1
 818.181640625 -109.090820312 l 1
 863.63671875 -109.090820312 l 1
 909.090820312 -109.090820312 l 1
 909.090820312 163.63671875 l 1
 909.090820312 436.36328125 l 1
 590.909179688 436.36328125 l 1
 272.727539062 436.36328125 l 1
 272.727539062 254.545898438 l 1
 272.727539062 72.7275390625 l 1
 227.272460938 72.7275390625 l 1
 181.818359375 72.7275390625 l 1
 181.818359375 -18.181640625 l 1
 181.818359375 -109.090820312 l 1
 136.36328125 -109.090820312 l 1
 90.9091796875 -109.090820312 l 1
 90.9091796875 -154.545898438 l 1
 90.9091796875 -200 l 1
 45.4541015625 -200 l 1
 0 -200 l 1
 0 -154.545898438 l 1
 0 -109.090820312 l 1
 45.4541015625 -109.090820312 l 1
 90.9091796875 -109.090820312 l 1
 90.9091796875 -18.181640625 l 1
 90.9091796875 72.7275390625 l 1
 136.36328125 72.7275390625 l 1
 181.818359375 72.7275390625 l 1
 181.818359375 254.545898438 l 1
 181.818359375 436.36328125 l 1
 90.9091796875 436.36328125 l 1
 0 436.36328125 l 1
 0 481.818359375 l 1
 0 527.272460938 l 1
 136.36328125 527.272460938 l 1
 272.727539062 527.272460938 l 1
 272.727539062 663.63671875 l 1
454.545898438 254.545898438 m 1
 454.545898438 345.454101562 l 1
 500 345.454101562 l 1
 545.454101562 345.454101562 l 1
 545.454101562 254.545898438 l 1
 545.454101562 163.63671875 l 1
 590.909179688 163.63671875 l 1
 636.36328125 163.63671875 l 1
 636.36328125 72.7275390625 l 1
 636.36328125 -18.181640625 l 1
 590.909179688 -18.181640625 l 1
 545.454101562 -18.181640625 l 1
 545.454101562 72.7275390625 l 1
 545.454101562 163.63671875 l 1
 500 163.63671875 l 1
 454.545898438 163.63671875 l 1
 454.545898438 254.545898438 l 1
EndSplineSet
EndChar

StartChar: uni4EE5
Encoding: 20197 20197 47
Width: 1000
VWidth: 0
Flags: H
LayerCount: 2
Fore
SplineSet
0 390.909179688 m 1
 0 800 l 1
 45.4541015625 800 l 1
 90.9091796875 800 l 1
 90.9091796875 436.36328125 l 1
 90.9091796875 72.7275390625 l 1
 136.36328125 72.7275390625 l 1
 181.818359375 72.7275390625 l 1
 181.818359375 118.181640625 l 1
 181.818359375 163.63671875 l 1
 227.272460938 163.63671875 l 1
 272.727539062 163.63671875 l 1
 272.727539062 118.181640625 l 1
 272.727539062 72.7275390625 l 1
 227.272460938 72.7275390625 l 1
 181.818359375 72.7275390625 l 1
 181.818359375 27.2724609375 l 1
 181.818359375 -18.181640625 l 1
 90.9091796875 -18.181640625 l 1
 0 -18.181640625 l 1
 0 390.909179688 l 1
545.454101562 572.727539062 m 1
 545.454101562 800 l 1
 590.909179688 800 l 1
 636.36328125 800 l 1
 636.36328125 572.727539062 l 1
 636.36328125 345.454101562 l 1
 681.818359375 345.454101562 l 1
 727.272460938 345.454101562 l 1
 727.272460938 209.090820312 l 1
 727.272460938 72.7275390625 l 1
 772.727539062 72.7275390625 l 1
 818.181640625 72.7275390625 l 1
 818.181640625 27.2724609375 l 1
 818.181640625 -18.181640625 l 1
 863.63671875 -18.181640625 l 1
 909.090820312 -18.181640625 l 1
 909.090820312 -63.63671875 l 1
 909.090820312 -109.090820312 l 1
 954.545898438 -109.090820312 l 1
 1000 -109.090820312 l 1
 1000 -154.545898438 l 1
 1000 -200 l 1
 954.545898438 -200 l 1
 909.090820312 -200 l 1
 909.090820312 -154.545898438 l 1
 909.090820312 -109.090820312 l 1
 863.63671875 -109.090820312 l 1
 818.181640625 -109.090820312 l 1
 818.181640625 -63.63671875 l 1
 818.181640625 -18.181640625 l 1
 772.727539062 -18.181640625 l 1
 727.272460938 -18.181640625 l 1
 727.272460938 27.2724609375 l 1
 727.272460938 72.7275390625 l 1
 681.818359375 72.7275390625 l 1
 636.36328125 72.7275390625 l 1
 636.36328125 209.090820312 l 1
 636.36328125 345.454101562 l 1
 590.909179688 345.454101562 l 1
 545.454101562 345.454101562 l 1
 545.454101562 209.090820312 l 1
 545.454101562 72.7275390625 l 1
 500 72.7275390625 l 1
 454.545898438 72.7275390625 l 1
 454.545898438 27.2724609375 l 1
 454.545898438 -18.181640625 l 1
 409.090820312 -18.181640625 l 1
 363.63671875 -18.181640625 l 1
 363.63671875 -63.63671875 l 1
 363.63671875 -109.090820312 l 1
 318.181640625 -109.090820312 l 1
 272.727539062 -109.090820312 l 1
 272.727539062 -154.545898438 l 1
 272.727539062 -200 l 1
 181.818359375 -200 l 1
 90.9091796875 -200 l 1
 90.9091796875 -154.545898438 l 1
 90.9091796875 -109.090820312 l 1
 181.818359375 -109.090820312 l 1
 272.727539062 -109.090820312 l 1
 272.727539062 -63.63671875 l 1
 272.727539062 -18.181640625 l 1
 318.181640625 -18.181640625 l 1
 363.63671875 -18.181640625 l 1
 363.63671875 27.2724609375 l 1
 363.63671875 72.7275390625 l 1
 409.090820312 72.7275390625 l 1
 454.545898438 72.7275390625 l 1
 454.545898438 209.090820312 l 1
 454.545898438 345.454101562 l 1
 500 345.454101562 l 1
 545.454101562 345.454101562 l 1
 545.454101562 572.727539062 l 1
181.818359375 527.272460938 m 1
 181.818359375 618.181640625 l 1
 227.272460938 618.181640625 l 1
 272.727539062 618.181640625 l 1
 272.727539062 527.272460938 l 1
 272.727539062 436.36328125 l 1
 318.181640625 436.36328125 l 1
 363.63671875 436.36328125 l 1
 363.63671875 345.454101562 l 1
 363.63671875 254.545898438 l 1
 318.181640625 254.545898438 l 1
 272.727539062 254.545898438 l 1
 272.727539062 345.454101562 l 1
 272.727539062 436.36328125 l 1
 227.272460938 436.36328125 l 1
 181.818359375 436.36328125 l 1
 181.818359375 527.272460938 l 1
EndSplineSet
EndChar

StartChar: uni5FC3
Encoding: 24515 24515 48
Width: 1000
VWidth: 0
Flags: H
LayerCount: 2
Fore
SplineSet
181.818359375 209.090820312 m 1
 181.818359375 527.272460938 l 1
 227.272460938 527.272460938 l 1
 272.727539062 527.272460938 l 1
 272.727539062 209.090820312 l 1
 272.727539062 -109.090820312 l 1
 545.454101562 -109.090820312 l 1
 818.181640625 -109.090820312 l 1
 818.181640625 -18.181640625 l 1
 818.181640625 72.7275390625 l 1
 863.63671875 72.7275390625 l 1
 909.090820312 72.7275390625 l 1
 909.090820312 -18.181640625 l 1
 909.090820312 -109.090820312 l 1
 863.63671875 -109.090820312 l 1
 818.181640625 -109.090820312 l 1
 818.181640625 -154.545898438 l 1
 818.181640625 -200 l 1
 545.454101562 -200 l 1
 272.727539062 -200 l 1
 272.727539062 -154.545898438 l 1
 272.727539062 -109.090820312 l 1
 227.272460938 -109.090820312 l 1
 181.818359375 -109.090820312 l 1
 181.818359375 209.090820312 l 1
818.181640625 390.909179688 m 1
 818.181640625 436.36328125 l 1
 863.63671875 436.36328125 l 1
 909.090820312 436.36328125 l 1
 909.090820312 390.909179688 l 1
 909.090820312 345.454101562 l 1
 954.545898438 345.454101562 l 1
 1000 345.454101562 l 1
 1000 254.545898438 l 1
 1000 163.63671875 l 1
 954.545898438 163.63671875 l 1
 909.090820312 163.63671875 l 1
 909.090820312 254.545898438 l 1
 909.090820312 345.454101562 l 1
 863.63671875 345.454101562 l 1
 818.181640625 345.454101562 l 1
 818.181640625 390.909179688 l 1
0 209.090820312 m 1
 0 345.454101562 l 1
 45.4541015625 345.454101562 l 1
 90.9091796875 345.454101562 l 1
 90.9091796875 209.090820312 l 1
 90.9091796875 72.7275390625 l 1
 45.4541015625 72.7275390625 l 1
 0 72.7275390625 l 1
 0 209.090820312 l 1
454.545898438 254.545898438 m 1
 454.545898438 345.454101562 l 1
 500 345.454101562 l 1
 545.454101562 345.454101562 l 1
 545.454101562 254.545898438 l 1
 545.454101562 163.63671875 l 1
 590.909179688 163.63671875 l 1
 636.36328125 163.63671875 l 1
 636.36328125 72.7275390625 l 1
 636.36328125 -18.181640625 l 1
 590.909179688 -18.181640625 l 1
 545.454101562 -18.181640625 l 1
 545.454101562 72.7275390625 l 1
 545.454101562 163.63671875 l 1
 500 163.63671875 l 1
 454.545898438 163.63671875 l 1
 454.545898438 254.545898438 l 1
EndSplineSet
EndChar

StartChar: uni5929
Encoding: 22825 22825 49
Width: 1000
VWidth: 0
Flags: H
LayerCount: 2
Fore
SplineSet
90.9091796875 754.545898438 m 1
 90.9091796875 800 l 1
 500 800 l 1
 909.090820312 800 l 1
 909.090820312 754.545898438 l 1
 909.090820312 709.090820312 l 1
 727.272460938 709.090820312 l 1
 545.454101562 709.090820312 l 1
 545.454101562 572.727539062 l 1
 545.454101562 436.36328125 l 1
 772.727539062 436.36328125 l 1
 1000 436.36328125 l 1
 1000 390.909179688 l 1
 1000 345.454101562 l 1
 772.727539062 345.454101562 l 1
 545.454101562 345.454101562 l 1
 545.454101562 254.545898438 l 1
 545.454101562 163.63671875 l 1
 590.909179688 163.63671875 l 1
 636.36328125 163.63671875 l 1
 636.36328125 118.181640625 l 1
 636.36328125 72.7275390625 l 1
 681.818359375 72.7275390625 l 1
 727.272460938 72.7275390625 l 1
 727.272460938 27.2724609375 l 1
 727.272460938 -18.181640625 l 1
 772.727539062 -18.181640625 l 1
 818.181640625 -18.181640625 l 1
 818.181640625 -63.63671875 l 1
 818.181640625 -109.090820312 l 1
 909.090820312 -109.090820312 l 1
 1000 -109.090820312 l 1
 1000 -154.545898438 l 1
 1000 -200 l 1
 909.090820312 -200 l 1
 818.181640625 -200 l 1
 818.181640625 -154.545898438 l 1
 818.181640625 -109.090820312 l 1
 772.727539062 -109.090820312 l 1
 727.272460938 -109.090820312 l 1
 727.272460938 -63.63671875 l 1
 727.272460938 -18.181640625 l 1
 681.818359375 -18.181640625 l 1
 636.36328125 -18.181640625 l 1
 636.36328125 27.2724609375 l 1
 636.36328125 72.7275390625 l 1
 590.909179688 72.7275390625 l 1
 545.454101562 72.7275390625 l 1
 545.454101562 118.181640625 l 1
 545.454101562 163.63671875 l 1
 500 163.63671875 l 1
 454.545898438 163.63671875 l 1
 454.545898438 118.181640625 l 1
 454.545898438 72.7275390625 l 1
 409.090820312 72.7275390625 l 1
 363.63671875 72.7275390625 l 1
 363.63671875 27.2724609375 l 1
 363.63671875 -18.181640625 l 1
 318.181640625 -18.181640625 l 1
 272.727539062 -18.181640625 l 1
 272.727539062 -63.63671875 l 1
 272.727539062 -109.090820312 l 1
 227.272460938 -109.090820312 l 1
 181.818359375 -109.090820312 l 1
 181.818359375 -154.545898438 l 1
 181.818359375 -200 l 1
 90.9091796875 -200 l 1
 0 -200 l 1
 0 -154.545898438 l 1
 0 -109.090820312 l 1
 90.9091796875 -109.090820312 l 1
 181.818359375 -109.090820312 l 1
 181.818359375 -63.63671875 l 1
 181.818359375 -18.181640625 l 1
 227.272460938 -18.181640625 l 1
 272.727539062 -18.181640625 l 1
 272.727539062 27.2724609375 l 1
 272.727539062 72.7275390625 l 1
 318.181640625 72.7275390625 l 1
 363.63671875 72.7275390625 l 1
 363.63671875 118.181640625 l 1
 363.63671875 163.63671875 l 1
 409.090820312 163.63671875 l 1
 454.545898438 163.63671875 l 1
 454.545898438 254.545898438 l 1
 454.545898438 345.454101562 l 1
 227.272460938 345.454101562 l 1
 0 345.454101562 l 1
 0 390.909179688 l 1
 0 436.36328125 l 1
 227.272460938 436.36328125 l 1
 454.545898438 436.36328125 l 1
 454.545898438 572.727539062 l 1
 454.545898438 709.090820312 l 1
 272.727539062 709.090820312 l 1
 90.9091796875 709.090820312 l 1
 90.9091796875 754.545898438 l 1
EndSplineSet
EndChar

StartChar: uni89C1
Encoding: 35265 35265 50
Width: 1000
VWidth: 0
Flags: H
LayerCount: 2
Fore
SplineSet
90.9091796875 481.818359375 m 1
 90.9091796875 800 l 1
 500 800 l 1
 909.090820312 800 l 1
 909.090820312 481.818359375 l 1
 909.090820312 163.63671875 l 1
 863.63671875 163.63671875 l 1
 818.181640625 163.63671875 l 1
 818.181640625 436.36328125 l 1
 818.181640625 709.090820312 l 1
 500 709.090820312 l 1
 181.818359375 709.090820312 l 1
 181.818359375 436.36328125 l 1
 181.818359375 163.63671875 l 1
 136.36328125 163.63671875 l 1
 90.9091796875 163.63671875 l 1
 90.9091796875 481.818359375 l 1
454.545898438 390.909179688 m 1
 454.545898438 618.181640625 l 1
 500 618.181640625 l 1
 545.454101562 618.181640625 l 1
 545.454101562 390.909179688 l 1
 545.454101562 163.63671875 l 1
 590.909179688 163.63671875 l 1
 636.36328125 163.63671875 l 1
 636.36328125 27.2724609375 l 1
 636.36328125 -109.090820312 l 1
 772.727539062 -109.090820312 l 1
 909.090820312 -109.090820312 l 1
 909.090820312 -63.63671875 l 1
 909.090820312 -18.181640625 l 1
 954.545898438 -18.181640625 l 1
 1000 -18.181640625 l 1
 1000 -109.090820312 l 1
 1000 -200 l 1
 772.727539062 -200 l 1
 545.454101562 -200 l 1
 545.454101562 -18.181640625 l 1
 545.454101562 163.63671875 l 1
 500 163.63671875 l 1
 454.545898438 163.63671875 l 1
 454.545898438 72.7275390625 l 1
 454.545898438 -18.181640625 l 1
 409.090820312 -18.181640625 l 1
 363.63671875 -18.181640625 l 1
 363.63671875 -63.63671875 l 1
 363.63671875 -109.090820312 l 1
 318.181640625 -109.090820312 l 1
 272.727539062 -109.090820312 l 1
 272.727539062 -154.545898438 l 1
 272.727539062 -200 l 1
 181.818359375 -200 l 1
 90.9091796875 -200 l 1
 90.9091796875 -154.545898438 l 1
 90.9091796875 -109.090820312 l 1
 181.818359375 -109.090820312 l 1
 272.727539062 -109.090820312 l 1
 272.727539062 -63.63671875 l 1
 272.727539062 -18.181640625 l 1
 318.181640625 -18.181640625 l 1
 363.63671875 -18.181640625 l 1
 363.63671875 72.7275390625 l 1
 363.63671875 163.63671875 l 1
 409.090820312 163.63671875 l 1
 454.545898438 163.63671875 l 1
 454.545898438 390.909179688 l 1
EndSplineSet
EndChar

StartChar: uni65B9
Encoding: 26041 26041 51
Width: 1000
VWidth: 0
Flags: H
LayerCount: 2
Fore
SplineSet
363.63671875 754.545898438 m 1
 363.63671875 800 l 1
 500 800 l 1
 636.36328125 800 l 1
 636.36328125 754.545898438 l 1
 636.36328125 709.090820312 l 1
 500 709.090820312 l 1
 363.63671875 709.090820312 l 1
 363.63671875 754.545898438 l 1
0 572.727539062 m 1
 0 618.181640625 l 1
 500 618.181640625 l 1
 1000 618.181640625 l 1
 1000 572.727539062 l 1
 1000 527.272460938 l 1
 727.272460938 527.272460938 l 1
 454.545898438 527.272460938 l 1
 454.545898438 436.36328125 l 1
 454.545898438 345.454101562 l 1
 681.818359375 345.454101562 l 1
 909.090820312 345.454101562 l 1
 909.090820312 300 l 1
 909.090820312 254.545898438 l 1
 954.545898438 254.545898438 l 1
 1000 254.545898438 l 1
 1000 27.2724609375 l 1
 1000 -200 l 1
 863.63671875 -200 l 1
 727.272460938 -200 l 1
 727.272460938 -109.090820312 l 1
 727.272460938 -18.181640625 l 1
 772.727539062 -18.181640625 l 1
 818.181640625 -18.181640625 l 1
 818.181640625 -63.63671875 l 1
 818.181640625 -109.090820312 l 1
 863.63671875 -109.090820312 l 1
 909.090820312 -109.090820312 l 1
 909.090820312 72.7275390625 l 1
 909.090820312 254.545898438 l 1
 636.36328125 254.545898438 l 1
 363.63671875 254.545898438 l 1
 363.63671875 163.63671875 l 1
 363.63671875 72.7275390625 l 1
 318.181640625 72.7275390625 l 1
 272.727539062 72.7275390625 l 1
 272.727539062 27.2724609375 l 1
 272.727539062 -18.181640625 l 1
 227.272460938 -18.181640625 l 1
 181.818359375 -18.181640625 l 1
 181.818359375 -63.63671875 l 1
 181.818359375 -109.090820312 l 1
 136.36328125 -109.090820312 l 1
 90.9091796875 -109.090820312 l 1
 90.9091796875 -154.545898438 l 1
 90.9091796875 -200 l 1
 45.4541015625 -200 l 1
 0 -200 l 1
 0 -154.545898438 l 1
 0 -109.090820312 l 1
 45.4541015625 -109.090820312 l 1
 90.9091796875 -109.090820312 l 1
 90.9091796875 -63.63671875 l 1
 90.9091796875 -18.181640625 l 1
 136.36328125 -18.181640625 l 1
 181.818359375 -18.181640625 l 1
 181.818359375 27.2724609375 l 1
 181.818359375 72.7275390625 l 1
 227.272460938 72.7275390625 l 1
 272.727539062 72.7275390625 l 1
 272.727539062 163.63671875 l 1
 272.727539062 254.545898438 l 1
 318.181640625 254.545898438 l 1
 363.63671875 254.545898438 l 1
 363.63671875 390.909179688 l 1
 363.63671875 527.272460938 l 1
 181.818359375 527.272460938 l 1
 0 527.272460938 l 1
 0 572.727539062 l 1
EndSplineSet
EndChar

StartChar: uni65E0
Encoding: 26080 26080 52
Width: 1000
VWidth: 0
Flags: H
LayerCount: 2
Fore
SplineSet
90.9091796875 754.545898438 m 1
 90.9091796875 800 l 1
 500 800 l 1
 909.090820312 800 l 1
 909.090820312 754.545898438 l 1
 909.090820312 709.090820312 l 1
 727.272460938 709.090820312 l 1
 545.454101562 709.090820312 l 1
 545.454101562 572.727539062 l 1
 545.454101562 436.36328125 l 1
 772.727539062 436.36328125 l 1
 1000 436.36328125 l 1
 1000 390.909179688 l 1
 1000 345.454101562 l 1
 772.727539062 345.454101562 l 1
 545.454101562 345.454101562 l 1
 545.454101562 300 l 1
 545.454101562 254.545898438 l 1
 590.909179688 254.545898438 l 1
 636.36328125 254.545898438 l 1
 636.36328125 72.7275390625 l 1
 636.36328125 -109.090820312 l 1
 772.727539062 -109.090820312 l 1
 909.090820312 -109.090820312 l 1
 909.090820312 -18.181640625 l 1
 909.090820312 72.7275390625 l 1
 954.545898438 72.7275390625 l 1
 1000 72.7275390625 l 1
 1000 -63.63671875 l 1
 1000 -200 l 1
 772.727539062 -200 l 1
 545.454101562 -200 l 1
 545.454101562 27.2724609375 l 1
 545.454101562 254.545898438 l 1
 500 254.545898438 l 1
 454.545898438 254.545898438 l 1
 454.545898438 163.63671875 l 1
 454.545898438 72.7275390625 l 1
 409.090820312 72.7275390625 l 1
 363.63671875 72.7275390625 l 1
 363.63671875 27.2724609375 l 1
 363.63671875 -18.181640625 l 1
 318.181640625 -18.181640625 l 1
 272.727539062 -18.181640625 l 1
 272.727539062 -63.63671875 l 1
 272.727539062 -109.090820312 l 1
 227.272460938 -109.090820312 l 1
 181.818359375 -109.090820312 l 1
 181.818359375 -154.545898438 l 1
 181.818359375 -200 l 1
 90.9091796875 -200 l 1
 0 -200 l 1
 0 -154.545898438 l 1
 0 -109.090820312 l 1
 90.9091796875 -109.090820312 l 1
 181.818359375 -109.090820312 l 1
 181.818359375 -63.63671875 l 1
 181.818359375 -18.181640625 l 1
 227.272460938 -18.181640625 l 1
 272.727539062 -18.181640625 l 1
 272.727539062 27.2724609375 l 1
 272.727539062 72.7275390625 l 1
 318.181640625 72.7275390625 l 1
 363.63671875 72.7275390625 l 1
 363.63671875 163.63671875 l 1
 363.63671875 254.545898438 l 1
 409.090820312 254.545898438 l 1
 454.545898438 254.545898438 l 1
 454.545898438 300 l 1
 454.545898438 345.454101562 l 1
 227.272460938 345.454101562 l 1
 0 345.454101562 l 1
 0 390.909179688 l 1
 0 436.36328125 l 1
 227.272460938 436.36328125 l 1
 454.545898438 436.36328125 l 1
 454.545898438 572.727539062 l 1
 454.545898438 709.090820312 l 1
 272.727539062 709.090820312 l 1
 90.9091796875 709.090820312 l 1
 90.9091796875 754.545898438 l 1
EndSplineSet
EndChar

StartChar: uni624B
Encoding: 25163 25163 53
Width: 1000
VWidth: 0
Flags: H
LayerCount: 2
Fore
SplineSet
454.545898438 754.545898438 m 1
 454.545898438 800 l 1
 590.909179688 800 l 1
 727.272460938 800 l 1
 727.272460938 754.545898438 l 1
 727.272460938 709.090820312 l 1
 636.36328125 709.090820312 l 1
 545.454101562 709.090820312 l 1
 545.454101562 618.181640625 l 1
 545.454101562 527.272460938 l 1
 727.272460938 527.272460938 l 1
 909.090820312 527.272460938 l 1
 909.090820312 481.818359375 l 1
 909.090820312 436.36328125 l 1
 727.272460938 436.36328125 l 1
 545.454101562 436.36328125 l 1
 545.454101562 345.454101562 l 1
 545.454101562 254.545898438 l 1
 772.727539062 254.545898438 l 1
 1000 254.545898438 l 1
 1000 209.090820312 l 1
 1000 163.63671875 l 1
 772.727539062 163.63671875 l 1
 545.454101562 163.63671875 l 1
 545.454101562 -18.181640625 l 1
 545.454101562 -200 l 1
 409.090820312 -200 l 1
 272.727539062 -200 l 1
 272.727539062 -109.090820312 l 1
 272.727539062 -18.181640625 l 1
 318.181640625 -18.181640625 l 1
 363.63671875 -18.181640625 l 1
 363.63671875 -63.63671875 l 1
 363.63671875 -109.090820312 l 1
 409.090820312 -109.090820312 l 1
 454.545898438 -109.090820312 l 1
 454.545898438 27.2724609375 l 1
 454.545898438 163.63671875 l 1
 227.272460938 163.63671875 l 1
 0 163.63671875 l 1
 0 209.090820312 l 1
 0 254.545898438 l 1
 227.272460938 254.545898438 l 1
 454.545898438 254.545898438 l 1
 454.545898438 345.454101562 l 1
 454.545898438 436.36328125 l 1
 272.727539062 436.36328125 l 1
 90.9091796875 436.36328125 l 1
 90.9091796875 481.818359375 l 1
 90.9091796875 527.272460938 l 1
 272.727539062 527.272460938 l 1
 454.545898438 527.272460938 l 1
 454.545898438 572.727539062 l 1
 454.545898438 618.181640625 l 1
 318.181640625 618.181640625 l 1
 181.818359375 618.181640625 l 1
 181.818359375 663.63671875 l 1
 181.818359375 709.090820312 l 1
 318.181640625 709.090820312 l 1
 454.545898438 709.090820312 l 1
 454.545898438 754.545898438 l 1
EndSplineSet
EndChar

StartChar: uni5F00
Encoding: 24320 24320 54
Width: 1000
VWidth: 0
Flags: H
LayerCount: 2
Fore
SplineSet
90.9091796875 754.545898438 m 1
 90.9091796875 800 l 1
 500 800 l 1
 909.090820312 800 l 1
 909.090820312 754.545898438 l 1
 909.090820312 709.090820312 l 1
 818.181640625 709.090820312 l 1
 727.272460938 709.090820312 l 1
 727.272460938 527.272460938 l 1
 727.272460938 345.454101562 l 1
 863.63671875 345.454101562 l 1
 1000 345.454101562 l 1
 1000 300 l 1
 1000 254.545898438 l 1
 863.63671875 254.545898438 l 1
 727.272460938 254.545898438 l 1
 727.272460938 27.2724609375 l 1
 727.272460938 -200 l 1
 681.818359375 -200 l 1
 636.36328125 -200 l 1
 636.36328125 27.2724609375 l 1
 636.36328125 254.545898438 l 1
 500 254.545898438 l 1
 363.63671875 254.545898438 l 1
 363.63671875 163.63671875 l 1
 363.63671875 72.7275390625 l 1
 318.181640625 72.7275390625 l 1
 272.727539062 72.7275390625 l 1
 272.727539062 -18.181640625 l 1
 272.727539062 -109.090820312 l 1
 227.272460938 -109.090820312 l 1
 181.818359375 -109.090820312 l 1
 181.818359375 -154.545898438 l 1
 181.818359375 -200 l 1
 136.36328125 -200 l 1
 90.9091796875 -200 l 1
 90.9091796875 -154.545898438 l 1
 90.9091796875 -109.090820312 l 1
 136.36328125 -109.090820312 l 1
 181.818359375 -109.090820312 l 1
 181.818359375 -18.181640625 l 1
 181.818359375 72.7275390625 l 1
 227.272460938 72.7275390625 l 1
 272.727539062 72.7275390625 l 1
 272.727539062 163.63671875 l 1
 272.727539062 254.545898438 l 1
 136.36328125 254.545898438 l 1
 0 254.545898438 l 1
 0 300 l 1
 0 345.454101562 l 1
 136.36328125 345.454101562 l 1
 272.727539062 345.454101562 l 1
 272.727539062 527.272460938 l 1
 272.727539062 709.090820312 l 1
 181.818359375 709.090820312 l 1
 90.9091796875 709.090820312 l 1
 90.9091796875 754.545898438 l 1
636.36328125 527.272460938 m 1
 636.36328125 709.090820312 l 1
 500 709.090820312 l 1
 363.63671875 709.090820312 l 1
 363.63671875 527.272460938 l 1
 363.63671875 345.454101562 l 1
 500 345.454101562 l 1
 636.36328125 345.454101562 l 1
 636.36328125 527.272460938 l 1
EndSplineSet
EndChar

StartChar: uni5206
Encoding: 20998 20998 55
Width: 1000
VWidth: 0
Flags: H
LayerCount: 2
Fore
SplineSet
181.818359375 709.090820312 m 1
 181.818359375 800 l 1
 227.272460938 800 l 1
 272.727539062 800 l 1
 272.727539062 709.090820312 l 1
 272.727539062 618.181640625 l 1
 227.272460938 618.181640625 l 1
 181.818359375 618.181640625 l 1
 181.818359375 572.727539062 l 1
 181.818359375 527.272460938 l 1
 136.36328125 527.272460938 l 1
 90.9091796875 527.272460938 l 1
 90.9091796875 481.818359375 l 1
 90.9091796875 436.36328125 l 1
 500 436.36328125 l 1
 909.090820312 436.36328125 l 1
 909.090820312 481.818359375 l 1
 909.090820312 527.272460938 l 1
 863.63671875 527.272460938 l 1
 818.181640625 527.272460938 l 1
 818.181640625 572.727539062 l 1
 818.181640625 618.181640625 l 1
 772.727539062 618.181640625 l 1
 727.272460938 618.181640625 l 1
 727.272460938 709.090820312 l 1
 727.272460938 800 l 1
 772.727539062 800 l 1
 818.181640625 800 l 1
 818.181640625 709.090820312 l 1
 818.181640625 618.181640625 l 1
 863.63671875 618.181640625 l 1
 909.090820312 618.181640625 l 1
 909.090820312 572.727539062 l 1
 909.090820312 527.272460938 l 1
 954.545898438 527.272460938 l 1
 1000 527.272460938 l 1
 1000 481.818359375 l 1
 1000 436.36328125 l 1
 954.545898438 436.36328125 l 1
 909.090820312 436.36328125 l 1
 909.090820312 118.181640625 l 1
 909.090820312 -200 l 1
 818.181640625 -200 l 1
 727.272460938 -200 l 1
 727.272460938 -154.545898438 l 1
 727.272460938 -109.090820312 l 1
 681.818359375 -109.090820312 l 1
 636.36328125 -109.090820312 l 1
 636.36328125 -63.63671875 l 1
 636.36328125 -18.181640625 l 1
 681.818359375 -18.181640625 l 1
 727.272460938 -18.181640625 l 1
 727.272460938 -63.63671875 l 1
 727.272460938 -109.090820312 l 1
 772.727539062 -109.090820312 l 1
 818.181640625 -109.090820312 l 1
 818.181640625 118.181640625 l 1
 818.181640625 345.454101562 l 1
 590.909179688 345.454101562 l 1
 363.63671875 345.454101562 l 1
 363.63671875 163.63671875 l 1
 363.63671875 -18.181640625 l 1
 318.181640625 -18.181640625 l 1
 272.727539062 -18.181640625 l 1
 272.727539062 -63.63671875 l 1
 272.727539062 -109.090820312 l 1
 227.272460938 -109.090820312 l 1
 181.818359375 -109.090820312 l 1
 181.818359375 -154.545898438 l 1
 181.818359375 -200 l 1
 136.36328125 -200 l 1
 90.9091796875 -200 l 1
 90.9091796875 -154.545898438 l 1
 90.9091796875 -109.090820312 l 1
 136.36328125 -109.090820312 l 1
 181.818359375 -109.090820312 l 1
 181.818359375 -63.63671875 l 1
 181.818359375 -18.181640625 l 1
 227.272460938 -18.181640625 l 1
 272.727539062 -18.181640625 l 1
 272.727539062 163.63671875 l 1
 272.727539062 345.454101562 l 1
 181.818359375 345.454101562 l 1
 90.9091796875 345.454101562 l 1
 90.9091796875 390.909179688 l 1
 90.9091796875 436.36328125 l 1
 45.4541015625 436.36328125 l 1
 0 436.36328125 l 1
 0 481.818359375 l 1
 0 527.272460938 l 1
 45.4541015625 527.272460938 l 1
 90.9091796875 527.272460938 l 1
 90.9091796875 572.727539062 l 1
 90.9091796875 618.181640625 l 1
 136.36328125 618.181640625 l 1
 181.818359375 618.181640625 l 1
 181.818359375 709.090820312 l 1
EndSplineSet
EndChar

StartChar: uni65E5
Encoding: 26085 26085 56
Width: 1000
VWidth: 0
Flags: H
LayerCount: 2
Fore
SplineSet
90.9091796875 254.545898438 m 1
 90.9091796875 709.090820312 l 1
 500 709.090820312 l 1
 909.090820312 709.090820312 l 1
 909.090820312 254.545898438 l 1
 909.090820312 -200 l 1
 500 -200 l 1
 90.9091796875 -200 l 1
 90.9091796875 254.545898438 l 1
818.181640625 481.818359375 m 1
 818.181640625 618.181640625 l 1
 500 618.181640625 l 1
 181.818359375 618.181640625 l 1
 181.818359375 481.818359375 l 1
 181.818359375 345.454101562 l 1
 500 345.454101562 l 1
 818.181640625 345.454101562 l 1
 818.181640625 481.818359375 l 1
818.181640625 72.7275390625 m 1
 818.181640625 254.545898438 l 1
 500 254.545898438 l 1
 181.818359375 254.545898438 l 1
 181.818359375 72.7275390625 l 1
 181.818359375 -109.090820312 l 1
 500 -109.090820312 l 1
 818.181640625 -109.090820312 l 1
 818.181640625 72.7275390625 l 1
EndSplineSet
EndChar

StartChar: uni6587
Encoding: 25991 25991 57
Width: 1000
VWidth: 0
Flags: H
LayerCount: 2
Fore
SplineSet
363.63671875 754.545898438 m 1
 363.63671875 800 l 1
 409.090820312 800 l 1
 454.545898438 800 l 1
 454.545898438 754.545898438 l 1
 454.545898438 709.090820312 l 1
 500 709.090820312 l 1
 545.454101562 709.090820312 l 1
 545.454101562 663.63671875 l 1
 545.454101562 618.181640625 l 1
 772.727539062 618.181640625 l 1
 1000 618.181640625 l 1
 1000 572.727539062 l 1
 1000 527.272460938 l 1
 909.090820312 527.272460938 l 1
 818.181640625 527.272460938 l 1
 818.181640625 436.36328125 l 1
 818.181640625 345.454101562 l 1
 772.727539062 345.454101562 l 1
 727.272460938 345.454101562 l 1
 727.272460938 254.545898438 l 1
 727.272460938 163.63671875 l 1
 681.818359375 163.63671875 l 1
 636.36328125 163.63671875 l 1
 636.36328125 118.181640625 l 1
 636.36328125 72.7275390625 l 1
 590.909179688 72.7275390625 l 1
 545.454101562 72.7275390625 l 1
 545.454101562 27.2724609375 l 1
 545.454101562 -18.181640625 l 1
 636.36328125 -18.181640625 l 1
 727.272460938 -18.181640625 l 1
 727.272460938 -63.63671875 l 1
 727.272460938 -109.090820312 l 1
 863.63671875 -109.090820312 l 1
 1000 -109.090820312 l 1
 1000 -154.545898438 l 1
 1000 -200 l 1
 863.63671875 -200 l 1
 727.272460938 -200 l 1
 727.272460938 -154.545898438 l 1
 727.272460938 -109.090820312 l 1
 636.36328125 -109.090820312 l 1
 545.454101562 -109.090820312 l 1
 545.454101562 -63.63671875 l 1
 545.454101562 -18.181640625 l 1
 454.545898438 -18.181640625 l 1
 363.63671875 -18.181640625 l 1
 363.63671875 -63.63671875 l 1
 363.63671875 -109.090820312 l 1
 272.727539062 -109.090820312 l 1
 181.818359375 -109.090820312 l 1
 181.818359375 -154.545898438 l 1
 181.818359375 -200 l 1
 90.9091796875 -200 l 1
 0 -200 l 1
 0 -154.545898438 l 1
 0 -109.090820312 l 1
 90.9091796875 -109.090820312 l 1
 181.818359375 -109.090820312 l 1
 181.818359375 -63.63671875 l 1
 181.818359375 -18.181640625 l 1
 272.727539062 -18.181640625 l 1
 363.63671875 -18.181640625 l 1
 363.63671875 72.7275390625 l 1
 363.63671875 163.63671875 l 1
 318.181640625 163.63671875 l 1
 272.727539062 163.63671875 l 1
 272.727539062 209.090820312 l 1
 272.727539062 254.545898438 l 1
 227.272460938 254.545898438 l 1
 181.818359375 254.545898438 l 1
 181.818359375 390.909179688 l 1
 181.818359375 527.272460938 l 1
 90.9091796875 527.272460938 l 1
 0 527.272460938 l 1
 0 572.727539062 l 1
 0 618.181640625 l 1
 227.272460938 618.181640625 l 1
 454.545898438 618.181640625 l 1
 454.545898438 663.63671875 l 1
 454.545898438 709.090820312 l 1
 409.090820312 709.090820312 l 1
 363.63671875 709.090820312 l 1
 363.63671875 754.545898438 l 1
727.272460938 436.36328125 m 1
 727.272460938 527.272460938 l 1
 500 527.272460938 l 1
 272.727539062 527.272460938 l 1
 272.727539062 390.909179688 l 1
 272.727539062 254.545898438 l 1
 318.181640625 254.545898438 l 1
 363.63671875 254.545898438 l 1
 363.63671875 209.090820312 l 1
 363.63671875 163.63671875 l 1
 409.090820312 163.63671875 l 1
 454.545898438 163.63671875 l 1
 454.545898438 118.181640625 l 1
 454.545898438 72.7275390625 l 1
 500 72.7275390625 l 1
 545.454101562 72.7275390625 l 1
 545.454101562 118.181640625 l 1
 545.454101562 163.63671875 l 1
 590.909179688 163.63671875 l 1
 636.36328125 163.63671875 l 1
 636.36328125 254.545898438 l 1
 636.36328125 345.454101562 l 1
 681.818359375 345.454101562 l 1
 727.272460938 345.454101562 l 1
 727.272460938 436.36328125 l 1
EndSplineSet
EndChar

StartChar: uni4ECE
Encoding: 20174 20174 58
Width: 1000
VWidth: 0
Flags: H
LayerCount: 2
Fore
SplineSet
181.818359375 436.36328125 m 1
 181.818359375 800 l 1
 227.272460938 800 l 1
 272.727539062 800 l 1
 272.727539062 436.36328125 l 1
 272.727539062 72.7275390625 l 1
 318.181640625 72.7275390625 l 1
 363.63671875 72.7275390625 l 1
 363.63671875 27.2724609375 l 1
 363.63671875 -18.181640625 l 1
 409.090820312 -18.181640625 l 1
 454.545898438 -18.181640625 l 1
 454.545898438 27.2724609375 l 1
 454.545898438 72.7275390625 l 1
 500 72.7275390625 l 1
 545.454101562 72.7275390625 l 1
 545.454101562 163.63671875 l 1
 545.454101562 254.545898438 l 1
 590.909179688 254.545898438 l 1
 636.36328125 254.545898438 l 1
 636.36328125 527.272460938 l 1
 636.36328125 800 l 1
 681.818359375 800 l 1
 727.272460938 800 l 1
 727.272460938 527.272460938 l 1
 727.272460938 254.545898438 l 1
 772.727539062 254.545898438 l 1
 818.181640625 254.545898438 l 1
 818.181640625 163.63671875 l 1
 818.181640625 72.7275390625 l 1
 863.63671875 72.7275390625 l 1
 909.090820312 72.7275390625 l 1
 909.090820312 -18.181640625 l 1
 909.090820312 -109.090820312 l 1
 954.545898438 -109.090820312 l 1
 1000 -109.090820312 l 1
 1000 -154.545898438 l 1
 1000 -200 l 1
 954.545898438 -200 l 1
 909.090820312 -200 l 1
 909.090820312 -154.545898438 l 1
 909.090820312 -109.090820312 l 1
 863.63671875 -109.090820312 l 1
 818.181640625 -109.090820312 l 1
 818.181640625 -18.181640625 l 1
 818.181640625 72.7275390625 l 1
 772.727539062 72.7275390625 l 1
 727.272460938 72.7275390625 l 1
 727.272460938 163.63671875 l 1
 727.272460938 254.545898438 l 1
 681.818359375 254.545898438 l 1
 636.36328125 254.545898438 l 1
 636.36328125 163.63671875 l 1
 636.36328125 72.7275390625 l 1
 590.909179688 72.7275390625 l 1
 545.454101562 72.7275390625 l 1
 545.454101562 -18.181640625 l 1
 545.454101562 -109.090820312 l 1
 500 -109.090820312 l 1
 454.545898438 -109.090820312 l 1
 454.545898438 -154.545898438 l 1
 454.545898438 -200 l 1
 409.090820312 -200 l 1
 363.63671875 -200 l 1
 363.63671875 -109.090820312 l 1
 363.63671875 -18.181640625 l 1
 318.181640625 -18.181640625 l 1
 272.727539062 -18.181640625 l 1
 272.727539062 27.2724609375 l 1
 272.727539062 72.7275390625 l 1
 227.272460938 72.7275390625 l 1
 181.818359375 72.7275390625 l 1
 181.818359375 -18.181640625 l 1
 181.818359375 -109.090820312 l 1
 136.36328125 -109.090820312 l 1
 90.9091796875 -109.090820312 l 1
 90.9091796875 -154.545898438 l 1
 90.9091796875 -200 l 1
 45.4541015625 -200 l 1
 0 -200 l 1
 0 -154.545898438 l 1
 0 -109.090820312 l 1
 45.4541015625 -109.090820312 l 1
 90.9091796875 -109.090820312 l 1
 90.9091796875 -18.181640625 l 1
 90.9091796875 72.7275390625 l 1
 136.36328125 72.7275390625 l 1
 181.818359375 72.7275390625 l 1
 181.818359375 436.36328125 l 1
EndSplineSet
EndChar

StartChar: uni4EC0
Encoding: 20160 20160 59
Width: 1000
VWidth: 0
Flags: H
LayerCount: 2
Fore
SplineSet
272.727539062 709.090820312 m 1
 272.727539062 800 l 1
 318.181640625 800 l 1
 363.63671875 800 l 1
 363.63671875 709.090820312 l 1
 363.63671875 618.181640625 l 1
 318.181640625 618.181640625 l 1
 272.727539062 618.181640625 l 1
 272.727539062 527.272460938 l 1
 272.727539062 436.36328125 l 1
 454.545898438 436.36328125 l 1
 636.36328125 436.36328125 l 1
 636.36328125 618.181640625 l 1
 636.36328125 800 l 1
 681.818359375 800 l 1
 727.272460938 800 l 1
 727.272460938 618.181640625 l 1
 727.272460938 436.36328125 l 1
 863.63671875 436.36328125 l 1
 1000 436.36328125 l 1
 1000 390.909179688 l 1
 1000 345.454101562 l 1
 863.63671875 345.454101562 l 1
 727.272460938 345.454101562 l 1
 727.272460938 72.7275390625 l 1
 727.272460938 -200 l 1
 681.818359375 -200 l 1
 636.36328125 -200 l 1
 636.36328125 72.7275390625 l 1
 636.36328125 345.454101562 l 1
 454.545898438 345.454101562 l 1
 272.727539062 345.454101562 l 1
 272.727539062 72.7275390625 l 1
 272.727539062 -200 l 1
 227.272460938 -200 l 1
 181.818359375 -200 l 1
 181.818359375 118.181640625 l 1
 181.818359375 436.36328125 l 1
 136.36328125 436.36328125 l 1
 90.9091796875 436.36328125 l 1
 90.9091796875 390.909179688 l 1
 90.9091796875 345.454101562 l 1
 45.4541015625 345.454101562 l 1
 0 345.454101562 l 1
 0 390.909179688 l 1
 0 436.36328125 l 1
 45.4541015625 436.36328125 l 1
 90.9091796875 436.36328125 l 1
 90.9091796875 481.818359375 l 1
 90.9091796875 527.272460938 l 1
 136.36328125 527.272460938 l 1
 181.818359375 527.272460938 l 1
 181.818359375 572.727539062 l 1
 181.818359375 618.181640625 l 1
 227.272460938 618.181640625 l 1
 272.727539062 618.181640625 l 1
 272.727539062 709.090820312 l 1
EndSplineSet
EndChar

StartChar: uni957F
Encoding: 38271 38271 60
Width: 1000
VWidth: 0
Flags: H
LayerCount: 2
Fore
SplineSet
272.727539062 572.727539062 m 1
 272.727539062 800 l 1
 318.181640625 800 l 1
 363.63671875 800 l 1
 363.63671875 572.727539062 l 1
 363.63671875 345.454101562 l 1
 681.818359375 345.454101562 l 1
 1000 345.454101562 l 1
 1000 300 l 1
 1000 254.545898438 l 1
 727.272460938 254.545898438 l 1
 454.545898438 254.545898438 l 1
 454.545898438 209.090820312 l 1
 454.545898438 163.63671875 l 1
 500 163.63671875 l 1
 545.454101562 163.63671875 l 1
 545.454101562 118.181640625 l 1
 545.454101562 72.7275390625 l 1
 590.909179688 72.7275390625 l 1
 636.36328125 72.7275390625 l 1
 636.36328125 27.2724609375 l 1
 636.36328125 -18.181640625 l 1
 727.272460938 -18.181640625 l 1
 818.181640625 -18.181640625 l 1
 818.181640625 -63.63671875 l 1
 818.181640625 -109.090820312 l 1
 909.090820312 -109.090820312 l 1
 1000 -109.090820312 l 1
 1000 -154.545898438 l 1
 1000 -200 l 1
 909.090820312 -200 l 1
 818.181640625 -200 l 1
 818.181640625 -154.545898438 l 1
 818.181640625 -109.090820312 l 1
 727.272460938 -109.090820312 l 1
 636.36328125 -109.090820312 l 1
 636.36328125 -63.63671875 l 1
 636.36328125 -18.181640625 l 1
 590.909179688 -18.181640625 l 1
 545.454101562 -18.181640625 l 1
 545.454101562 -63.63671875 l 1
 545.454101562 -109.090820312 l 1
 500 -109.090820312 l 1
 454.545898438 -109.090820312 l 1
 454.545898438 -154.545898438 l 1
 454.545898438 -200 l 1
 363.63671875 -200 l 1
 272.727539062 -200 l 1
 272.727539062 27.2724609375 l 1
 272.727539062 254.545898438 l 1
 136.36328125 254.545898438 l 1
 0 254.545898438 l 1
 0 300 l 1
 0 345.454101562 l 1
 136.36328125 345.454101562 l 1
 272.727539062 345.454101562 l 1
 272.727539062 572.727539062 l 1
454.545898438 118.181640625 m 1
 454.545898438 163.63671875 l 1
 409.090820312 163.63671875 l 1
 363.63671875 163.63671875 l 1
 363.63671875 27.2724609375 l 1
 363.63671875 -109.090820312 l 1
 409.090820312 -109.090820312 l 1
 454.545898438 -109.090820312 l 1
 454.545898438 -63.63671875 l 1
 454.545898438 -18.181640625 l 1
 500 -18.181640625 l 1
 545.454101562 -18.181640625 l 1
 545.454101562 27.2724609375 l 1
 545.454101562 72.7275390625 l 1
 500 72.7275390625 l 1
 454.545898438 72.7275390625 l 1
 454.545898438 118.181640625 l 1
727.272460938 663.63671875 m 1
 727.272460938 709.090820312 l 1
 772.727539062 709.090820312 l 1
 818.181640625 709.090820312 l 1
 818.181640625 663.63671875 l 1
 818.181640625 618.181640625 l 1
 772.727539062 618.181640625 l 1
 727.272460938 618.181640625 l 1
 727.272460938 572.727539062 l 1
 727.272460938 527.272460938 l 1
 681.818359375 527.272460938 l 1
 636.36328125 527.272460938 l 1
 636.36328125 481.818359375 l 1
 636.36328125 436.36328125 l 1
 545.454101562 436.36328125 l 1
 454.545898438 436.36328125 l 1
 454.545898438 481.818359375 l 1
 454.545898438 527.272460938 l 1
 545.454101562 527.272460938 l 1
 636.36328125 527.272460938 l 1
 636.36328125 572.727539062 l 1
 636.36328125 618.181640625 l 1
 681.818359375 618.181640625 l 1
 727.272460938 618.181640625 l 1
 727.272460938 663.63671875 l 1
EndSplineSet
EndChar

StartChar: uni516C
Encoding: 20844 20844 61
Width: 1000
VWidth: 0
Flags: H
LayerCount: 2
Fore
SplineSet
272.727539062 709.090820312 m 1
 272.727539062 800 l 1
 318.181640625 800 l 1
 363.63671875 800 l 1
 363.63671875 709.090820312 l 1
 363.63671875 618.181640625 l 1
 318.181640625 618.181640625 l 1
 272.727539062 618.181640625 l 1
 272.727539062 527.272460938 l 1
 272.727539062 436.36328125 l 1
 227.272460938 436.36328125 l 1
 181.818359375 436.36328125 l 1
 181.818359375 390.909179688 l 1
 181.818359375 345.454101562 l 1
 136.36328125 345.454101562 l 1
 90.9091796875 345.454101562 l 1
 90.9091796875 390.909179688 l 1
 90.9091796875 436.36328125 l 1
 136.36328125 436.36328125 l 1
 181.818359375 436.36328125 l 1
 181.818359375 527.272460938 l 1
 181.818359375 618.181640625 l 1
 227.272460938 618.181640625 l 1
 272.727539062 618.181640625 l 1
 272.727539062 709.090820312 l 1
636.36328125 709.090820312 m 1
 636.36328125 800 l 1
 681.818359375 800 l 1
 727.272460938 800 l 1
 727.272460938 709.090820312 l 1
 727.272460938 618.181640625 l 1
 772.727539062 618.181640625 l 1
 818.181640625 618.181640625 l 1
 818.181640625 527.272460938 l 1
 818.181640625 436.36328125 l 1
 863.63671875 436.36328125 l 1
 909.090820312 436.36328125 l 1
 909.090820312 390.909179688 l 1
 909.090820312 345.454101562 l 1
 863.63671875 345.454101562 l 1
 818.181640625 345.454101562 l 1
 818.181640625 390.909179688 l 1
 818.181640625 436.36328125 l 1
 772.727539062 436.36328125 l 1
 727.272460938 436.36328125 l 1
 727.272460938 527.272460938 l 1
 727.272460938 618.181640625 l 1
 681.818359375 618.181640625 l 1
 636.36328125 618.181640625 l 1
 636.36328125 709.090820312 l 1
454.545898438 390.909179688 m 1
 454.545898438 527.272460938 l 1
 500 527.272460938 l 1
 545.454101562 527.272460938 l 1
 545.454101562 390.909179688 l 1
 545.454101562 254.545898438 l 1
 500 254.545898438 l 1
 454.545898438 254.545898438 l 1
 454.545898438 163.63671875 l 1
 454.545898438 72.7275390625 l 1
 409.090820312 72.7275390625 l 1
 363.63671875 72.7275390625 l 1
 363.63671875 27.2724609375 l 1
 363.63671875 -18.181640625 l 1
 318.181640625 -18.181640625 l 1
 272.727539062 -18.181640625 l 1
 272.727539062 -63.63671875 l 1
 272.727539062 -109.090820312 l 1
 590.909179688 -109.090820312 l 1
 909.090820312 -109.090820312 l 1
 909.090820312 -63.63671875 l 1
 909.090820312 -18.181640625 l 1
 863.63671875 -18.181640625 l 1
 818.181640625 -18.181640625 l 1
 818.181640625 27.2724609375 l 1
 818.181640625 72.7275390625 l 1
 863.63671875 72.7275390625 l 1
 909.090820312 72.7275390625 l 1
 909.090820312 27.2724609375 l 1
 909.090820312 -18.181640625 l 1
 954.545898438 -18.181640625 l 1
 1000 -18.181640625 l 1
 1000 -109.090820312 l 1
 1000 -200 l 1
 545.454101562 -200 l 1
 90.9091796875 -200 l 1
 90.9091796875 -154.545898438 l 1
 90.9091796875 -109.090820312 l 1
 136.36328125 -109.090820312 l 1
 181.818359375 -109.090820312 l 1
 181.818359375 -63.63671875 l 1
 181.818359375 -18.181640625 l 1
 227.272460938 -18.181640625 l 1
 272.727539062 -18.181640625 l 1
 272.727539062 27.2724609375 l 1
 272.727539062 72.7275390625 l 1
 318.181640625 72.7275390625 l 1
 363.63671875 72.7275390625 l 1
 363.63671875 163.63671875 l 1
 363.63671875 254.545898438 l 1
 409.090820312 254.545898438 l 1
 454.545898438 254.545898438 l 1
 454.545898438 390.909179688 l 1
EndSplineSet
EndChar

StartChar: uni6C14
Encoding: 27668 27668 62
Width: 1000
VWidth: 0
Flags: H
LayerCount: 2
Fore
SplineSet
0 618.181640625 m 1
 0 800 l 1
 45.4541015625 800 l 1
 90.9091796875 800 l 1
 90.9091796875 754.545898438 l 1
 90.9091796875 709.090820312 l 1
 545.454101562 709.090820312 l 1
 1000 709.090820312 l 1
 1000 663.63671875 l 1
 1000 618.181640625 l 1
 545.454101562 618.181640625 l 1
 90.9091796875 618.181640625 l 1
 90.9091796875 527.272460938 l 1
 90.9091796875 436.36328125 l 1
 45.4541015625 436.36328125 l 1
 0 436.36328125 l 1
 0 618.181640625 l 1
181.818359375 481.818359375 m 1
 181.818359375 527.272460938 l 1
 545.454101562 527.272460938 l 1
 909.090820312 527.272460938 l 1
 909.090820312 481.818359375 l 1
 909.090820312 436.36328125 l 1
 545.454101562 436.36328125 l 1
 181.818359375 436.36328125 l 1
 181.818359375 481.818359375 l 1
0 300 m 1
 0 345.454101562 l 1
 454.545898438 345.454101562 l 1
 909.090820312 345.454101562 l 1
 909.090820312 118.181640625 l 1
 909.090820312 -109.090820312 l 1
 954.545898438 -109.090820312 l 1
 1000 -109.090820312 l 1
 1000 -154.545898438 l 1
 1000 -200 l 1
 909.090820312 -200 l 1
 818.181640625 -200 l 1
 818.181640625 27.2724609375 l 1
 818.181640625 254.545898438 l 1
 409.090820312 254.545898438 l 1
 0 254.545898438 l 1
 0 300 l 1
EndSplineSet
EndChar

StartChar: uni592A
Encoding: 22826 22826 63
Width: 1000
VWidth: 0
Flags: H
LayerCount: 2
Fore
SplineSet
454.545898438 663.63671875 m 1
 454.545898438 800 l 1
 500 800 l 1
 545.454101562 800 l 1
 545.454101562 663.63671875 l 1
 545.454101562 527.272460938 l 1
 772.727539062 527.272460938 l 1
 1000 527.272460938 l 1
 1000 481.818359375 l 1
 1000 436.36328125 l 1
 772.727539062 436.36328125 l 1
 545.454101562 436.36328125 l 1
 545.454101562 345.454101562 l 1
 545.454101562 254.545898438 l 1
 590.909179688 254.545898438 l 1
 636.36328125 254.545898438 l 1
 636.36328125 163.63671875 l 1
 636.36328125 72.7275390625 l 1
 681.818359375 72.7275390625 l 1
 727.272460938 72.7275390625 l 1
 727.272460938 27.2724609375 l 1
 727.272460938 -18.181640625 l 1
 772.727539062 -18.181640625 l 1
 818.181640625 -18.181640625 l 1
 818.181640625 -63.63671875 l 1
 818.181640625 -109.090820312 l 1
 909.090820312 -109.090820312 l 1
 1000 -109.090820312 l 1
 1000 -154.545898438 l 1
 1000 -200 l 1
 909.090820312 -200 l 1
 818.181640625 -200 l 1
 818.181640625 -154.545898438 l 1
 818.181640625 -109.090820312 l 1
 772.727539062 -109.090820312 l 1
 727.272460938 -109.090820312 l 1
 727.272460938 -63.63671875 l 1
 727.272460938 -18.181640625 l 1
 681.818359375 -18.181640625 l 1
 636.36328125 -18.181640625 l 1
 636.36328125 27.2724609375 l 1
 636.36328125 72.7275390625 l 1
 590.909179688 72.7275390625 l 1
 545.454101562 72.7275390625 l 1
 545.454101562 163.63671875 l 1
 545.454101562 254.545898438 l 1
 500 254.545898438 l 1
 454.545898438 254.545898438 l 1
 454.545898438 163.63671875 l 1
 454.545898438 72.7275390625 l 1
 409.090820312 72.7275390625 l 1
 363.63671875 72.7275390625 l 1
 363.63671875 27.2724609375 l 1
 363.63671875 -18.181640625 l 1
 318.181640625 -18.181640625 l 1
 272.727539062 -18.181640625 l 1
 272.727539062 -63.63671875 l 1
 272.727539062 -109.090820312 l 1
 227.272460938 -109.090820312 l 1
 181.818359375 -109.090820312 l 1
 181.818359375 -154.545898438 l 1
 181.818359375 -200 l 1
 90.9091796875 -200 l 1
 0 -200 l 1
 0 -154.545898438 l 1
 0 -109.090820312 l 1
 90.9091796875 -109.090820312 l 1
 181.818359375 -109.090820312 l 1
 181.818359375 -63.63671875 l 1
 181.818359375 -18.181640625 l 1
 227.272460938 -18.181640625 l 1
 272.727539062 -18.181640625 l 1
 272.727539062 27.2724609375 l 1
 272.727539062 72.7275390625 l 1
 318.181640625 72.7275390625 l 1
 363.63671875 72.7275390625 l 1
 363.63671875 163.63671875 l 1
 363.63671875 254.545898438 l 1
 409.090820312 254.545898438 l 1
 454.545898438 254.545898438 l 1
 454.545898438 345.454101562 l 1
 454.545898438 436.36328125 l 1
 227.272460938 436.36328125 l 1
 0 436.36328125 l 1
 0 481.818359375 l 1
 0 527.272460938 l 1
 227.272460938 527.272460938 l 1
 454.545898438 527.272460938 l 1
 454.545898438 663.63671875 l 1
454.545898438 -63.63671875 m 1
 454.545898438 -18.181640625 l 1
 500 -18.181640625 l 1
 545.454101562 -18.181640625 l 1
 545.454101562 -63.63671875 l 1
 545.454101562 -109.090820312 l 1
 590.909179688 -109.090820312 l 1
 636.36328125 -109.090820312 l 1
 636.36328125 -154.545898438 l 1
 636.36328125 -200 l 1
 590.909179688 -200 l 1
 545.454101562 -200 l 1
 545.454101562 -154.545898438 l 1
 545.454101562 -109.090820312 l 1
 500 -109.090820312 l 1
 454.545898438 -109.090820312 l 1
 454.545898438 -63.63671875 l 1
EndSplineSet
EndChar

StartChar: uni6708
Encoding: 26376 26376 64
Width: 1000
VWidth: 0
Flags: H
LayerCount: 2
Fore
SplineSet
181.818359375 436.36328125 m 1
 181.818359375 800 l 1
 545.454101562 800 l 1
 909.090820312 800 l 1
 909.090820312 300 l 1
 909.090820312 -200 l 1
 818.181640625 -200 l 1
 727.272460938 -200 l 1
 727.272460938 -154.545898438 l 1
 727.272460938 -109.090820312 l 1
 681.818359375 -109.090820312 l 1
 636.36328125 -109.090820312 l 1
 636.36328125 -63.63671875 l 1
 636.36328125 -18.181640625 l 1
 681.818359375 -18.181640625 l 1
 727.272460938 -18.181640625 l 1
 727.272460938 -63.63671875 l 1
 727.272460938 -109.090820312 l 1
 772.727539062 -109.090820312 l 1
 818.181640625 -109.090820312 l 1
 818.181640625 27.2724609375 l 1
 818.181640625 163.63671875 l 1
 545.454101562 163.63671875 l 1
 272.727539062 163.63671875 l 1
 272.727539062 118.181640625 l 1
 272.727539062 72.7275390625 l 1
 227.272460938 72.7275390625 l 1
 181.818359375 72.7275390625 l 1
 181.818359375 -18.181640625 l 1
 181.818359375 -109.090820312 l 1
 136.36328125 -109.090820312 l 1
 90.9091796875 -109.090820312 l 1
 90.9091796875 -154.545898438 l 1
 90.9091796875 -200 l 1
 45.4541015625 -200 l 1
 0 -200 l 1
 0 -154.545898438 l 1
 0 -109.090820312 l 1
 45.4541015625 -109.090820312 l 1
 90.9091796875 -109.090820312 l 1
 90.9091796875 -18.181640625 l 1
 90.9091796875 72.7275390625 l 1
 136.36328125 72.7275390625 l 1
 181.818359375 72.7275390625 l 1
 181.818359375 436.36328125 l 1
818.181640625 618.181640625 m 1
 818.181640625 709.090820312 l 1
 545.454101562 709.090820312 l 1
 272.727539062 709.090820312 l 1
 272.727539062 618.181640625 l 1
 272.727539062 527.272460938 l 1
 545.454101562 527.272460938 l 1
 818.181640625 527.272460938 l 1
 818.181640625 618.181640625 l 1
818.181640625 345.454101562 m 1
 818.181640625 436.36328125 l 1
 545.454101562 436.36328125 l 1
 272.727539062 436.36328125 l 1
 272.727539062 345.454101562 l 1
 272.727539062 254.545898438 l 1
 545.454101562 254.545898438 l 1
 818.181640625 254.545898438 l 1
 818.181640625 345.454101562 l 1
EndSplineSet
EndChar

StartChar: uni5C11
Encoding: 23569 23569 65
Width: 1000
VWidth: 0
Flags: H
LayerCount: 2
Fore
SplineSet
454.545898438 390.909179688 m 1
 454.545898438 800 l 1
 500 800 l 1
 545.454101562 800 l 1
 545.454101562 390.909179688 l 1
 545.454101562 -18.181640625 l 1
 590.909179688 -18.181640625 l 1
 636.36328125 -18.181640625 l 1
 636.36328125 27.2724609375 l 1
 636.36328125 72.7275390625 l 1
 681.818359375 72.7275390625 l 1
 727.272460938 72.7275390625 l 1
 727.272460938 118.181640625 l 1
 727.272460938 163.63671875 l 1
 772.727539062 163.63671875 l 1
 818.181640625 163.63671875 l 1
 818.181640625 118.181640625 l 1
 818.181640625 72.7275390625 l 1
 772.727539062 72.7275390625 l 1
 727.272460938 72.7275390625 l 1
 727.272460938 27.2724609375 l 1
 727.272460938 -18.181640625 l 1
 681.818359375 -18.181640625 l 1
 636.36328125 -18.181640625 l 1
 636.36328125 -63.63671875 l 1
 636.36328125 -109.090820312 l 1
 500 -109.090820312 l 1
 363.63671875 -109.090820312 l 1
 363.63671875 -154.545898438 l 1
 363.63671875 -200 l 1
 181.818359375 -200 l 1
 0 -200 l 1
 0 -154.545898438 l 1
 0 -109.090820312 l 1
 181.818359375 -109.090820312 l 1
 363.63671875 -109.090820312 l 1
 363.63671875 -63.63671875 l 1
 363.63671875 -18.181640625 l 1
 409.090820312 -18.181640625 l 1
 454.545898438 -18.181640625 l 1
 454.545898438 390.909179688 l 1
90.9091796875 436.36328125 m 1
 90.9091796875 527.272460938 l 1
 136.36328125 527.272460938 l 1
 181.818359375 527.272460938 l 1
 181.818359375 436.36328125 l 1
 181.818359375 345.454101562 l 1
 136.36328125 345.454101562 l 1
 90.9091796875 345.454101562 l 1
 90.9091796875 254.545898438 l 1
 90.9091796875 163.63671875 l 1
 45.4541015625 163.63671875 l 1
 0 163.63671875 l 1
 0 254.545898438 l 1
 0 345.454101562 l 1
 45.4541015625 345.454101562 l 1
 90.9091796875 345.454101562 l 1
 90.9091796875 436.36328125 l 1
818.181640625 436.36328125 m 1
 818.181640625 527.272460938 l 1
 863.63671875 527.272460938 l 1
 909.090820312 527.272460938 l 1
 909.090820312 436.36328125 l 1
 909.090820312 345.454101562 l 1
 954.545898438 345.454101562 l 1
 1000 345.454101562 l 1
 1000 254.545898438 l 1
 1000 163.63671875 l 1
 954.545898438 163.63671875 l 1
 909.090820312 163.63671875 l 1
 909.090820312 254.545898438 l 1
 909.090820312 345.454101562 l 1
 863.63671875 345.454101562 l 1
 818.181640625 345.454101562 l 1
 818.181640625 436.36328125 l 1
EndSplineSet
EndChar

StartChar: uni4ECA
Encoding: 20170 20170 66
Width: 1000
VWidth: 0
Flags: H
LayerCount: 2
Fore
SplineSet
454.545898438 709.090820312 m 1
 454.545898438 800 l 1
 500 800 l 1
 545.454101562 800 l 1
 545.454101562 709.090820312 l 1
 545.454101562 618.181640625 l 1
 590.909179688 618.181640625 l 1
 636.36328125 618.181640625 l 1
 636.36328125 572.727539062 l 1
 636.36328125 527.272460938 l 1
 727.272460938 527.272460938 l 1
 818.181640625 527.272460938 l 1
 818.181640625 481.818359375 l 1
 818.181640625 436.36328125 l 1
 909.090820312 436.36328125 l 1
 1000 436.36328125 l 1
 1000 390.909179688 l 1
 1000 345.454101562 l 1
 909.090820312 345.454101562 l 1
 818.181640625 345.454101562 l 1
 818.181640625 390.909179688 l 1
 818.181640625 436.36328125 l 1
 727.272460938 436.36328125 l 1
 636.36328125 436.36328125 l 1
 636.36328125 481.818359375 l 1
 636.36328125 527.272460938 l 1
 590.909179688 527.272460938 l 1
 545.454101562 527.272460938 l 1
 545.454101562 572.727539062 l 1
 545.454101562 618.181640625 l 1
 500 618.181640625 l 1
 454.545898438 618.181640625 l 1
 454.545898438 572.727539062 l 1
 454.545898438 527.272460938 l 1
 409.090820312 527.272460938 l 1
 363.63671875 527.272460938 l 1
 363.63671875 481.818359375 l 1
 363.63671875 436.36328125 l 1
 272.727539062 436.36328125 l 1
 181.818359375 436.36328125 l 1
 181.818359375 390.909179688 l 1
 181.818359375 345.454101562 l 1
 90.9091796875 345.454101562 l 1
 0 345.454101562 l 1
 0 390.909179688 l 1
 0 436.36328125 l 1
 90.9091796875 436.36328125 l 1
 181.818359375 436.36328125 l 1
 181.818359375 481.818359375 l 1
 181.818359375 527.272460938 l 1
 272.727539062 527.272460938 l 1
 363.63671875 527.272460938 l 1
 363.63671875 572.727539062 l 1
 363.63671875 618.181640625 l 1
 409.090820312 618.181640625 l 1
 454.545898438 618.181640625 l 1
 454.545898438 709.090820312 l 1
454.545898438 390.909179688 m 1
 454.545898438 436.36328125 l 1
 500 436.36328125 l 1
 545.454101562 436.36328125 l 1
 545.454101562 390.909179688 l 1
 545.454101562 345.454101562 l 1
 590.909179688 345.454101562 l 1
 636.36328125 345.454101562 l 1
 636.36328125 300 l 1
 636.36328125 254.545898438 l 1
 772.727539062 254.545898438 l 1
 909.090820312 254.545898438 l 1
 909.090820312 163.63671875 l 1
 909.090820312 72.7275390625 l 1
 863.63671875 72.7275390625 l 1
 818.181640625 72.7275390625 l 1
 818.181640625 27.2724609375 l 1
 818.181640625 -18.181640625 l 1
 772.727539062 -18.181640625 l 1
 727.272460938 -18.181640625 l 1
 727.272460938 -63.63671875 l 1
 727.272460938 -109.090820312 l 1
 681.818359375 -109.090820312 l 1
 636.36328125 -109.090820312 l 1
 636.36328125 -154.545898438 l 1
 636.36328125 -200 l 1
 590.909179688 -200 l 1
 545.454101562 -200 l 1
 545.454101562 -154.545898438 l 1
 545.454101562 -109.090820312 l 1
 590.909179688 -109.090820312 l 1
 636.36328125 -109.090820312 l 1
 636.36328125 -63.63671875 l 1
 636.36328125 -18.181640625 l 1
 681.818359375 -18.181640625 l 1
 727.272460938 -18.181640625 l 1
 727.272460938 27.2724609375 l 1
 727.272460938 72.7275390625 l 1
 772.727539062 72.7275390625 l 1
 818.181640625 72.7275390625 l 1
 818.181640625 118.181640625 l 1
 818.181640625 163.63671875 l 1
 454.545898438 163.63671875 l 1
 90.9091796875 163.63671875 l 1
 90.9091796875 209.090820312 l 1
 90.9091796875 254.545898438 l 1
 318.181640625 254.545898438 l 1
 545.454101562 254.545898438 l 1
 545.454101562 300 l 1
 545.454101562 345.454101562 l 1
 500 345.454101562 l 1
 454.545898438 345.454101562 l 1
 454.545898438 390.909179688 l 1
EndSplineSet
EndChar

StartChar: uni5185
Encoding: 20869 20869 67
Width: 1000
VWidth: 0
Flags: H
LayerCount: 2
Fore
SplineSet
454.545898438 709.090820312 m 1
 454.545898438 800 l 1
 500 800 l 1
 545.454101562 800 l 1
 545.454101562 709.090820312 l 1
 545.454101562 618.181640625 l 1
 727.272460938 618.181640625 l 1
 909.090820312 618.181640625 l 1
 909.090820312 209.090820312 l 1
 909.090820312 -200 l 1
 818.181640625 -200 l 1
 727.272460938 -200 l 1
 727.272460938 -154.545898438 l 1
 727.272460938 -109.090820312 l 1
 681.818359375 -109.090820312 l 1
 636.36328125 -109.090820312 l 1
 636.36328125 -63.63671875 l 1
 636.36328125 -18.181640625 l 1
 681.818359375 -18.181640625 l 1
 727.272460938 -18.181640625 l 1
 727.272460938 -63.63671875 l 1
 727.272460938 -109.090820312 l 1
 772.727539062 -109.090820312 l 1
 818.181640625 -109.090820312 l 1
 818.181640625 209.090820312 l 1
 818.181640625 527.272460938 l 1
 681.818359375 527.272460938 l 1
 545.454101562 527.272460938 l 1
 545.454101562 436.36328125 l 1
 545.454101562 345.454101562 l 1
 590.909179688 345.454101562 l 1
 636.36328125 345.454101562 l 1
 636.36328125 254.545898438 l 1
 636.36328125 163.63671875 l 1
 681.818359375 163.63671875 l 1
 727.272460938 163.63671875 l 1
 727.272460938 118.181640625 l 1
 727.272460938 72.7275390625 l 1
 681.818359375 72.7275390625 l 1
 636.36328125 72.7275390625 l 1
 636.36328125 118.181640625 l 1
 636.36328125 163.63671875 l 1
 590.909179688 163.63671875 l 1
 545.454101562 163.63671875 l 1
 545.454101562 254.545898438 l 1
 545.454101562 345.454101562 l 1
 500 345.454101562 l 1
 454.545898438 345.454101562 l 1
 454.545898438 254.545898438 l 1
 454.545898438 163.63671875 l 1
 409.090820312 163.63671875 l 1
 363.63671875 163.63671875 l 1
 363.63671875 118.181640625 l 1
 363.63671875 72.7275390625 l 1
 318.181640625 72.7275390625 l 1
 272.727539062 72.7275390625 l 1
 272.727539062 118.181640625 l 1
 272.727539062 163.63671875 l 1
 318.181640625 163.63671875 l 1
 363.63671875 163.63671875 l 1
 363.63671875 254.545898438 l 1
 363.63671875 345.454101562 l 1
 409.090820312 345.454101562 l 1
 454.545898438 345.454101562 l 1
 454.545898438 436.36328125 l 1
 454.545898438 527.272460938 l 1
 318.181640625 527.272460938 l 1
 181.818359375 527.272460938 l 1
 181.818359375 163.63671875 l 1
 181.818359375 -200 l 1
 136.36328125 -200 l 1
 90.9091796875 -200 l 1
 90.9091796875 209.090820312 l 1
 90.9091796875 618.181640625 l 1
 272.727539062 618.181640625 l 1
 454.545898438 618.181640625 l 1
 454.545898438 709.090820312 l 1
EndSplineSet
EndChar

StartChar: uni8BA1
Encoding: 35745 35745 68
Width: 1000
VWidth: 0
Flags: H
LayerCount: 2
Fore
SplineSet
0 754.545898438 m 1
 0 800 l 1
 45.4541015625 800 l 1
 90.9091796875 800 l 1
 90.9091796875 754.545898438 l 1
 90.9091796875 709.090820312 l 1
 136.36328125 709.090820312 l 1
 181.818359375 709.090820312 l 1
 181.818359375 663.63671875 l 1
 181.818359375 618.181640625 l 1
 136.36328125 618.181640625 l 1
 90.9091796875 618.181640625 l 1
 90.9091796875 663.63671875 l 1
 90.9091796875 709.090820312 l 1
 45.4541015625 709.090820312 l 1
 0 709.090820312 l 1
 0 754.545898438 l 1
545.454101562 618.181640625 m 1
 545.454101562 800 l 1
 590.909179688 800 l 1
 636.36328125 800 l 1
 636.36328125 618.181640625 l 1
 636.36328125 436.36328125 l 1
 818.181640625 436.36328125 l 1
 1000 436.36328125 l 1
 1000 390.909179688 l 1
 1000 345.454101562 l 1
 818.181640625 345.454101562 l 1
 636.36328125 345.454101562 l 1
 636.36328125 72.7275390625 l 1
 636.36328125 -200 l 1
 590.909179688 -200 l 1
 545.454101562 -200 l 1
 545.454101562 72.7275390625 l 1
 545.454101562 345.454101562 l 1
 363.63671875 345.454101562 l 1
 181.818359375 345.454101562 l 1
 181.818359375 118.181640625 l 1
 181.818359375 -109.090820312 l 1
 227.272460938 -109.090820312 l 1
 272.727539062 -109.090820312 l 1
 272.727539062 -63.63671875 l 1
 272.727539062 -18.181640625 l 1
 318.181640625 -18.181640625 l 1
 363.63671875 -18.181640625 l 1
 363.63671875 -63.63671875 l 1
 363.63671875 -109.090820312 l 1
 318.181640625 -109.090820312 l 1
 272.727539062 -109.090820312 l 1
 272.727539062 -154.545898438 l 1
 272.727539062 -200 l 1
 181.818359375 -200 l 1
 90.9091796875 -200 l 1
 90.9091796875 118.181640625 l 1
 90.9091796875 436.36328125 l 1
 45.4541015625 436.36328125 l 1
 0 436.36328125 l 1
 0 481.818359375 l 1
 0 527.272460938 l 1
 90.9091796875 527.272460938 l 1
 181.818359375 527.272460938 l 1
 181.818359375 481.818359375 l 1
 181.818359375 436.36328125 l 1
 363.63671875 436.36328125 l 1
 545.454101562 436.36328125 l 1
 545.454101562 618.181640625 l 1
EndSplineSet
EndChar

StartChar: uni6C34
Encoding: 27700 27700 69
Width: 1000
VWidth: 0
Flags: H
LayerCount: 2
Fore
SplineSet
454.545898438 663.63671875 m 1
 454.545898438 800 l 1
 500 800 l 1
 545.454101562 800 l 1
 545.454101562 618.181640625 l 1
 545.454101562 436.36328125 l 1
 636.36328125 436.36328125 l 1
 727.272460938 436.36328125 l 1
 727.272460938 481.818359375 l 1
 727.272460938 527.272460938 l 1
 772.727539062 527.272460938 l 1
 818.181640625 527.272460938 l 1
 818.181640625 572.727539062 l 1
 818.181640625 618.181640625 l 1
 863.63671875 618.181640625 l 1
 909.090820312 618.181640625 l 1
 909.090820312 572.727539062 l 1
 909.090820312 527.272460938 l 1
 863.63671875 527.272460938 l 1
 818.181640625 527.272460938 l 1
 818.181640625 481.818359375 l 1
 818.181640625 436.36328125 l 1
 772.727539062 436.36328125 l 1
 727.272460938 436.36328125 l 1
 727.272460938 390.909179688 l 1
 727.272460938 345.454101562 l 1
 681.818359375 345.454101562 l 1
 636.36328125 345.454101562 l 1
 636.36328125 300 l 1
 636.36328125 254.545898438 l 1
 681.818359375 254.545898438 l 1
 727.272460938 254.545898438 l 1
 727.272460938 163.63671875 l 1
 727.272460938 72.7275390625 l 1
 772.727539062 72.7275390625 l 1
 818.181640625 72.7275390625 l 1
 818.181640625 27.2724609375 l 1
 818.181640625 -18.181640625 l 1
 909.090820312 -18.181640625 l 1
 1000 -18.181640625 l 1
 1000 -63.63671875 l 1
 1000 -109.090820312 l 1
 909.090820312 -109.090820312 l 1
 818.181640625 -109.090820312 l 1
 818.181640625 -63.63671875 l 1
 818.181640625 -18.181640625 l 1
 772.727539062 -18.181640625 l 1
 727.272460938 -18.181640625 l 1
 727.272460938 27.2724609375 l 1
 727.272460938 72.7275390625 l 1
 681.818359375 72.7275390625 l 1
 636.36328125 72.7275390625 l 1
 636.36328125 163.63671875 l 1
 636.36328125 254.545898438 l 1
 590.909179688 254.545898438 l 1
 545.454101562 254.545898438 l 1
 545.454101562 27.2724609375 l 1
 545.454101562 -200 l 1
 454.545898438 -200 l 1
 363.63671875 -200 l 1
 363.63671875 -154.545898438 l 1
 363.63671875 -109.090820312 l 1
 318.181640625 -109.090820312 l 1
 272.727539062 -109.090820312 l 1
 272.727539062 -63.63671875 l 1
 272.727539062 -18.181640625 l 1
 318.181640625 -18.181640625 l 1
 363.63671875 -18.181640625 l 1
 363.63671875 -63.63671875 l 1
 363.63671875 -109.090820312 l 1
 409.090820312 -109.090820312 l 1
 454.545898438 -109.090820312 l 1
 454.545898438 118.181640625 l 1
 454.545898438 345.454101562 l 1
 409.090820312 345.454101562 l 1
 363.63671875 345.454101562 l 1
 363.63671875 254.545898438 l 1
 363.63671875 163.63671875 l 1
 318.181640625 163.63671875 l 1
 272.727539062 163.63671875 l 1
 272.727539062 118.181640625 l 1
 272.727539062 72.7275390625 l 1
 227.272460938 72.7275390625 l 1
 181.818359375 72.7275390625 l 1
 181.818359375 27.2724609375 l 1
 181.818359375 -18.181640625 l 1
 90.9091796875 -18.181640625 l 1
 0 -18.181640625 l 1
 0 27.2724609375 l 1
 0 72.7275390625 l 1
 90.9091796875 72.7275390625 l 1
 181.818359375 72.7275390625 l 1
 181.818359375 118.181640625 l 1
 181.818359375 163.63671875 l 1
 227.272460938 163.63671875 l 1
 272.727539062 163.63671875 l 1
 272.727539062 254.545898438 l 1
 272.727539062 345.454101562 l 1
 318.181640625 345.454101562 l 1
 363.63671875 345.454101562 l 1
 363.63671875 390.909179688 l 1
 363.63671875 436.36328125 l 1
 181.818359375 436.36328125 l 1
 0 436.36328125 l 1
 0 481.818359375 l 1
 0 527.272460938 l 1
 227.272460938 527.272460938 l 1
 454.545898438 527.272460938 l 1
 454.545898438 663.63671875 l 1
EndSplineSet
EndChar

StartChar: uni738B
Encoding: 29579 29579 70
Width: 1000
VWidth: 0
Flags: H
LayerCount: 2
Fore
SplineSet
90.9091796875 754.545898438 m 1
 90.9091796875 800 l 1
 500 800 l 1
 909.090820312 800 l 1
 909.090820312 754.545898438 l 1
 909.090820312 709.090820312 l 1
 727.272460938 709.090820312 l 1
 545.454101562 709.090820312 l 1
 545.454101562 527.272460938 l 1
 545.454101562 345.454101562 l 1
 681.818359375 345.454101562 l 1
 818.181640625 345.454101562 l 1
 818.181640625 300 l 1
 818.181640625 254.545898438 l 1
 681.818359375 254.545898438 l 1
 545.454101562 254.545898438 l 1
 545.454101562 72.7275390625 l 1
 545.454101562 -109.090820312 l 1
 772.727539062 -109.090820312 l 1
 1000 -109.090820312 l 1
 1000 -154.545898438 l 1
 1000 -200 l 1
 500 -200 l 1
 0 -200 l 1
 0 -154.545898438 l 1
 0 -109.090820312 l 1
 227.272460938 -109.090820312 l 1
 454.545898438 -109.090820312 l 1
 454.545898438 72.7275390625 l 1
 454.545898438 254.545898438 l 1
 318.181640625 254.545898438 l 1
 181.818359375 254.545898438 l 1
 181.818359375 300 l 1
 181.818359375 345.454101562 l 1
 318.181640625 345.454101562 l 1
 454.545898438 345.454101562 l 1
 454.545898438 527.272460938 l 1
 454.545898438 709.090820312 l 1
 272.727539062 709.090820312 l 1
 90.9091796875 709.090820312 l 1
 90.9091796875 754.545898438 l 1
EndSplineSet
EndChar

StartChar: uni5316
Encoding: 21270 21270 71
Width: 1000
VWidth: 0
Flags: H
LayerCount: 2
Fore
SplineSet
181.818359375 618.181640625 m 1
 181.818359375 800 l 1
 227.272460938 800 l 1
 272.727539062 800 l 1
 272.727539062 618.181640625 l 1
 272.727539062 436.36328125 l 1
 227.272460938 436.36328125 l 1
 181.818359375 436.36328125 l 1
 181.818359375 345.454101562 l 1
 181.818359375 254.545898438 l 1
 272.727539062 254.545898438 l 1
 363.63671875 254.545898438 l 1
 363.63671875 300 l 1
 363.63671875 345.454101562 l 1
 409.090820312 345.454101562 l 1
 454.545898438 345.454101562 l 1
 454.545898438 572.727539062 l 1
 454.545898438 800 l 1
 500 800 l 1
 545.454101562 800 l 1
 545.454101562 572.727539062 l 1
 545.454101562 345.454101562 l 1
 590.909179688 345.454101562 l 1
 636.36328125 345.454101562 l 1
 636.36328125 390.909179688 l 1
 636.36328125 436.36328125 l 1
 727.272460938 436.36328125 l 1
 818.181640625 436.36328125 l 1
 818.181640625 481.818359375 l 1
 818.181640625 527.272460938 l 1
 863.63671875 527.272460938 l 1
 909.090820312 527.272460938 l 1
 909.090820312 481.818359375 l 1
 909.090820312 436.36328125 l 1
 863.63671875 436.36328125 l 1
 818.181640625 436.36328125 l 1
 818.181640625 390.909179688 l 1
 818.181640625 345.454101562 l 1
 727.272460938 345.454101562 l 1
 636.36328125 345.454101562 l 1
 636.36328125 300 l 1
 636.36328125 254.545898438 l 1
 590.909179688 254.545898438 l 1
 545.454101562 254.545898438 l 1
 545.454101562 72.7275390625 l 1
 545.454101562 -109.090820312 l 1
 727.272460938 -109.090820312 l 1
 909.090820312 -109.090820312 l 1
 909.090820312 -18.181640625 l 1
 909.090820312 72.7275390625 l 1
 954.545898438 72.7275390625 l 1
 1000 72.7275390625 l 1
 1000 -63.63671875 l 1
 1000 -200 l 1
 727.272460938 -200 l 1
 454.545898438 -200 l 1
 454.545898438 27.2724609375 l 1
 454.545898438 254.545898438 l 1
 409.090820312 254.545898438 l 1
 363.63671875 254.545898438 l 1
 363.63671875 209.090820312 l 1
 363.63671875 163.63671875 l 1
 318.181640625 163.63671875 l 1
 272.727539062 163.63671875 l 1
 272.727539062 -18.181640625 l 1
 272.727539062 -200 l 1
 227.272460938 -200 l 1
 181.818359375 -200 l 1
 181.818359375 27.2724609375 l 1
 181.818359375 254.545898438 l 1
 136.36328125 254.545898438 l 1
 90.9091796875 254.545898438 l 1
 90.9091796875 209.090820312 l 1
 90.9091796875 163.63671875 l 1
 45.4541015625 163.63671875 l 1
 0 163.63671875 l 1
 0 209.090820312 l 1
 0 254.545898438 l 1
 45.4541015625 254.545898438 l 1
 90.9091796875 254.545898438 l 1
 90.9091796875 345.454101562 l 1
 90.9091796875 436.36328125 l 1
 136.36328125 436.36328125 l 1
 181.818359375 436.36328125 l 1
 181.818359375 618.181640625 l 1
EndSplineSet
EndChar

StartChar: uni6BD4
Encoding: 27604 27604 72
Width: 1000
VWidth: 0
Flags: H
LayerCount: 2
Fore
SplineSet
0 300 m 1
 0 800 l 1
 45.4541015625 800 l 1
 90.9091796875 800 l 1
 90.9091796875 618.181640625 l 1
 90.9091796875 436.36328125 l 1
 227.272460938 436.36328125 l 1
 363.63671875 436.36328125 l 1
 363.63671875 390.909179688 l 1
 363.63671875 345.454101562 l 1
 227.272460938 345.454101562 l 1
 90.9091796875 345.454101562 l 1
 90.9091796875 118.181640625 l 1
 90.9091796875 -109.090820312 l 1
 181.818359375 -109.090820312 l 1
 272.727539062 -109.090820312 l 1
 272.727539062 -63.63671875 l 1
 272.727539062 -18.181640625 l 1
 318.181640625 -18.181640625 l 1
 363.63671875 -18.181640625 l 1
 363.63671875 -63.63671875 l 1
 363.63671875 -109.090820312 l 1
 318.181640625 -109.090820312 l 1
 272.727539062 -109.090820312 l 1
 272.727539062 -154.545898438 l 1
 272.727539062 -200 l 1
 136.36328125 -200 l 1
 0 -200 l 1
 0 300 l 1
454.545898438 345.454101562 m 1
 454.545898438 800 l 1
 500 800 l 1
 545.454101562 800 l 1
 545.454101562 572.727539062 l 1
 545.454101562 345.454101562 l 1
 636.36328125 345.454101562 l 1
 727.272460938 345.454101562 l 1
 727.272460938 390.909179688 l 1
 727.272460938 436.36328125 l 1
 818.181640625 436.36328125 l 1
 909.090820312 436.36328125 l 1
 909.090820312 481.818359375 l 1
 909.090820312 527.272460938 l 1
 954.545898438 527.272460938 l 1
 1000 527.272460938 l 1
 1000 481.818359375 l 1
 1000 436.36328125 l 1
 954.545898438 436.36328125 l 1
 909.090820312 436.36328125 l 1
 909.090820312 390.909179688 l 1
 909.090820312 345.454101562 l 1
 818.181640625 345.454101562 l 1
 727.272460938 345.454101562 l 1
 727.272460938 300 l 1
 727.272460938 254.545898438 l 1
 636.36328125 254.545898438 l 1
 545.454101562 254.545898438 l 1
 545.454101562 72.7275390625 l 1
 545.454101562 -109.090820312 l 1
 727.272460938 -109.090820312 l 1
 909.090820312 -109.090820312 l 1
 909.090820312 -63.63671875 l 1
 909.090820312 -18.181640625 l 1
 954.545898438 -18.181640625 l 1
 1000 -18.181640625 l 1
 1000 -109.090820312 l 1
 1000 -200 l 1
 772.727539062 -200 l 1
 545.454101562 -200 l 1
 545.454101562 -154.545898438 l 1
 545.454101562 -109.090820312 l 1
 500 -109.090820312 l 1
 454.545898438 -109.090820312 l 1
 454.545898438 345.454101562 l 1
EndSplineSet
EndChar

StartChar: uni98CE
Encoding: 39118 39118 73
Width: 1000
VWidth: 0
Flags: H
LayerCount: 2
Fore
SplineSet
90.9091796875 345.454101562 m 1
 90.9091796875 800 l 1
 500 800 l 1
 909.090820312 800 l 1
 909.090820312 345.454101562 l 1
 909.090820312 -109.090820312 l 1
 954.545898438 -109.090820312 l 1
 1000 -109.090820312 l 1
 1000 -154.545898438 l 1
 1000 -200 l 1
 909.090820312 -200 l 1
 818.181640625 -200 l 1
 818.181640625 254.545898438 l 1
 818.181640625 709.090820312 l 1
 500 709.090820312 l 1
 181.818359375 709.090820312 l 1
 181.818359375 300 l 1
 181.818359375 -109.090820312 l 1
 136.36328125 -109.090820312 l 1
 90.9091796875 -109.090820312 l 1
 90.9091796875 -154.545898438 l 1
 90.9091796875 -200 l 1
 45.4541015625 -200 l 1
 0 -200 l 1
 0 -154.545898438 l 1
 0 -109.090820312 l 1
 45.4541015625 -109.090820312 l 1
 90.9091796875 -109.090820312 l 1
 90.9091796875 345.454101562 l 1
272.727539062 436.36328125 m 1
 272.727539062 527.272460938 l 1
 318.181640625 527.272460938 l 1
 363.63671875 527.272460938 l 1
 363.63671875 436.36328125 l 1
 363.63671875 345.454101562 l 1
 409.090820312 345.454101562 l 1
 454.545898438 345.454101562 l 1
 454.545898438 300 l 1
 454.545898438 254.545898438 l 1
 500 254.545898438 l 1
 545.454101562 254.545898438 l 1
 545.454101562 300 l 1
 545.454101562 345.454101562 l 1
 590.909179688 345.454101562 l 1
 636.36328125 345.454101562 l 1
 636.36328125 436.36328125 l 1
 636.36328125 527.272460938 l 1
 681.818359375 527.272460938 l 1
 727.272460938 527.272460938 l 1
 727.272460938 436.36328125 l 1
 727.272460938 345.454101562 l 1
 681.818359375 345.454101562 l 1
 636.36328125 345.454101562 l 1
 636.36328125 300 l 1
 636.36328125 254.545898438 l 1
 590.909179688 254.545898438 l 1
 545.454101562 254.545898438 l 1
 545.454101562 209.090820312 l 1
 545.454101562 163.63671875 l 1
 590.909179688 163.63671875 l 1
 636.36328125 163.63671875 l 1
 636.36328125 118.181640625 l 1
 636.36328125 72.7275390625 l 1
 681.818359375 72.7275390625 l 1
 727.272460938 72.7275390625 l 1
 727.272460938 27.2724609375 l 1
 727.272460938 -18.181640625 l 1
 681.818359375 -18.181640625 l 1
 636.36328125 -18.181640625 l 1
 636.36328125 27.2724609375 l 1
 636.36328125 72.7275390625 l 1
 590.909179688 72.7275390625 l 1
 545.454101562 72.7275390625 l 1
 545.454101562 118.181640625 l 1
 545.454101562 163.63671875 l 1
 500 163.63671875 l 1
 454.545898438 163.63671875 l 1
 454.545898438 118.181640625 l 1
 454.545898438 72.7275390625 l 1
 409.090820312 72.7275390625 l 1
 363.63671875 72.7275390625 l 1
 363.63671875 27.2724609375 l 1
 363.63671875 -18.181640625 l 1
 318.181640625 -18.181640625 l 1
 272.727539062 -18.181640625 l 1
 272.727539062 27.2724609375 l 1
 272.727539062 72.7275390625 l 1
 318.181640625 72.7275390625 l 1
 363.63671875 72.7275390625 l 1
 363.63671875 118.181640625 l 1
 363.63671875 163.63671875 l 1
 409.090820312 163.63671875 l 1
 454.545898438 163.63671875 l 1
 454.545898438 209.090820312 l 1
 454.545898438 254.545898438 l 1
 409.090820312 254.545898438 l 1
 363.63671875 254.545898438 l 1
 363.63671875 300 l 1
 363.63671875 345.454101562 l 1
 318.181640625 345.454101562 l 1
 272.727539062 345.454101562 l 1
 272.727539062 436.36328125 l 1
EndSplineSet
EndChar

StartChar: uni4E94
Encoding: 20116 20116 74
Width: 1000
VWidth: 0
Flags: H
LayerCount: 2
Fore
SplineSet
0 754.545898438 m 1
 0 800 l 1
 454.545898438 800 l 1
 909.090820312 800 l 1
 909.090820312 754.545898438 l 1
 909.090820312 709.090820312 l 1
 636.36328125 709.090820312 l 1
 363.63671875 709.090820312 l 1
 363.63671875 572.727539062 l 1
 363.63671875 436.36328125 l 1
 590.909179688 436.36328125 l 1
 818.181640625 436.36328125 l 1
 818.181640625 163.63671875 l 1
 818.181640625 -109.090820312 l 1
 909.090820312 -109.090820312 l 1
 1000 -109.090820312 l 1
 1000 -154.545898438 l 1
 1000 -200 l 1
 500 -200 l 1
 0 -200 l 1
 0 -154.545898438 l 1
 0 -109.090820312 l 1
 136.36328125 -109.090820312 l 1
 272.727539062 -109.090820312 l 1
 272.727539062 118.181640625 l 1
 272.727539062 345.454101562 l 1
 181.818359375 345.454101562 l 1
 90.9091796875 345.454101562 l 1
 90.9091796875 390.909179688 l 1
 90.9091796875 436.36328125 l 1
 181.818359375 436.36328125 l 1
 272.727539062 436.36328125 l 1
 272.727539062 572.727539062 l 1
 272.727539062 709.090820312 l 1
 136.36328125 709.090820312 l 1
 0 709.090820312 l 1
 0 754.545898438 l 1
727.272460938 118.181640625 m 1
 727.272460938 345.454101562 l 1
 545.454101562 345.454101562 l 1
 363.63671875 345.454101562 l 1
 363.63671875 118.181640625 l 1
 363.63671875 -109.090820312 l 1
 545.454101562 -109.090820312 l 1
 727.272460938 -109.090820312 l 1
 727.272460938 118.181640625 l 1
EndSplineSet
EndChar

StartChar: uni8BA4
Encoding: 35748 35748 75
Width: 1000
VWidth: 0
Flags: H
LayerCount: 2
Fore
SplineSet
0 754.545898438 m 1
 0 800 l 1
 45.4541015625 800 l 1
 90.9091796875 800 l 1
 90.9091796875 754.545898438 l 1
 90.9091796875 709.090820312 l 1
 136.36328125 709.090820312 l 1
 181.818359375 709.090820312 l 1
 181.818359375 663.63671875 l 1
 181.818359375 618.181640625 l 1
 136.36328125 618.181640625 l 1
 90.9091796875 618.181640625 l 1
 90.9091796875 663.63671875 l 1
 90.9091796875 709.090820312 l 1
 45.4541015625 709.090820312 l 1
 0 709.090820312 l 1
 0 754.545898438 l 1
545.454101562 481.818359375 m 1
 545.454101562 800 l 1
 590.909179688 800 l 1
 636.36328125 800 l 1
 636.36328125 481.818359375 l 1
 636.36328125 163.63671875 l 1
 681.818359375 163.63671875 l 1
 727.272460938 163.63671875 l 1
 727.272460938 72.7275390625 l 1
 727.272460938 -18.181640625 l 1
 772.727539062 -18.181640625 l 1
 818.181640625 -18.181640625 l 1
 818.181640625 -63.63671875 l 1
 818.181640625 -109.090820312 l 1
 909.090820312 -109.090820312 l 1
 1000 -109.090820312 l 1
 1000 -154.545898438 l 1
 1000 -200 l 1
 909.090820312 -200 l 1
 818.181640625 -200 l 1
 818.181640625 -154.545898438 l 1
 818.181640625 -109.090820312 l 1
 772.727539062 -109.090820312 l 1
 727.272460938 -109.090820312 l 1
 727.272460938 -63.63671875 l 1
 727.272460938 -18.181640625 l 1
 681.818359375 -18.181640625 l 1
 636.36328125 -18.181640625 l 1
 636.36328125 72.7275390625 l 1
 636.36328125 163.63671875 l 1
 590.909179688 163.63671875 l 1
 545.454101562 163.63671875 l 1
 545.454101562 72.7275390625 l 1
 545.454101562 -18.181640625 l 1
 500 -18.181640625 l 1
 454.545898438 -18.181640625 l 1
 454.545898438 -63.63671875 l 1
 454.545898438 -109.090820312 l 1
 409.090820312 -109.090820312 l 1
 363.63671875 -109.090820312 l 1
 363.63671875 -154.545898438 l 1
 363.63671875 -200 l 1
 227.272460938 -200 l 1
 90.9091796875 -200 l 1
 90.9091796875 118.181640625 l 1
 90.9091796875 436.36328125 l 1
 45.4541015625 436.36328125 l 1
 0 436.36328125 l 1
 0 481.818359375 l 1
 0 527.272460938 l 1
 90.9091796875 527.272460938 l 1
 181.818359375 527.272460938 l 1
 181.818359375 209.090820312 l 1
 181.818359375 -109.090820312 l 1
 227.272460938 -109.090820312 l 1
 272.727539062 -109.090820312 l 1
 272.727539062 -18.181640625 l 1
 272.727539062 72.7275390625 l 1
 318.181640625 72.7275390625 l 1
 363.63671875 72.7275390625 l 1
 363.63671875 27.2724609375 l 1
 363.63671875 -18.181640625 l 1
 409.090820312 -18.181640625 l 1
 454.545898438 -18.181640625 l 1
 454.545898438 72.7275390625 l 1
 454.545898438 163.63671875 l 1
 500 163.63671875 l 1
 545.454101562 163.63671875 l 1
 545.454101562 481.818359375 l 1
EndSplineSet
EndChar

StartChar: uni5143
Encoding: 20803 20803 76
Width: 1000
VWidth: 0
Flags: H
LayerCount: 2
Fore
SplineSet
90.9091796875 754.545898438 m 1
 90.9091796875 800 l 1
 500 800 l 1
 909.090820312 800 l 1
 909.090820312 754.545898438 l 1
 909.090820312 709.090820312 l 1
 500 709.090820312 l 1
 90.9091796875 709.090820312 l 1
 90.9091796875 754.545898438 l 1
0 390.909179688 m 1
 0 436.36328125 l 1
 500 436.36328125 l 1
 1000 436.36328125 l 1
 1000 390.909179688 l 1
 1000 345.454101562 l 1
 772.727539062 345.454101562 l 1
 545.454101562 345.454101562 l 1
 545.454101562 300 l 1
 545.454101562 254.545898438 l 1
 590.909179688 254.545898438 l 1
 636.36328125 254.545898438 l 1
 636.36328125 72.7275390625 l 1
 636.36328125 -109.090820312 l 1
 772.727539062 -109.090820312 l 1
 909.090820312 -109.090820312 l 1
 909.090820312 -18.181640625 l 1
 909.090820312 72.7275390625 l 1
 954.545898438 72.7275390625 l 1
 1000 72.7275390625 l 1
 1000 -63.63671875 l 1
 1000 -200 l 1
 772.727539062 -200 l 1
 545.454101562 -200 l 1
 545.454101562 27.2724609375 l 1
 545.454101562 254.545898438 l 1
 500 254.545898438 l 1
 454.545898438 254.545898438 l 1
 454.545898438 163.63671875 l 1
 454.545898438 72.7275390625 l 1
 409.090820312 72.7275390625 l 1
 363.63671875 72.7275390625 l 1
 363.63671875 27.2724609375 l 1
 363.63671875 -18.181640625 l 1
 318.181640625 -18.181640625 l 1
 272.727539062 -18.181640625 l 1
 272.727539062 -63.63671875 l 1
 272.727539062 -109.090820312 l 1
 227.272460938 -109.090820312 l 1
 181.818359375 -109.090820312 l 1
 181.818359375 -154.545898438 l 1
 181.818359375 -200 l 1
 90.9091796875 -200 l 1
 0 -200 l 1
 0 -154.545898438 l 1
 0 -109.090820312 l 1
 90.9091796875 -109.090820312 l 1
 181.818359375 -109.090820312 l 1
 181.818359375 -63.63671875 l 1
 181.818359375 -18.181640625 l 1
 227.272460938 -18.181640625 l 1
 272.727539062 -18.181640625 l 1
 272.727539062 27.2724609375 l 1
 272.727539062 72.7275390625 l 1
 318.181640625 72.7275390625 l 1
 363.63671875 72.7275390625 l 1
 363.63671875 163.63671875 l 1
 363.63671875 254.545898438 l 1
 409.090820312 254.545898438 l 1
 454.545898438 254.545898438 l 1
 454.545898438 300 l 1
 454.545898438 345.454101562 l 1
 227.272460938 345.454101562 l 1
 0 345.454101562 l 1
 0 390.909179688 l 1
EndSplineSet
EndChar

StartChar: uni8F66
Encoding: 36710 36710 77
Width: 1000
VWidth: 0
Flags: H
LayerCount: 2
Fore
SplineSet
454.545898438 754.545898438 m 1
 454.545898438 800 l 1
 500 800 l 1
 545.454101562 800 l 1
 545.454101562 754.545898438 l 1
 545.454101562 709.090820312 l 1
 727.272460938 709.090820312 l 1
 909.090820312 709.090820312 l 1
 909.090820312 663.63671875 l 1
 909.090820312 618.181640625 l 1
 681.818359375 618.181640625 l 1
 454.545898438 618.181640625 l 1
 454.545898438 572.727539062 l 1
 454.545898438 527.272460938 l 1
 409.090820312 527.272460938 l 1
 363.63671875 527.272460938 l 1
 363.63671875 481.818359375 l 1
 363.63671875 436.36328125 l 1
 318.181640625 436.36328125 l 1
 272.727539062 436.36328125 l 1
 272.727539062 390.909179688 l 1
 272.727539062 345.454101562 l 1
 409.090820312 345.454101562 l 1
 545.454101562 345.454101562 l 1
 545.454101562 436.36328125 l 1
 545.454101562 527.272460938 l 1
 590.909179688 527.272460938 l 1
 636.36328125 527.272460938 l 1
 636.36328125 436.36328125 l 1
 636.36328125 345.454101562 l 1
 772.727539062 345.454101562 l 1
 909.090820312 345.454101562 l 1
 909.090820312 300 l 1
 909.090820312 254.545898438 l 1
 772.727539062 254.545898438 l 1
 636.36328125 254.545898438 l 1
 636.36328125 209.090820312 l 1
 636.36328125 163.63671875 l 1
 818.181640625 163.63671875 l 1
 1000 163.63671875 l 1
 1000 118.181640625 l 1
 1000 72.7275390625 l 1
 818.181640625 72.7275390625 l 1
 636.36328125 72.7275390625 l 1
 636.36328125 -63.63671875 l 1
 636.36328125 -200 l 1
 590.909179688 -200 l 1
 545.454101562 -200 l 1
 545.454101562 -63.63671875 l 1
 545.454101562 72.7275390625 l 1
 272.727539062 72.7275390625 l 1
 0 72.7275390625 l 1
 0 118.181640625 l 1
 0 163.63671875 l 1
 272.727539062 163.63671875 l 1
 545.454101562 163.63671875 l 1
 545.454101562 209.090820312 l 1
 545.454101562 254.545898438 l 1
 318.181640625 254.545898438 l 1
 90.9091796875 254.545898438 l 1
 90.9091796875 300 l 1
 90.9091796875 345.454101562 l 1
 136.36328125 345.454101562 l 1
 181.818359375 345.454101562 l 1
 181.818359375 390.909179688 l 1
 181.818359375 436.36328125 l 1
 227.272460938 436.36328125 l 1
 272.727539062 436.36328125 l 1
 272.727539062 481.818359375 l 1
 272.727539062 527.272460938 l 1
 318.181640625 527.272460938 l 1
 363.63671875 527.272460938 l 1
 363.63671875 572.727539062 l 1
 363.63671875 618.181640625 l 1
 227.272460938 618.181640625 l 1
 90.9091796875 618.181640625 l 1
 90.9091796875 663.63671875 l 1
 90.9091796875 709.090820312 l 1
 272.727539062 709.090820312 l 1
 454.545898438 709.090820312 l 1
 454.545898438 754.545898438 l 1
EndSplineSet
EndChar

StartChar: uni53CD
Encoding: 21453 21453 78
Width: 1000
VWidth: 0
Flags: H
LayerCount: 2
Fore
SplineSet
818.181640625 754.545898438 m 1
 818.181640625 800 l 1
 909.090820312 800 l 1
 1000 800 l 1
 1000 754.545898438 l 1
 1000 709.090820312 l 1
 909.090820312 709.090820312 l 1
 818.181640625 709.090820312 l 1
 818.181640625 663.63671875 l 1
 818.181640625 618.181640625 l 1
 500 618.181640625 l 1
 181.818359375 618.181640625 l 1
 181.818359375 572.727539062 l 1
 181.818359375 527.272460938 l 1
 590.909179688 527.272460938 l 1
 1000 527.272460938 l 1
 1000 436.36328125 l 1
 1000 345.454101562 l 1
 954.545898438 345.454101562 l 1
 909.090820312 345.454101562 l 1
 909.090820312 300 l 1
 909.090820312 254.545898438 l 1
 863.63671875 254.545898438 l 1
 818.181640625 254.545898438 l 1
 818.181640625 209.090820312 l 1
 818.181640625 163.63671875 l 1
 772.727539062 163.63671875 l 1
 727.272460938 163.63671875 l 1
 727.272460938 118.181640625 l 1
 727.272460938 72.7275390625 l 1
 681.818359375 72.7275390625 l 1
 636.36328125 72.7275390625 l 1
 636.36328125 27.2724609375 l 1
 636.36328125 -18.181640625 l 1
 727.272460938 -18.181640625 l 1
 818.181640625 -18.181640625 l 1
 818.181640625 -63.63671875 l 1
 818.181640625 -109.090820312 l 1
 909.090820312 -109.090820312 l 1
 1000 -109.090820312 l 1
 1000 -154.545898438 l 1
 1000 -200 l 1
 909.090820312 -200 l 1
 818.181640625 -200 l 1
 818.181640625 -154.545898438 l 1
 818.181640625 -109.090820312 l 1
 727.272460938 -109.090820312 l 1
 636.36328125 -109.090820312 l 1
 636.36328125 -63.63671875 l 1
 636.36328125 -18.181640625 l 1
 590.909179688 -18.181640625 l 1
 545.454101562 -18.181640625 l 1
 545.454101562 -63.63671875 l 1
 545.454101562 -109.090820312 l 1
 454.545898438 -109.090820312 l 1
 363.63671875 -109.090820312 l 1
 363.63671875 -154.545898438 l 1
 363.63671875 -200 l 1
 181.818359375 -200 l 1
 0 -200 l 1
 0 -154.545898438 l 1
 0 -109.090820312 l 1
 45.4541015625 -109.090820312 l 1
 90.9091796875 -109.090820312 l 1
 90.9091796875 300 l 1
 90.9091796875 709.090820312 l 1
 454.545898438 709.090820312 l 1
 818.181640625 709.090820312 l 1
 818.181640625 754.545898438 l 1
909.090820312 390.909179688 m 1
 909.090820312 436.36328125 l 1
 590.909179688 436.36328125 l 1
 272.727539062 436.36328125 l 1
 272.727539062 390.909179688 l 1
 272.727539062 345.454101562 l 1
 227.272460938 345.454101562 l 1
 181.818359375 345.454101562 l 1
 181.818359375 118.181640625 l 1
 181.818359375 -109.090820312 l 1
 272.727539062 -109.090820312 l 1
 363.63671875 -109.090820312 l 1
 363.63671875 -63.63671875 l 1
 363.63671875 -18.181640625 l 1
 454.545898438 -18.181640625 l 1
 545.454101562 -18.181640625 l 1
 545.454101562 27.2724609375 l 1
 545.454101562 72.7275390625 l 1
 590.909179688 72.7275390625 l 1
 636.36328125 72.7275390625 l 1
 636.36328125 118.181640625 l 1
 636.36328125 163.63671875 l 1
 681.818359375 163.63671875 l 1
 727.272460938 163.63671875 l 1
 727.272460938 209.090820312 l 1
 727.272460938 254.545898438 l 1
 772.727539062 254.545898438 l 1
 818.181640625 254.545898438 l 1
 818.181640625 300 l 1
 818.181640625 345.454101562 l 1
 863.63671875 345.454101562 l 1
 909.090820312 345.454101562 l 1
 909.090820312 390.909179688 l 1
272.727539062 300 m 1
 272.727539062 345.454101562 l 1
 318.181640625 345.454101562 l 1
 363.63671875 345.454101562 l 1
 363.63671875 300 l 1
 363.63671875 254.545898438 l 1
 409.090820312 254.545898438 l 1
 454.545898438 254.545898438 l 1
 454.545898438 209.090820312 l 1
 454.545898438 163.63671875 l 1
 500 163.63671875 l 1
 545.454101562 163.63671875 l 1
 545.454101562 118.181640625 l 1
 545.454101562 72.7275390625 l 1
 500 72.7275390625 l 1
 454.545898438 72.7275390625 l 1
 454.545898438 118.181640625 l 1
 454.545898438 163.63671875 l 1
 409.090820312 163.63671875 l 1
 363.63671875 163.63671875 l 1
 363.63671875 209.090820312 l 1
 363.63671875 254.545898438 l 1
 318.181640625 254.545898438 l 1
 272.727539062 254.545898438 l 1
 272.727539062 300 l 1
EndSplineSet
EndChar

StartChar: uni533A
Encoding: 21306 21306 79
Width: 1000
VWidth: 0
Flags: H
LayerCount: 2
Fore
SplineSet
0 300 m 1
 0 800 l 1
 500 800 l 1
 1000 800 l 1
 1000 754.545898438 l 1
 1000 709.090820312 l 1
 545.454101562 709.090820312 l 1
 90.9091796875 709.090820312 l 1
 90.9091796875 300 l 1
 90.9091796875 -109.090820312 l 1
 545.454101562 -109.090820312 l 1
 1000 -109.090820312 l 1
 1000 -154.545898438 l 1
 1000 -200 l 1
 500 -200 l 1
 0 -200 l 1
 0 300 l 1
181.818359375 572.727539062 m 1
 181.818359375 618.181640625 l 1
 227.272460938 618.181640625 l 1
 272.727539062 618.181640625 l 1
 272.727539062 572.727539062 l 1
 272.727539062 527.272460938 l 1
 318.181640625 527.272460938 l 1
 363.63671875 527.272460938 l 1
 363.63671875 481.818359375 l 1
 363.63671875 436.36328125 l 1
 409.090820312 436.36328125 l 1
 454.545898438 436.36328125 l 1
 454.545898438 390.909179688 l 1
 454.545898438 345.454101562 l 1
 500 345.454101562 l 1
 545.454101562 345.454101562 l 1
 545.454101562 300 l 1
 545.454101562 254.545898438 l 1
 590.909179688 254.545898438 l 1
 636.36328125 254.545898438 l 1
 636.36328125 345.454101562 l 1
 636.36328125 436.36328125 l 1
 681.818359375 436.36328125 l 1
 727.272460938 436.36328125 l 1
 727.272460938 527.272460938 l 1
 727.272460938 618.181640625 l 1
 772.727539062 618.181640625 l 1
 818.181640625 618.181640625 l 1
 818.181640625 527.272460938 l 1
 818.181640625 436.36328125 l 1
 772.727539062 436.36328125 l 1
 727.272460938 436.36328125 l 1
 727.272460938 345.454101562 l 1
 727.272460938 254.545898438 l 1
 681.818359375 254.545898438 l 1
 636.36328125 254.545898438 l 1
 636.36328125 209.090820312 l 1
 636.36328125 163.63671875 l 1
 681.818359375 163.63671875 l 1
 727.272460938 163.63671875 l 1
 727.272460938 118.181640625 l 1
 727.272460938 72.7275390625 l 1
 818.181640625 72.7275390625 l 1
 909.090820312 72.7275390625 l 1
 909.090820312 27.2724609375 l 1
 909.090820312 -18.181640625 l 1
 818.181640625 -18.181640625 l 1
 727.272460938 -18.181640625 l 1
 727.272460938 27.2724609375 l 1
 727.272460938 72.7275390625 l 1
 681.818359375 72.7275390625 l 1
 636.36328125 72.7275390625 l 1
 636.36328125 118.181640625 l 1
 636.36328125 163.63671875 l 1
 590.909179688 163.63671875 l 1
 545.454101562 163.63671875 l 1
 545.454101562 118.181640625 l 1
 545.454101562 72.7275390625 l 1
 454.545898438 72.7275390625 l 1
 363.63671875 72.7275390625 l 1
 363.63671875 27.2724609375 l 1
 363.63671875 -18.181640625 l 1
 272.727539062 -18.181640625 l 1
 181.818359375 -18.181640625 l 1
 181.818359375 27.2724609375 l 1
 181.818359375 72.7275390625 l 1
 272.727539062 72.7275390625 l 1
 363.63671875 72.7275390625 l 1
 363.63671875 118.181640625 l 1
 363.63671875 163.63671875 l 1
 454.545898438 163.63671875 l 1
 545.454101562 163.63671875 l 1
 545.454101562 209.090820312 l 1
 545.454101562 254.545898438 l 1
 500 254.545898438 l 1
 454.545898438 254.545898438 l 1
 454.545898438 300 l 1
 454.545898438 345.454101562 l 1
 409.090820312 345.454101562 l 1
 363.63671875 345.454101562 l 1
 363.63671875 390.909179688 l 1
 363.63671875 436.36328125 l 1
 318.181640625 436.36328125 l 1
 272.727539062 436.36328125 l 1
 272.727539062 481.818359375 l 1
 272.727539062 527.272460938 l 1
 227.272460938 527.272460938 l 1
 181.818359375 527.272460938 l 1
 181.818359375 572.727539062 l 1
EndSplineSet
EndChar

StartChar: uni5207
Encoding: 20999 20999 80
Width: 1000
VWidth: 0
Flags: H
LayerCount: 2
Fore
SplineSet
90.9091796875 663.63671875 m 1
 90.9091796875 800 l 1
 136.36328125 800 l 1
 181.818359375 800 l 1
 181.818359375 663.63671875 l 1
 181.818359375 527.272460938 l 1
 272.727539062 527.272460938 l 1
 363.63671875 527.272460938 l 1
 363.63671875 481.818359375 l 1
 363.63671875 436.36328125 l 1
 272.727539062 436.36328125 l 1
 181.818359375 436.36328125 l 1
 181.818359375 163.63671875 l 1
 181.818359375 -109.090820312 l 1
 227.272460938 -109.090820312 l 1
 272.727539062 -109.090820312 l 1
 272.727539062 -63.63671875 l 1
 272.727539062 -18.181640625 l 1
 318.181640625 -18.181640625 l 1
 363.63671875 -18.181640625 l 1
 363.63671875 -63.63671875 l 1
 363.63671875 -109.090820312 l 1
 409.090820312 -109.090820312 l 1
 454.545898438 -109.090820312 l 1
 454.545898438 300 l 1
 454.545898438 709.090820312 l 1
 363.63671875 709.090820312 l 1
 272.727539062 709.090820312 l 1
 272.727539062 754.545898438 l 1
 272.727539062 800 l 1
 636.36328125 800 l 1
 1000 800 l 1
 1000 300 l 1
 1000 -200 l 1
 909.090820312 -200 l 1
 818.181640625 -200 l 1
 818.181640625 -154.545898438 l 1
 818.181640625 -109.090820312 l 1
 772.727539062 -109.090820312 l 1
 727.272460938 -109.090820312 l 1
 727.272460938 -63.63671875 l 1
 727.272460938 -18.181640625 l 1
 772.727539062 -18.181640625 l 1
 818.181640625 -18.181640625 l 1
 818.181640625 -63.63671875 l 1
 818.181640625 -109.090820312 l 1
 863.63671875 -109.090820312 l 1
 909.090820312 -109.090820312 l 1
 909.090820312 300 l 1
 909.090820312 709.090820312 l 1
 727.272460938 709.090820312 l 1
 545.454101562 709.090820312 l 1
 545.454101562 300 l 1
 545.454101562 -109.090820312 l 1
 500 -109.090820312 l 1
 454.545898438 -109.090820312 l 1
 454.545898438 -154.545898438 l 1
 454.545898438 -200 l 1
 409.090820312 -200 l 1
 363.63671875 -200 l 1
 363.63671875 -154.545898438 l 1
 363.63671875 -109.090820312 l 1
 318.181640625 -109.090820312 l 1
 272.727539062 -109.090820312 l 1
 272.727539062 -154.545898438 l 1
 272.727539062 -200 l 1
 181.818359375 -200 l 1
 90.9091796875 -200 l 1
 90.9091796875 118.181640625 l 1
 90.9091796875 436.36328125 l 1
 45.4541015625 436.36328125 l 1
 0 436.36328125 l 1
 0 481.818359375 l 1
 0 527.272460938 l 1
 45.4541015625 527.272460938 l 1
 90.9091796875 527.272460938 l 1
 90.9091796875 663.63671875 l 1
EndSplineSet
EndChar

StartChar: uni706B
Encoding: 28779 28779 81
Width: 1000
VWidth: 0
Flags: H
LayerCount: 2
Fore
SplineSet
454.545898438 527.272460938 m 1
 454.545898438 800 l 1
 500 800 l 1
 545.454101562 800 l 1
 545.454101562 527.272460938 l 1
 545.454101562 254.545898438 l 1
 590.909179688 254.545898438 l 1
 636.36328125 254.545898438 l 1
 636.36328125 163.63671875 l 1
 636.36328125 72.7275390625 l 1
 681.818359375 72.7275390625 l 1
 727.272460938 72.7275390625 l 1
 727.272460938 27.2724609375 l 1
 727.272460938 -18.181640625 l 1
 772.727539062 -18.181640625 l 1
 818.181640625 -18.181640625 l 1
 818.181640625 -63.63671875 l 1
 818.181640625 -109.090820312 l 1
 909.090820312 -109.090820312 l 1
 1000 -109.090820312 l 1
 1000 -154.545898438 l 1
 1000 -200 l 1
 909.090820312 -200 l 1
 818.181640625 -200 l 1
 818.181640625 -154.545898438 l 1
 818.181640625 -109.090820312 l 1
 772.727539062 -109.090820312 l 1
 727.272460938 -109.090820312 l 1
 727.272460938 -63.63671875 l 1
 727.272460938 -18.181640625 l 1
 681.818359375 -18.181640625 l 1
 636.36328125 -18.181640625 l 1
 636.36328125 27.2724609375 l 1
 636.36328125 72.7275390625 l 1
 590.909179688 72.7275390625 l 1
 545.454101562 72.7275390625 l 1
 545.454101562 163.63671875 l 1
 545.454101562 254.545898438 l 1
 500 254.545898438 l 1
 454.545898438 254.545898438 l 1
 454.545898438 163.63671875 l 1
 454.545898438 72.7275390625 l 1
 409.090820312 72.7275390625 l 1
 363.63671875 72.7275390625 l 1
 363.63671875 27.2724609375 l 1
 363.63671875 -18.181640625 l 1
 318.181640625 -18.181640625 l 1
 272.727539062 -18.181640625 l 1
 272.727539062 -63.63671875 l 1
 272.727539062 -109.090820312 l 1
 227.272460938 -109.090820312 l 1
 181.818359375 -109.090820312 l 1
 181.818359375 -154.545898438 l 1
 181.818359375 -200 l 1
 90.9091796875 -200 l 1
 0 -200 l 1
 0 -154.545898438 l 1
 0 -109.090820312 l 1
 90.9091796875 -109.090820312 l 1
 181.818359375 -109.090820312 l 1
 181.818359375 -63.63671875 l 1
 181.818359375 -18.181640625 l 1
 227.272460938 -18.181640625 l 1
 272.727539062 -18.181640625 l 1
 272.727539062 27.2724609375 l 1
 272.727539062 72.7275390625 l 1
 318.181640625 72.7275390625 l 1
 363.63671875 72.7275390625 l 1
 363.63671875 163.63671875 l 1
 363.63671875 254.545898438 l 1
 409.090820312 254.545898438 l 1
 454.545898438 254.545898438 l 1
 454.545898438 527.272460938 l 1
90.9091796875 527.272460938 m 1
 90.9091796875 618.181640625 l 1
 136.36328125 618.181640625 l 1
 181.818359375 618.181640625 l 1
 181.818359375 527.272460938 l 1
 181.818359375 436.36328125 l 1
 227.272460938 436.36328125 l 1
 272.727539062 436.36328125 l 1
 272.727539062 390.909179688 l 1
 272.727539062 345.454101562 l 1
 227.272460938 345.454101562 l 1
 181.818359375 345.454101562 l 1
 181.818359375 390.909179688 l 1
 181.818359375 436.36328125 l 1
 136.36328125 436.36328125 l 1
 90.9091796875 436.36328125 l 1
 90.9091796875 527.272460938 l 1
818.181640625 527.272460938 m 1
 818.181640625 618.181640625 l 1
 863.63671875 618.181640625 l 1
 909.090820312 618.181640625 l 1
 909.090820312 527.272460938 l 1
 909.090820312 436.36328125 l 1
 863.63671875 436.36328125 l 1
 818.181640625 436.36328125 l 1
 818.181640625 390.909179688 l 1
 818.181640625 345.454101562 l 1
 772.727539062 345.454101562 l 1
 727.272460938 345.454101562 l 1
 727.272460938 390.909179688 l 1
 727.272460938 436.36328125 l 1
 772.727539062 436.36328125 l 1
 818.181640625 436.36328125 l 1
 818.181640625 527.272460938 l 1
EndSplineSet
EndChar

StartChar: uni5F15
Encoding: 24341 24341 82
Width: 1000
VWidth: 0
Flags: H
LayerCount: 2
Fore
SplineSet
0 754.545898438 m 1
 0 800 l 1
 272.727539062 800 l 1
 545.454101562 800 l 1
 545.454101562 618.181640625 l 1
 545.454101562 436.36328125 l 1
 318.181640625 436.36328125 l 1
 90.9091796875 436.36328125 l 1
 90.9091796875 345.454101562 l 1
 90.9091796875 254.545898438 l 1
 318.181640625 254.545898438 l 1
 545.454101562 254.545898438 l 1
 545.454101562 27.2724609375 l 1
 545.454101562 -200 l 1
 454.545898438 -200 l 1
 363.63671875 -200 l 1
 363.63671875 -154.545898438 l 1
 363.63671875 -109.090820312 l 1
 318.181640625 -109.090820312 l 1
 272.727539062 -109.090820312 l 1
 272.727539062 -63.63671875 l 1
 272.727539062 -18.181640625 l 1
 318.181640625 -18.181640625 l 1
 363.63671875 -18.181640625 l 1
 363.63671875 -63.63671875 l 1
 363.63671875 -109.090820312 l 1
 409.090820312 -109.090820312 l 1
 454.545898438 -109.090820312 l 1
 454.545898438 27.2724609375 l 1
 454.545898438 163.63671875 l 1
 227.272460938 163.63671875 l 1
 0 163.63671875 l 1
 0 345.454101562 l 1
 0 527.272460938 l 1
 227.272460938 527.272460938 l 1
 454.545898438 527.272460938 l 1
 454.545898438 618.181640625 l 1
 454.545898438 709.090820312 l 1
 227.272460938 709.090820312 l 1
 0 709.090820312 l 1
 0 754.545898438 l 1
727.272460938 300 m 1
 727.272460938 800 l 1
 772.727539062 800 l 1
 818.181640625 800 l 1
 818.181640625 300 l 1
 818.181640625 -200 l 1
 772.727539062 -200 l 1
 727.272460938 -200 l 1
 727.272460938 300 l 1
EndSplineSet
EndChar

StartChar: uni516D
Encoding: 20845 20845 83
Width: 1000
VWidth: 0
Flags: H
LayerCount: 2
Fore
SplineSet
363.63671875 754.545898438 m 1
 363.63671875 800 l 1
 409.090820312 800 l 1
 454.545898438 800 l 1
 454.545898438 754.545898438 l 1
 454.545898438 709.090820312 l 1
 500 709.090820312 l 1
 545.454101562 709.090820312 l 1
 545.454101562 663.63671875 l 1
 545.454101562 618.181640625 l 1
 500 618.181640625 l 1
 454.545898438 618.181640625 l 1
 454.545898438 663.63671875 l 1
 454.545898438 709.090820312 l 1
 409.090820312 709.090820312 l 1
 363.63671875 709.090820312 l 1
 363.63671875 754.545898438 l 1
0 481.818359375 m 1
 0 527.272460938 l 1
 500 527.272460938 l 1
 1000 527.272460938 l 1
 1000 481.818359375 l 1
 1000 436.36328125 l 1
 500 436.36328125 l 1
 0 436.36328125 l 1
 0 481.818359375 l 1
272.727539062 163.63671875 m 1
 272.727539062 345.454101562 l 1
 318.181640625 345.454101562 l 1
 363.63671875 345.454101562 l 1
 363.63671875 163.63671875 l 1
 363.63671875 -18.181640625 l 1
 318.181640625 -18.181640625 l 1
 272.727539062 -18.181640625 l 1
 272.727539062 -63.63671875 l 1
 272.727539062 -109.090820312 l 1
 227.272460938 -109.090820312 l 1
 181.818359375 -109.090820312 l 1
 181.818359375 -154.545898438 l 1
 181.818359375 -200 l 1
 136.36328125 -200 l 1
 90.9091796875 -200 l 1
 90.9091796875 -154.545898438 l 1
 90.9091796875 -109.090820312 l 1
 136.36328125 -109.090820312 l 1
 181.818359375 -109.090820312 l 1
 181.818359375 -63.63671875 l 1
 181.818359375 -18.181640625 l 1
 227.272460938 -18.181640625 l 1
 272.727539062 -18.181640625 l 1
 272.727539062 163.63671875 l 1
636.36328125 209.090820312 m 1
 636.36328125 345.454101562 l 1
 681.818359375 345.454101562 l 1
 727.272460938 345.454101562 l 1
 727.272460938 209.090820312 l 1
 727.272460938 72.7275390625 l 1
 772.727539062 72.7275390625 l 1
 818.181640625 72.7275390625 l 1
 818.181640625 -18.181640625 l 1
 818.181640625 -109.090820312 l 1
 863.63671875 -109.090820312 l 1
 909.090820312 -109.090820312 l 1
 909.090820312 -154.545898438 l 1
 909.090820312 -200 l 1
 863.63671875 -200 l 1
 818.181640625 -200 l 1
 818.181640625 -154.545898438 l 1
 818.181640625 -109.090820312 l 1
 772.727539062 -109.090820312 l 1
 727.272460938 -109.090820312 l 1
 727.272460938 -18.181640625 l 1
 727.272460938 72.7275390625 l 1
 681.818359375 72.7275390625 l 1
 636.36328125 72.7275390625 l 1
 636.36328125 209.090820312 l 1
EndSplineSet
EndChar

StartChar: uni7247
Encoding: 29255 29255 84
Width: 1000
VWidth: 0
Flags: H
LayerCount: 2
Fore
SplineSet
90.9091796875 345.454101562 m 1
 90.9091796875 800 l 1
 136.36328125 800 l 1
 181.818359375 800 l 1
 181.818359375 663.63671875 l 1
 181.818359375 527.272460938 l 1
 363.63671875 527.272460938 l 1
 545.454101562 527.272460938 l 1
 545.454101562 663.63671875 l 1
 545.454101562 800 l 1
 590.909179688 800 l 1
 636.36328125 800 l 1
 636.36328125 663.63671875 l 1
 636.36328125 527.272460938 l 1
 818.181640625 527.272460938 l 1
 1000 527.272460938 l 1
 1000 481.818359375 l 1
 1000 436.36328125 l 1
 590.909179688 436.36328125 l 1
 181.818359375 436.36328125 l 1
 181.818359375 345.454101562 l 1
 181.818359375 254.545898438 l 1
 500 254.545898438 l 1
 818.181640625 254.545898438 l 1
 818.181640625 27.2724609375 l 1
 818.181640625 -200 l 1
 772.727539062 -200 l 1
 727.272460938 -200 l 1
 727.272460938 -18.181640625 l 1
 727.272460938 163.63671875 l 1
 454.545898438 163.63671875 l 1
 181.818359375 163.63671875 l 1
 181.818359375 27.2724609375 l 1
 181.818359375 -109.090820312 l 1
 136.36328125 -109.090820312 l 1
 90.9091796875 -109.090820312 l 1
 90.9091796875 -154.545898438 l 1
 90.9091796875 -200 l 1
 45.4541015625 -200 l 1
 0 -200 l 1
 0 -154.545898438 l 1
 0 -109.090820312 l 1
 45.4541015625 -109.090820312 l 1
 90.9091796875 -109.090820312 l 1
 90.9091796875 345.454101562 l 1
EndSplineSet
EndChar

StartChar: uni961F
Encoding: 38431 38431 85
Width: 1000
VWidth: 0
Flags: H
LayerCount: 2
Fore
SplineSet
0 754.545898438 m 1
 0 800 l 1
 181.818359375 800 l 1
 363.63671875 800 l 1
 363.63671875 709.090820312 l 1
 363.63671875 618.181640625 l 1
 318.181640625 618.181640625 l 1
 272.727539062 618.181640625 l 1
 272.727539062 572.727539062 l 1
 272.727539062 527.272460938 l 1
 227.272460938 527.272460938 l 1
 181.818359375 527.272460938 l 1
 181.818359375 481.818359375 l 1
 181.818359375 436.36328125 l 1
 227.272460938 436.36328125 l 1
 272.727539062 436.36328125 l 1
 272.727539062 390.909179688 l 1
 272.727539062 345.454101562 l 1
 318.181640625 345.454101562 l 1
 363.63671875 345.454101562 l 1
 363.63671875 254.545898438 l 1
 363.63671875 163.63671875 l 1
 318.181640625 163.63671875 l 1
 272.727539062 163.63671875 l 1
 272.727539062 118.181640625 l 1
 272.727539062 72.7275390625 l 1
 181.818359375 72.7275390625 l 1
 90.9091796875 72.7275390625 l 1
 90.9091796875 -63.63671875 l 1
 90.9091796875 -200 l 1
 45.4541015625 -200 l 1
 0 -200 l 1
 0 72.7275390625 l 1
 0 345.454101562 l 1
 45.4541015625 345.454101562 l 1
 90.9091796875 345.454101562 l 1
 90.9091796875 254.545898438 l 1
 90.9091796875 163.63671875 l 1
 181.818359375 163.63671875 l 1
 272.727539062 163.63671875 l 1
 272.727539062 254.545898438 l 1
 272.727539062 345.454101562 l 1
 227.272460938 345.454101562 l 1
 181.818359375 345.454101562 l 1
 181.818359375 390.909179688 l 1
 181.818359375 436.36328125 l 1
 136.36328125 436.36328125 l 1
 90.9091796875 436.36328125 l 1
 90.9091796875 481.818359375 l 1
 90.9091796875 527.272460938 l 1
 136.36328125 527.272460938 l 1
 181.818359375 527.272460938 l 1
 181.818359375 572.727539062 l 1
 181.818359375 618.181640625 l 1
 227.272460938 618.181640625 l 1
 272.727539062 618.181640625 l 1
 272.727539062 663.63671875 l 1
 272.727539062 709.090820312 l 1
 136.36328125 709.090820312 l 1
 0 709.090820312 l 1
 0 754.545898438 l 1
545.454101562 527.272460938 m 1
 545.454101562 800 l 1
 590.909179688 800 l 1
 636.36328125 800 l 1
 636.36328125 527.272460938 l 1
 636.36328125 254.545898438 l 1
 681.818359375 254.545898438 l 1
 727.272460938 254.545898438 l 1
 727.272460938 163.63671875 l 1
 727.272460938 72.7275390625 l 1
 772.727539062 72.7275390625 l 1
 818.181640625 72.7275390625 l 1
 818.181640625 27.2724609375 l 1
 818.181640625 -18.181640625 l 1
 863.63671875 -18.181640625 l 1
 909.090820312 -18.181640625 l 1
 909.090820312 -63.63671875 l 1
 909.090820312 -109.090820312 l 1
 954.545898438 -109.090820312 l 1
 1000 -109.090820312 l 1
 1000 -154.545898438 l 1
 1000 -200 l 1
 954.545898438 -200 l 1
 909.090820312 -200 l 1
 909.090820312 -154.545898438 l 1
 909.090820312 -109.090820312 l 1
 863.63671875 -109.090820312 l 1
 818.181640625 -109.090820312 l 1
 818.181640625 -63.63671875 l 1
 818.181640625 -18.181640625 l 1
 772.727539062 -18.181640625 l 1
 727.272460938 -18.181640625 l 1
 727.272460938 27.2724609375 l 1
 727.272460938 72.7275390625 l 1
 681.818359375 72.7275390625 l 1
 636.36328125 72.7275390625 l 1
 636.36328125 163.63671875 l 1
 636.36328125 254.545898438 l 1
 590.909179688 254.545898438 l 1
 545.454101562 254.545898438 l 1
 545.454101562 163.63671875 l 1
 545.454101562 72.7275390625 l 1
 500 72.7275390625 l 1
 454.545898438 72.7275390625 l 1
 454.545898438 -18.181640625 l 1
 454.545898438 -109.090820312 l 1
 409.090820312 -109.090820312 l 1
 363.63671875 -109.090820312 l 1
 363.63671875 -154.545898438 l 1
 363.63671875 -200 l 1
 318.181640625 -200 l 1
 272.727539062 -200 l 1
 272.727539062 -154.545898438 l 1
 272.727539062 -109.090820312 l 1
 318.181640625 -109.090820312 l 1
 363.63671875 -109.090820312 l 1
 363.63671875 -18.181640625 l 1
 363.63671875 72.7275390625 l 1
 409.090820312 72.7275390625 l 1
 454.545898438 72.7275390625 l 1
 454.545898438 163.63671875 l 1
 454.545898438 254.545898438 l 1
 500 254.545898438 l 1
 545.454101562 254.545898438 l 1
 545.454101562 527.272460938 l 1
EndSplineSet
EndChar

StartChar: uni652F
Encoding: 25903 25903 86
Width: 1000
VWidth: 0
Flags: H
LayerCount: 2
Fore
SplineSet
454.545898438 754.545898438 m 1
 454.545898438 800 l 1
 500 800 l 1
 545.454101562 800 l 1
 545.454101562 754.545898438 l 1
 545.454101562 709.090820312 l 1
 772.727539062 709.090820312 l 1
 1000 709.090820312 l 1
 1000 663.63671875 l 1
 1000 618.181640625 l 1
 772.727539062 618.181640625 l 1
 545.454101562 618.181640625 l 1
 545.454101562 527.272460938 l 1
 545.454101562 436.36328125 l 1
 727.272460938 436.36328125 l 1
 909.090820312 436.36328125 l 1
 909.090820312 390.909179688 l 1
 909.090820312 345.454101562 l 1
 863.63671875 345.454101562 l 1
 818.181640625 345.454101562 l 1
 818.181640625 300 l 1
 818.181640625 254.545898438 l 1
 772.727539062 254.545898438 l 1
 727.272460938 254.545898438 l 1
 727.272460938 209.090820312 l 1
 727.272460938 163.63671875 l 1
 681.818359375 163.63671875 l 1
 636.36328125 163.63671875 l 1
 636.36328125 118.181640625 l 1
 636.36328125 72.7275390625 l 1
 590.909179688 72.7275390625 l 1
 545.454101562 72.7275390625 l 1
 545.454101562 27.2724609375 l 1
 545.454101562 -18.181640625 l 1
 636.36328125 -18.181640625 l 1
 727.272460938 -18.181640625 l 1
 727.272460938 -63.63671875 l 1
 727.272460938 -109.090820312 l 1
 863.63671875 -109.090820312 l 1
 1000 -109.090820312 l 1
 1000 -154.545898438 l 1
 1000 -200 l 1
 863.63671875 -200 l 1
 727.272460938 -200 l 1
 727.272460938 -154.545898438 l 1
 727.272460938 -109.090820312 l 1
 636.36328125 -109.090820312 l 1
 545.454101562 -109.090820312 l 1
 545.454101562 -63.63671875 l 1
 545.454101562 -18.181640625 l 1
 500 -18.181640625 l 1
 454.545898438 -18.181640625 l 1
 454.545898438 -63.63671875 l 1
 454.545898438 -109.090820312 l 1
 363.63671875 -109.090820312 l 1
 272.727539062 -109.090820312 l 1
 272.727539062 -154.545898438 l 1
 272.727539062 -200 l 1
 136.36328125 -200 l 1
 0 -200 l 1
 0 -154.545898438 l 1
 0 -109.090820312 l 1
 136.36328125 -109.090820312 l 1
 272.727539062 -109.090820312 l 1
 272.727539062 -63.63671875 l 1
 272.727539062 -18.181640625 l 1
 363.63671875 -18.181640625 l 1
 454.545898438 -18.181640625 l 1
 454.545898438 27.2724609375 l 1
 454.545898438 72.7275390625 l 1
 409.090820312 72.7275390625 l 1
 363.63671875 72.7275390625 l 1
 363.63671875 118.181640625 l 1
 363.63671875 163.63671875 l 1
 318.181640625 163.63671875 l 1
 272.727539062 163.63671875 l 1
 272.727539062 209.090820312 l 1
 272.727539062 254.545898438 l 1
 227.272460938 254.545898438 l 1
 181.818359375 254.545898438 l 1
 181.818359375 300 l 1
 181.818359375 345.454101562 l 1
 136.36328125 345.454101562 l 1
 90.9091796875 345.454101562 l 1
 90.9091796875 390.909179688 l 1
 90.9091796875 436.36328125 l 1
 272.727539062 436.36328125 l 1
 454.545898438 436.36328125 l 1
 454.545898438 527.272460938 l 1
 454.545898438 618.181640625 l 1
 227.272460938 618.181640625 l 1
 0 618.181640625 l 1
 0 663.63671875 l 1
 0 709.090820312 l 1
 227.272460938 709.090820312 l 1
 454.545898438 709.090820312 l 1
 454.545898438 754.545898438 l 1
727.272460938 300 m 1
 727.272460938 345.454101562 l 1
 500 345.454101562 l 1
 272.727539062 345.454101562 l 1
 272.727539062 300 l 1
 272.727539062 254.545898438 l 1
 318.181640625 254.545898438 l 1
 363.63671875 254.545898438 l 1
 363.63671875 209.090820312 l 1
 363.63671875 163.63671875 l 1
 409.090820312 163.63671875 l 1
 454.545898438 163.63671875 l 1
 454.545898438 118.181640625 l 1
 454.545898438 72.7275390625 l 1
 500 72.7275390625 l 1
 545.454101562 72.7275390625 l 1
 545.454101562 118.181640625 l 1
 545.454101562 163.63671875 l 1
 590.909179688 163.63671875 l 1
 636.36328125 163.63671875 l 1
 636.36328125 209.090820312 l 1
 636.36328125 254.545898438 l 1
 681.818359375 254.545898438 l 1
 727.272460938 254.545898438 l 1
 727.272460938 300 l 1
EndSplineSet
EndChar

StartChar: uni4E13
Encoding: 19987 19987 87
Width: 1000
VWidth: 0
Flags: H
LayerCount: 2
Fore
SplineSet
454.545898438 754.545898438 m 1
 454.545898438 800 l 1
 500 800 l 1
 545.454101562 800 l 1
 545.454101562 754.545898438 l 1
 545.454101562 709.090820312 l 1
 727.272460938 709.090820312 l 1
 909.090820312 709.090820312 l 1
 909.090820312 663.63671875 l 1
 909.090820312 618.181640625 l 1
 727.272460938 618.181640625 l 1
 545.454101562 618.181640625 l 1
 545.454101562 527.272460938 l 1
 545.454101562 436.36328125 l 1
 772.727539062 436.36328125 l 1
 1000 436.36328125 l 1
 1000 390.909179688 l 1
 1000 345.454101562 l 1
 727.272460938 345.454101562 l 1
 454.545898438 345.454101562 l 1
 454.545898438 300 l 1
 454.545898438 254.545898438 l 1
 636.36328125 254.545898438 l 1
 818.181640625 254.545898438 l 1
 818.181640625 163.63671875 l 1
 818.181640625 72.7275390625 l 1
 772.727539062 72.7275390625 l 1
 727.272460938 72.7275390625 l 1
 727.272460938 27.2724609375 l 1
 727.272460938 -18.181640625 l 1
 681.818359375 -18.181640625 l 1
 636.36328125 -18.181640625 l 1
 636.36328125 -63.63671875 l 1
 636.36328125 -109.090820312 l 1
 681.818359375 -109.090820312 l 1
 727.272460938 -109.090820312 l 1
 727.272460938 -154.545898438 l 1
 727.272460938 -200 l 1
 636.36328125 -200 l 1
 545.454101562 -200 l 1
 545.454101562 -154.545898438 l 1
 545.454101562 -109.090820312 l 1
 500 -109.090820312 l 1
 454.545898438 -109.090820312 l 1
 454.545898438 -63.63671875 l 1
 454.545898438 -18.181640625 l 1
 545.454101562 -18.181640625 l 1
 636.36328125 -18.181640625 l 1
 636.36328125 27.2724609375 l 1
 636.36328125 72.7275390625 l 1
 681.818359375 72.7275390625 l 1
 727.272460938 72.7275390625 l 1
 727.272460938 118.181640625 l 1
 727.272460938 163.63671875 l 1
 500 163.63671875 l 1
 272.727539062 163.63671875 l 1
 272.727539062 209.090820312 l 1
 272.727539062 254.545898438 l 1
 318.181640625 254.545898438 l 1
 363.63671875 254.545898438 l 1
 363.63671875 300 l 1
 363.63671875 345.454101562 l 1
 181.818359375 345.454101562 l 1
 0 345.454101562 l 1
 0 390.909179688 l 1
 0 436.36328125 l 1
 227.272460938 436.36328125 l 1
 454.545898438 436.36328125 l 1
 454.545898438 527.272460938 l 1
 454.545898438 618.181640625 l 1
 272.727539062 618.181640625 l 1
 90.9091796875 618.181640625 l 1
 90.9091796875 663.63671875 l 1
 90.9091796875 709.090820312 l 1
 272.727539062 709.090820312 l 1
 454.545898438 709.090820312 l 1
 454.545898438 754.545898438 l 1
EndSplineSet
EndChar

StartChar: uni5386
Encoding: 21382 21382 88
Width: 1000
VWidth: 0
Flags: H
LayerCount: 2
Fore
SplineSet
90.9091796875 345.454101562 m 1
 90.9091796875 800 l 1
 545.454101562 800 l 1
 1000 800 l 1
 1000 754.545898438 l 1
 1000 709.090820312 l 1
 772.727539062 709.090820312 l 1
 545.454101562 709.090820312 l 1
 545.454101562 618.181640625 l 1
 545.454101562 527.272460938 l 1
 772.727539062 527.272460938 l 1
 1000 527.272460938 l 1
 1000 163.63671875 l 1
 1000 -200 l 1
 909.090820312 -200 l 1
 818.181640625 -200 l 1
 818.181640625 -154.545898438 l 1
 818.181640625 -109.090820312 l 1
 772.727539062 -109.090820312 l 1
 727.272460938 -109.090820312 l 1
 727.272460938 -63.63671875 l 1
 727.272460938 -18.181640625 l 1
 772.727539062 -18.181640625 l 1
 818.181640625 -18.181640625 l 1
 818.181640625 -63.63671875 l 1
 818.181640625 -109.090820312 l 1
 863.63671875 -109.090820312 l 1
 909.090820312 -109.090820312 l 1
 909.090820312 163.63671875 l 1
 909.090820312 436.36328125 l 1
 727.272460938 436.36328125 l 1
 545.454101562 436.36328125 l 1
 545.454101562 300 l 1
 545.454101562 163.63671875 l 1
 500 163.63671875 l 1
 454.545898438 163.63671875 l 1
 454.545898438 72.7275390625 l 1
 454.545898438 -18.181640625 l 1
 409.090820312 -18.181640625 l 1
 363.63671875 -18.181640625 l 1
 363.63671875 -63.63671875 l 1
 363.63671875 -109.090820312 l 1
 318.181640625 -109.090820312 l 1
 272.727539062 -109.090820312 l 1
 272.727539062 -154.545898438 l 1
 272.727539062 -200 l 1
 227.272460938 -200 l 1
 181.818359375 -200 l 1
 181.818359375 -154.545898438 l 1
 181.818359375 -109.090820312 l 1
 136.36328125 -109.090820312 l 1
 90.9091796875 -109.090820312 l 1
 90.9091796875 -154.545898438 l 1
 90.9091796875 -200 l 1
 45.4541015625 -200 l 1
 0 -200 l 1
 0 -154.545898438 l 1
 0 -109.090820312 l 1
 45.4541015625 -109.090820312 l 1
 90.9091796875 -109.090820312 l 1
 90.9091796875 345.454101562 l 1
454.545898438 618.181640625 m 1
 454.545898438 709.090820312 l 1
 318.181640625 709.090820312 l 1
 181.818359375 709.090820312 l 1
 181.818359375 618.181640625 l 1
 181.818359375 527.272460938 l 1
 318.181640625 527.272460938 l 1
 454.545898438 527.272460938 l 1
 454.545898438 618.181640625 l 1
454.545898438 300 m 1
 454.545898438 436.36328125 l 1
 318.181640625 436.36328125 l 1
 181.818359375 436.36328125 l 1
 181.818359375 163.63671875 l 1
 181.818359375 -109.090820312 l 1
 227.272460938 -109.090820312 l 1
 272.727539062 -109.090820312 l 1
 272.727539062 -63.63671875 l 1
 272.727539062 -18.181640625 l 1
 318.181640625 -18.181640625 l 1
 363.63671875 -18.181640625 l 1
 363.63671875 72.7275390625 l 1
 363.63671875 163.63671875 l 1
 409.090820312 163.63671875 l 1
 454.545898438 163.63671875 l 1
 454.545898438 300 l 1
EndSplineSet
EndChar

